SplineFontDB: 3.0
FontName: Merriweather-HeavyItalic
FullName: Merriweather Heavy Italic
FamilyName: Merriweather
Weight: Black
Copyright: Copyright (c) 2013, Sorkin Type Co (www.sorkintype.com) with Reserved Font Name 'Merriweather'
Version: 1.001
ItalicAngle: -7
UnderlinePosition: -120
UnderlineWidth: 147
Ascent: 1638
Descent: 410
LayerCount: 2
Layer: 0 1 "Back"  1
Layer: 1 1 "Fore"  0
NeedsXUIDChange: 1
XUID: [1021 631 1661839179 6397941]
FSType: 0
OS2Version: 3
OS2_WeightWidthSlopeOnly: 0
OS2_UseTypoMetrics: 1
CreationTime: 1363324200
ModificationTime: 1364624255
PfmFamily: 17
TTFWeight: 900
TTFWidth: 5
LineGap: 0
VLineGap: 0
Panose: 2 0 5 3 5 0 0 9 0 4
OS2TypoAscent: 376
OS2TypoAOffset: 1
OS2TypoDescent: -150
OS2TypoDOffset: 1
OS2TypoLinegap: 0
OS2WinAscent: -2
OS2WinAOffset: 1
OS2WinDescent: 0
OS2WinDOffset: 1
HheadAscent: -2
HheadAOffset: 1
HheadDescent: 0
HheadDOffset: 1
OS2SubXSize: 1331
OS2SubYSize: 1229
OS2SubXOff: 0
OS2SubYOff: 154
OS2SupXSize: 1331
OS2SupYSize: 1229
OS2SupXOff: 0
OS2SupYOff: 717
OS2StrikeYSize: 102
OS2StrikeYPos: 512
OS2FamilyClass: 512
OS2Vendor: 'STC '
OS2CodePages: 20000093.00000000
OS2UnicodeRanges: a00000af.5000204a.00000000.00000000
Lookup: 1 0 0 "'aalt' Access All Alternates in Latin lookup 0"  {"'aalt' Access All Alternates in Latin lookup 0 subtable"  } ['aalt' ('DFLT' <'dflt' > 'latn' <'AZE ' 'CRT ' 'MOL ' 'ROM ' 'TRK ' 'dflt' > ) ]
Lookup: 3 0 0 "'aalt' Access All Alternates in Latin lookup 1"  {"'aalt' Access All Alternates in Latin lookup 1 subtable"  } ['aalt' ('DFLT' <'dflt' > 'latn' <'AZE ' 'CRT ' 'MOL ' 'ROM ' 'TRK ' 'dflt' > ) ]
Lookup: 1 0 0 "'locl' Localized Forms lookup 2"  {"'locl' Localized Forms lookup 2 subtable"  } ['locl' ('DFLT' <'AZE ' > ) ]
Lookup: 1 0 0 "'locl' Localized Forms lookup 3"  {"'locl' Localized Forms lookup 3 subtable"  } ['locl' ('DFLT' <'TRK ' > ) ]
Lookup: 4 0 0 "'locl' Localized Forms lookup 4"  {"'locl' Localized Forms lookup 4 subtable"  } ['locl' ('DFLT' <'TRK ' > ) ]

StartChar: .notdef
Encoding: 65536 -1 0
Width: 1872
Flags: HW
LayerCount: 2
Fore
SplineSet
228 1416 m 1,0,-1
 1644 1416 l 1,1,-1
 1644 0 l 1,2,-1
 228 0 l 1,3,-1
 228 1416 l 1,0,-1
586 219 m 1,4,-1
 933 587 l 1,5,-1
 1295 219 l 1,6,-1
 1417 341 l 1,7,-1
 1054 709 l 1,8,-1
 1417 1067 l 1,9,-1
 1289 1191 l 1,10,-1
 937 825 l 1,11,-1
 580 1193 l 1,12,-1
 457 1068 l 1,13,-1
 816 705 l 1,14,-1
 458 363 l 1,15,-1
 586 219 l 1,4,-1
EndSplineSet
EndChar

StartChar: numbersign
Encoding: 35 35 2
Width: 1405
Flags: HW
LayerCount: 2
Fore
SplineSet
295 365 m 1,0,-1
 111 365 l 1,1,-1
 134 545 l 1,2,-1
 329 545 l 1,3,-1
 374 850 l 1,4,-1
 181 850 l 1,5,-1
 197 1025 l 1,6,-1
 399 1025 l 1,7,-1
 452 1357 l 1,8,-1
 677 1357 l 1,9,-1
 626 1025 l 1,10,-1
 877 1025 l 1,11,-1
 933 1357 l 1,12,-1
 1158 1357 l 1,13,-1
 1104 1025 l 1,14,-1
 1306 1025 l 1,15,-1
 1290 850 l 1,16,-1
 1079 850 l 1,17,-1
 1033 545 l 1,18,-1
 1231 545 l 1,19,-1
 1208 365 l 1,20,-1
 999 365 l 1,21,-1
 942 0 l 1,22,-1
 722 0 l 1,23,-1
 773 365 l 1,24,-1
 521 365 l 1,25,-1
 459 0 l 1,26,-1
 237 0 l 1,27,-1
 295 365 l 1,0,-1
807 545 m 1,28,-1
 852 850 l 1,29,-1
 601 850 l 1,30,-1
 555 545 l 1,31,-1
 807 545 l 1,28,-1
EndSplineSet
EndChar

StartChar: ampersand
Encoding: 38 38 3
Width: 1812
Flags: HW
LayerCount: 2
Fore
SplineSet
1046 22 m 1,0,1
 858.828 -37 858.828 -37 700.914 -37 c 128,-1,2
 543 -37 543 -37 432 -11 c 128,-1,3
 321 15 321 15 240.5 63.5 c 0,4,5
 71 165.621 71 165.621 71 340 c 0,6,7
 71 579.617 71 579.617 312.5 711.5 c 0,8,9
 383 750 383 750 461 783 c 1,10,11
 382 975.562 382 975.562 382 1097.78 c 128,-1,12
 382 1220 382 1220 423 1305.5 c 128,-1,13
 464 1391 464 1391 536.5 1449.5 c 0,14,15
 684.598 1569 684.598 1569 925 1569 c 0,16,17
 1138.7 1569 1138.7 1569 1253 1479.5 c 0,18,19
 1357 1398.07 1357 1398.07 1357 1265 c 0,20,21
 1357 1088.06 1357 1088.06 1193.5 967.5 c 0,22,23
 1105.84 902.862 1105.84 902.862 1005.92 856.931 c 2,24,-1
 844 784 l 1,25,26
 937.398 617.076 937.398 617.076 987.199 549.038 c 128,-1,27
 1037 481 1037 481 1073 438.5 c 1,28,-1
 1152 349 l 2,29,30
 1160 339 1160 339 1174.5 325.5 c 2,31,-1
 1206 296 l 1,32,33
 1275 390.091 1275 390.091 1275 512 c 0,34,35
 1275 557 1275 557 1272 595 c 1,36,-1
 1249 595 l 2,37,38
 1140.44 595 1140.44 595 1094 557 c 1,39,-1
 1094 783 l 1,40,41
 1143 832 1143 832 1249 832 c 0,42,43
 1284.83 832 1284.83 832 1327.92 826.5 c 0,44,45
 1410.17 816 1410.17 816 1455.08 816 c 128,-1,46
 1500 816 1500 816 1527.5 822.5 c 128,-1,47
 1555 829 1555 829 1573.5 846 c 0,48,49
 1605.98 875.843 1605.98 875.843 1620 968 c 1,50,-1
 1733 968 l 1,51,52
 1756.05 896.758 1756.05 896.758 1756.05 827.513 c 128,-1,53
 1756.05 758.268 1756.05 758.268 1737.02 703.634 c 128,-1,54
 1718 649 1718 649 1678.5 613.5 c 128,-1,55
 1639 578 1639 578 1579 578 c 2,56,-1
 1547 578 l 1,57,-1
 1547 556 l 2,58,59
 1547 340.562 1547 340.562 1351 182 c 1,60,61
 1457.21 128.897 1457.21 128.897 1573 144 c 1,62,-1
 1572 19 l 1,63,64
 1497.19 -12.6498 1497.19 -12.6498 1419.1 -16.3249 c 128,-1,65
 1341 -20 1341 -20 1284 -20 c 0,66,67
 1146.8 -20 1146.8 -20 1046 22 c 1,0,1
919 1446 m 0,68,69
 722 1446 722 1446 722 1177 c 0,70,71
 722 1052.45 722 1052.45 778 915 c 1,72,73
 902.026 975.886 902.026 975.886 962.5 1046 c 0,74,75
 1036 1131.22 1036 1131.22 1036 1249 c 0,76,77
 1036 1379.6 1036 1379.6 975.5 1428 c 0,78,79
 953 1446 953 1446 919 1446 c 0,68,69
544 621 m 1,80,81
 417 518.086 417 518.086 417 382 c 0,82,83
 417 251.568 417 251.568 501.5 177.5 c 0,84,85
 585.352 104 585.352 104 703.176 104 c 128,-1,86
 821 104 821 104 905 122 c 1,87,88
 760.28 256.909 760.28 256.909 624.5 485.5 c 2,89,-1
 544 621 l 1,80,81
EndSplineSet
EndChar

StartChar: quotesingle
Encoding: 39 39 4
Width: 591
Flags: HW
LayerCount: 2
Fore
SplineSet
276 1687 m 1,0,-1
 563 1687 l 1,1,-1
 395 966 l 1,2,-1
 195 966 l 1,3,-1
 276 1687 l 1,0,-1
EndSplineSet
EndChar

StartChar: parenleft
Encoding: 40 40 5
Width: 884
Flags: HW
LayerCount: 2
Fore
SplineSet
199 267 m 0,0,1
 176 377 176 377 176 492.5 c 128,-1,2
 176 608 176 608 193 740.5 c 128,-1,3
 210 873 210 873 258.5 1005 c 128,-1,4
 307 1137 307 1137 370 1249 c 128,-1,5
 433 1361 433 1361 504 1451.5 c 128,-1,6
 575 1542 575 1542 639.5 1608.5 c 0,7,8
 761.612 1734.4 761.612 1734.4 832 1771 c 1,9,-1
 959 1682 l 1,10,11
 853.502 1611.67 853.502 1611.67 716.5 1405.5 c 0,12,13
 606.867 1240.52 606.867 1240.52 534 1020 c 0,14,15
 456 783.947 456 783.947 456 512 c 0,16,17
 456 140.789 456 140.789 614.5 -134.5 c 0,18,19
 668.087 -227.573 668.087 -227.573 713 -265 c 1,20,-1
 575 -349 l 1,21,-1
 558 -349 l 1,22,23
 457.942 -285.805 457.942 -285.805 339.5 -95.5 c 0,24,25
 242.06 61.0609 242.06 61.0609 199 267 c 0,0,1
EndSplineSet
EndChar

StartChar: asterisk
Encoding: 42 42 7
Width: 1366
Flags: HW
LayerCount: 2
Fore
SplineSet
221 993 m 1,0,-1
 564 1131 l 1,1,-1
 624 1151 l 1,2,-1
 572 1169 l 1,3,-1
 252 1309 l 1,4,-1
 393 1513 l 1,5,-1
 655 1295 l 1,6,-1
 697 1256 l 1,7,-1
 691 1318 l 1,8,-1
 684 1673 l 1,9,-1
 936 1672 l 1,10,-1
 853 1314 l 1,11,-1
 838 1261 l 1,12,-1
 884 1297 l 1,13,-1
 1194 1515 l 1,14,-1
 1290 1307 l 1,15,-1
 946 1169 l 1,16,-1
 886 1149 l 1,17,-1
 939 1130 l 1,18,-1
 1259 991 l 1,19,-1
 1118 787 l 1,20,-1
 855 1004 l 1,21,-1
 813 1046 l 1,22,-1
 819 982 l 1,23,-1
 826 627 l 1,24,-1
 574 628 l 1,25,-1
 656 986 l 1,26,-1
 672 1040 l 1,27,-1
 626 1002 l 1,28,-1
 317 785 l 1,29,-1
 221 993 l 1,0,-1
EndSplineSet
EndChar

StartChar: plus
Encoding: 43 43 8
Width: 1326
Flags: HW
LayerCount: 2
Fore
SplineSet
558 516 m 1,0,-1
 584 680 l 1,1,-1
 443 673 l 1,2,-1
 248 673 l 1,3,-1
 266 871 l 1,4,-1
 482 871 l 1,5,-1
 620 860 l 1,6,-1
 633 1025 l 1,7,-1
 660 1255 l 1,8,-1
 878 1255 l 1,9,-1
 852 1025 l 1,10,-1
 823 861 l 1,11,-1
 938 871 l 1,12,-1
 1163 871 l 1,13,-1
 1145 673 l 1,14,-1
 900 673 l 1,15,-1
 788 680 l 1,16,17
 786 638 786 638 783 598 c 128,-1,18
 780 558 780 558 778 516 c 1,19,-1
 750 275 l 1,20,-1
 531 275 l 1,21,-1
 558 516 l 1,0,-1
EndSplineSet
EndChar

StartChar: comma
Encoding: 44 44 9
Width: 556
Flags: HW
LayerCount: 2
Fore
SplineSet
95 142 m 1,0,-1
 229 295 l 1,1,2
 341.403 269.203 341.403 269.203 396.5 177 c 0,3,4
 442 100.857 442 100.857 442 6.42857 c 128,-1,5
 442 -88 442 -88 413.5 -164.5 c 128,-1,6
 385 -241 385 -241 333.5 -307.5 c 0,7,8
 230.949 -439.92 230.949 -439.92 48 -521 c 1,9,-1
 -15 -432 l 1,10,-1
 -12 -411 l 1,11,12
 69.8277 -375.076 69.8277 -375.076 130.5 -278 c 0,13,14
 190 -182.8 190 -182.8 190 -88 c 0,15,16
 190 -21.2593 190 -21.2593 168.5 15.3704 c 0,17,18
 130.603 79.9365 130.603 79.9365 88 78 c 1,19,-1
 95 142 l 1,0,-1
EndSplineSet
EndChar

StartChar: hyphen
Encoding: 45 45 10
Width: 1286
Flags: HW
LayerCount: 2
Fore
SplineSet
266 871 m 1,0,-1
 1123 871 l 1,1,-1
 1105 673 l 1,2,-1
 248 673 l 1,3,-1
 266 871 l 1,0,-1
EndSplineSet
EndChar

StartChar: period
Encoding: 46 46 11
Width: 556
Flags: HW
LayerCount: 2
Fore
SplineSet
72 77 m 0,0,1
 61 106 61 106 61 147 c 128,-1,2
 61 188 61 188 78 225 c 128,-1,3
 95 262 95 262 122.5 288 c 0,4,5
 178.558 341 178.558 341 252 341 c 0,6,7
 322.8 341 322.8 341 363.5 291.5 c 0,8,9
 400 247.108 400 247.108 400 188.054 c 128,-1,10
 400 129 400 129 382 91.5 c 128,-1,11
 364 54 364 54 335 29 c 0,12,13
 278.16 -20 278.16 -20 198 -20 c 0,14,15
 108.793 -20 108.793 -20 72 77 c 0,0,1
EndSplineSet
EndChar

StartChar: slash
Encoding: 47 47 12
Width: 854
Flags: HW
LayerCount: 2
Fore
SplineSet
-122 -362 m 1,0,-1
 739 1597 l 1,1,-1
 973 1597 l 1,2,-1
 110 -362 l 1,3,-1
 -122 -362 l 1,0,-1
EndSplineSet
EndChar

StartChar: zero
Encoding: 48 48 13
Width: 1278
Flags: HW
LayerCount: 2
Fore
SplineSet
108 270.5 m 128,-1,1
 81 355 81 355 81 478 c 128,-1,2
 81 601 81 601 128.5 731 c 128,-1,3
 176 861 176 861 261 957 c 128,-1,4
 346 1053 346 1053 464.5 1107.5 c 128,-1,5
 583 1162 583 1162 719.5 1162 c 128,-1,6
 856 1162 856 1162 948 1128 c 128,-1,7
 1040 1094 1040 1094 1097.5 1032.5 c 0,8,9
 1207 915.383 1207 915.383 1207 697 c 0,10,11
 1207 403.067 1207 403.067 1036.5 199.5 c 0,12,13
 954 101 954 101 835.5 42.5 c 128,-1,14
 717 -16 717 -16 577.5 -16 c 128,-1,15
 438 -16 438 -16 345 21.5 c 128,-1,16
 252 59 252 59 193.5 122.5 c 128,-1,0
 135 186 135 186 108 270.5 c 128,-1,1
873 677 m 0,17,18
 873 1053 873 1053 697 1053 c 0,19,20
 498.099 1053 498.099 1053 437 719.5 c 0,21,22
 415 599.417 415 599.417 415 495.208 c 128,-1,23
 415 391 415 391 424.5 323.5 c 128,-1,24
 434 256 434 256 455 205 c 0,25,26
 500.706 94 500.706 94 591 94 c 0,27,28
 691.25 94 691.25 94 759.5 185 c 0,29,30
 873 336.333 873 336.333 873 677 c 0,17,18
EndSplineSet
EndChar

StartChar: one
Encoding: 49 49 14
Width: 930
Flags: HW
LayerCount: 2
Fore
SplineSet
71 106 m 1,0,-1
 272 136 l 1,1,-1
 376 887 l 1,2,3
 259 859.5 l 2,4,5
 200 846 200 846 134 835 c 1,6,-1
 115 960 l 1,7,8
 288.485 1000.03 288.485 1000.03 483 1104 c 0,9,10
 541 1135 541 1135 581 1162 c 1,11,-1
 744 1125 l 1,12,-1
 604 136 l 1,13,-1
 814 106 l 1,14,-1
 804 0 l 1,15,-1
 61 0 l 1,16,-1
 71 106 l 1,0,-1
EndSplineSet
Substitution2: "'sups' Superscript in Latin lookup 11 subtable" onesuperior
EndChar

StartChar: two
Encoding: 50 50 15
Width: 1249
Flags: HW
LayerCount: 2
Fore
SplineSet
42 136 m 1,0,1
 433.647 373.785 433.647 373.785 614 581 c 0,2,3
 714 695.894 714 695.894 714 776 c 0,4,5
 714 897.587 714 897.587 630.5 940 c 0,6,7
 599 956 599 956 549.5 956 c 128,-1,8
 500 956 500 956 449.5 942 c 128,-1,9
 399 928 399 928 352.5 903.5 c 0,10,11
 260.089 854.81 260.089 854.81 188 770 c 1,12,-1
 113 900 l 1,13,14
 243.335 1073.78 243.335 1073.78 454 1137.5 c 0,15,16
 535 1162 535 1162 645.5 1162 c 128,-1,17
 756 1162 756 1162 839.5 1130 c 128,-1,18
 923 1098 923 1098 973 1048.5 c 0,19,20
 1064 958.41 1064 958.41 1064 826 c 0,21,22
 1064 582.987 1064 582.987 702 332 c 0,23,24
 568.418 239.383 568.418 239.383 387 151 c 1,25,-1
 899 194 l 1,26,-1
 1051 395 l 1,27,-1
 1199 349 l 1,28,-1
 1078 0 l 1,29,-1
 75 0 l 1,30,-1
 42 136 l 1,0,1
EndSplineSet
Substitution2: "'sups' Superscript in Latin lookup 11 subtable" twosuperior
EndChar

StartChar: three
Encoding: 51 51 16
Width: 1104
Flags: HW
LayerCount: 2
Fore
SplineSet
21 -168 m 1,0,1
 81 -184 81 -184 184.5 -184 c 128,-1,2
 288 -184 288 -184 373 -155.5 c 128,-1,3
 458 -127 458 -127 512 -80 c 0,4,5
 615 9.64815 615 9.64815 615 155 c 0,6,7
 615 296.19 615 296.19 467.5 328.5 c 0,8,9
 436.538 335.282 436.538 335.282 403.654 335.282 c 128,-1,10
 370.769 335.282 370.769 335.282 340 332 c 1,11,-1
 231 302 l 1,12,-1
 252 475 l 1,13,14
 393.586 502.472 393.586 502.472 509 599 c 0,15,16
 633 702.709 633 702.709 633 815 c 0,17,18
 633 862.824 633 862.824 608 895.912 c 0,19,20
 560.333 959 560.333 959 488 959 c 0,21,22
 311.316 959 311.316 959 161 833 c 1,23,-1
 101 958 l 1,24,25
 213.021 1082.95 213.021 1082.95 424.5 1141 c 0,26,27
 501 1162 501 1162 580.5 1162 c 128,-1,28
 660 1162 660 1162 728.5 1142.5 c 128,-1,29
 797 1123 797 1123 848.5 1086 c 0,30,31
 962 1004.46 962 1004.46 962 871 c 0,32,33
 962 738.914 962 738.914 863.5 633 c 0,34,35
 769.282 531.69 769.282 531.69 614 482 c 1,36,37
 863.134 470.546 863.134 470.546 927.5 289 c 0,38,39
 947 234 947 234 947 170 c 0,40,41
 947 -80.4847 947 -80.4847 742 -217.5 c 0,42,43
 543.756 -350 543.756 -350 204 -350 c 0,44,45
 96.75 -350 96.75 -350 -1 -327 c 1,46,-1
 21 -168 l 1,0,1
EndSplineSet
Substitution2: "'sups' Superscript in Latin lookup 11 subtable" threesuperior
EndChar

StartChar: four
Encoding: 52 52 17
Width: 1264
Flags: HW
LayerCount: 2
Fore
SplineSet
-24 84 m 1,0,1
 67 221 67 221 149 357.5 c 1,2,-1
 312 636.5 l 1,3,-1
 658 1256 l 1,4,-1
 955 1256 l 1,5,-1
 1037 1167 l 1,6,-1
 380 219 l 1,7,-1
 337 153 l 1,8,-1
 693 182 l 1,9,-1
 737 491 l 1,10,-1
 1040 549 l 1,11,-1
 999 185 l 1,12,-1
 1182 200 l 1,13,-1
 1155 0 l 1,14,-1
 965 0 l 1,15,-1
 918 -375 l 1,16,-1
 619 -375 l 1,17,-1
 668 0 l 1,18,-1
 42 0 l 1,19,-1
 -24 84 l 1,0,1
EndSplineSet
EndChar

StartChar: five
Encoding: 53 53 18
Width: 1116
Flags: HW
LayerCount: 2
Fore
SplineSet
61 -185 m 1,0,1
 112.2 -201 112.2 -201 204.6 -201 c 128,-1,2
 297 -201 297 -201 386 -164 c 128,-1,3
 475 -127 475 -127 530.5 -69.5 c 0,4,5
 636 39.8018 636 39.8018 636 194 c 0,6,7
 636 354.292 636 354.292 490 402.5 c 0,8,9
 437 420 437 420 380 420 c 128,-1,10
 323 420 323 420 292.5 415 c 128,-1,11
 262 410 262 410 237 402.5 c 128,-1,12
 212 395 212 395 192 385.5 c 2,13,-1
 154 367 l 1,14,-1
 93 414 l 1,15,-1
 274 1146 l 1,16,-1
 811 1146 l 1,17,-1
 833 1162 l 1,18,-1
 1051 1162 l 1,19,-1
 996 934 l 1,20,-1
 532 934 l 1,21,-1
 428 568 l 1,22,23
 493.333 596 493.333 596 605.667 596 c 128,-1,24
 718 596 718 596 781 571.5 c 128,-1,25
 844 547 844 547 890 502 c 0,26,27
 988 406.13 988 406.13 988 251.565 c 128,-1,28
 988 97 988 97 930 -16 c 128,-1,29
 872 -129 872 -129 768.5 -204 c 0,30,31
 561.5 -354 561.5 -354 210 -354 c 0,32,33
 160.5 -354 160.5 -354 102.75 -343 c 128,-1,34
 45 -332 45 -332 36 -329 c 1,35,-1
 61 -185 l 1,0,1
EndSplineSet
EndChar

StartChar: six
Encoding: 54 54 19
Width: 1208
Flags: HW
LayerCount: 2
Fore
SplineSet
523 -20 m 0,0,1
 431 -20 431 -20 349.5 11 c 128,-1,2
 268 42 268 42 209.5 109 c 0,3,4
 87 249.299 87 249.299 87 529 c 0,5,6
 87 887.9 87 887.9 341 1180 c 0,7,8
 591.171 1467.7 591.171 1467.7 974 1571 c 1,9,-1
 1028 1437 l 1,10,11
 837.569 1379.47 837.569 1379.47 681 1215.5 c 0,12,13
 526.079 1053.25 526.079 1053.25 464 855 c 1,14,15
 532.75 945.461 532.75 945.461 673.5 982.5 c 0,16,17
 721 995 721 995 790.5 995 c 128,-1,18
 860 995 860 995 924 966 c 128,-1,19
 988 937 988 937 1029.5 885.5 c 0,20,21
 1112 783.12 1112 783.12 1112 611 c 0,22,23
 1112 354 1112 354 948 169.5 c 0,24,25
 779.556 -20 779.556 -20 523 -20 c 0,0,1
793 549 m 0,26,27
 793 812 793 812 655 812 c 0,28,29
 549.578 812 549.578 812 465 725.5 c 0,30,31
 443 703 443 703 431 683 c 1,32,33
 404 559.571 404 559.571 404 467.786 c 128,-1,34
 404 376 404 376 411.5 314.5 c 128,-1,35
 419 253 419 253 438.5 209 c 0,36,37
 479.716 116 479.716 116 576 116 c 0,38,39
 720.875 116 720.875 116 772.5 352 c 0,40,41
 793 445.714 793 445.714 793 549 c 0,26,27
EndSplineSet
EndChar

StartChar: seven
Encoding: 55 55 20
Width: 1096
Flags: HW
LayerCount: 2
Fore
SplineSet
833 981 m 1,0,-1
 419 959 l 1,1,-1
 316 728 l 1,2,-1
 78 732 l 1,3,-1
 165 1146 l 1,4,-1
 1087 1146 l 1,5,-1
 1119 1103 l 1,6,-1
 512 -340 l 1,7,-1
 174 -244 l 1,8,-1
 833 981 l 1,0,-1
EndSplineSet
EndChar

StartChar: eight
Encoding: 56 56 21
Width: 1256
Flags: HW
LayerCount: 2
Fore
SplineSet
423 812 m 1,0,1
 237 969.385 237 969.385 237 1179 c 0,2,3
 237 1345.76 237 1345.76 376.5 1447.5 c 0,4,5
 517.041 1550 517.041 1550 744 1550 c 0,6,7
 933.711 1550 933.711 1550 1051 1467.5 c 0,8,9
 1178 1378.17 1178 1378.17 1178 1218 c 0,10,11
 1178 1032.75 1178 1032.75 992.5 891.5 c 0,12,13
 938 850 938 850 878 814 c 1,14,15
 1063.22 686.03 1063.22 686.03 1123 519.5 c 0,16,17
 1144 461 1144 461 1144 379.5 c 128,-1,18
 1144 298 1144 298 1096 220.5 c 128,-1,19
 1048 143 1048 143 970 89.5 c 0,20,21
 810.355 -20 810.355 -20 587 -20 c 0,22,23
 393.61 -20 393.61 -20 261 61.5 c 0,24,25
 99 161.062 99 161.062 99 364 c 0,26,27
 99 557.06 99 557.06 299.5 725 c 0,28,29
 358 774 358 774 423 812 c 1,0,1
729 929 m 1,30,31
 817.049 983.733 817.049 983.733 853.025 1032.37 c 0,32,33
 921 1124.26 921 1124.26 921 1233 c 0,34,35
 921 1343.3 921 1343.3 860 1393 c 0,36,37
 813.364 1431 813.364 1431 752.682 1431 c 128,-1,38
 692 1431 692 1431 656.5 1421 c 128,-1,39
 621 1411 621 1411 594.5 1386.5 c 0,40,41
 538 1334.26 538 1334.26 538 1234.13 c 128,-1,42
 538 1134 538 1134 587 1064.5 c 128,-1,43
 636 995 636 995 729 929 c 1,30,31
568 704 m 1,44,45
 385 582 385 582 385 368 c 0,46,47
 385 270.96 385 270.96 434 195.5 c 0,48,49
 492.117 106 492.117 106 592 106 c 0,50,51
 693.105 106 693.105 106 761.5 162.5 c 0,52,53
 838 225.696 838 225.696 838 340 c 0,54,55
 838 480.747 838 480.747 672.5 619.5 c 1,56,-1
 568 704 l 1,44,45
EndSplineSet
EndChar

StartChar: nine
Encoding: 57 57 22
Width: 1247
Flags: HW
LayerCount: 2
Fore
SplineSet
685 1162 m 0,0,1
 1128 1162 1128 1162 1128 634 c 0,2,3
 1128 386.836 1128 386.836 1005 152.5 c 0,4,5
 888.052 -70.3069 888.052 -70.3069 686 -227 c 0,6,7
 482.019 -385.19 482.019 -385.19 245 -431 c 1,8,-1
 185 -294 l 1,9,10
 599.625 -166.423 599.625 -166.423 766 268 c 1,11,-1
 722 222 l 1,12,13
 638 138 638 138 486 138 c 0,14,15
 287.946 138 287.946 138 187 262.5 c 0,16,17
 103 366.1 103 366.1 103 514.05 c 128,-1,18
 103 662 103 662 143.5 776.5 c 128,-1,19
 184 891 184 891 259.5 976.5 c 0,20,21
 423.304 1162 423.304 1162 685 1162 c 0,0,1
422 594 m 0,22,23
 422 321 422 321 559 321 c 0,24,25
 693 321 693 321 785 459 c 1,26,27
 811 564.857 811 564.857 811 661.929 c 128,-1,28
 811 759 811 759 804 819.5 c 128,-1,29
 797 880 797 880 778 926 c 0,30,31
 736.283 1027 736.283 1027 637 1027 c 0,32,33
 494.219 1027 494.219 1027 441.5 786 c 0,34,35
 422 696.857 422 696.857 422 594 c 0,22,23
EndSplineSet
EndChar

StartChar: less
Encoding: 60 60 25
Width: 1368
Flags: HW
LayerCount: 2
Fore
SplineSet
211 814 m 1,0,-1
 1220 1324 l 1,1,-1
 1187 1063 l 1,2,-1
 505 747 l 1,3,-1
 1111 417 l 1,4,-1
 1085 176 l 1,5,-1
 195 686 l 1,6,-1
 211 814 l 1,0,-1
EndSplineSet
EndChar

StartChar: equal
Encoding: 61 61 26
Width: 1063
Flags: HW
LayerCount: 2
Fore
SplineSet
172 1035 m 1,0,-1
 987 1035 l 1,1,-1
 964 838 l 1,2,-1
 149 838 l 1,3,-1
 172 1035 l 1,0,-1
99 506 m 1,4,-1
 914 506 l 1,5,-1
 891 309 l 1,6,-1
 76 309 l 1,7,-1
 99 506 l 1,4,-1
EndSplineSet
EndChar

StartChar: question
Encoding: 63 63 28
Width: 951
Flags: HW
LayerCount: 2
Fore
SplineSet
465.538 702.692 m 0,0,1
 462.077 668.385 462.077 668.385 462.077 632.692 c 128,-1,2
 462.077 597 462.077 597 483 529 c 1,3,-1
 311 480 l 1,4,-1
 297 481 l 1,5,6
 226 556.438 226 556.438 226 707 c 0,7,8
 226 850.059 226 850.059 399 962 c 1,9,-1
 506 1028 l 1,10,11
 646.61 1100.73 646.61 1100.73 726 1186 c 1,12,13
 757.346 1248.69 757.346 1248.69 757.346 1311.46 c 128,-1,14
 757.346 1374.23 757.346 1374.23 735.673 1425.12 c 128,-1,15
 714 1476 714 1476 669 1515 c 0,16,17
 573.231 1598 573.231 1598 414 1598 c 0,18,19
 314 1598 314 1598 198 1540 c 1,20,-1
 259 1760 l 1,21,22
 303 1800.33 303 1800.33 468 1826 c 0,23,24
 513 1833 513 1833 578 1833 c 128,-1,25
 643 1833 643 1833 716 1815 c 128,-1,26
 789 1797 789 1797 842 1765.5 c 128,-1,27
 895 1734 895 1734 930.5 1692 c 128,-1,28
 966 1650 966 1650 986.5 1602 c 0,29,30
 1024 1514.2 1024 1514.2 1024 1413.1 c 128,-1,31
 1024 1312 1024 1312 1001 1244 c 128,-1,32
 978 1176 978 1176 940.5 1124 c 128,-1,33
 903 1072 903 1072 854.5 1033 c 128,-1,34
 806 994 806 994 754.5 962 c 2,35,-1
 653.5 901.5 l 1,36,37
 475.242 798.867 475.242 798.867 465.538 702.692 c 0,0,1
304 77 m 0,38,39
 293 106 293 106 293 147 c 128,-1,40
 293 188 293 188 310 225 c 128,-1,41
 327 262 327 262 354.5 288 c 0,42,43
 410.558 341 410.558 341 484 341 c 0,44,45
 554.8 341 554.8 341 595.5 291.5 c 0,46,47
 632 247.108 632 247.108 632 188.054 c 128,-1,48
 632 129 632 129 614 91.5 c 128,-1,49
 596 54 596 54 567 29 c 0,50,51
 510.16 -20 510.16 -20 430 -20 c 0,52,53
 340.793 -20 340.793 -20 304 77 c 0,38,39
EndSplineSet
EndChar

StartChar: at
Encoding: 64 64 29
Width: 1969
Flags: HW
LayerCount: 2
Fore
SplineSet
1386 239 m 2,0,1
 1386 173 1386 173 1413 173 c 0,2,3
 1492.94 173 1492.94 173 1566 274 c 0,4,5
 1670.48 418.435 1670.48 418.435 1704.5 669.5 c 0,6,7
 1715 747 1715 747 1715 836.5 c 128,-1,8
 1715 926 1715 926 1690 1009.5 c 128,-1,9
 1665 1093 1665 1093 1621.5 1158 c 128,-1,10
 1578 1223 1578 1223 1519.5 1269.5 c 128,-1,11
 1461 1316 1461 1316 1393.5 1346 c 0,12,13
 1260.75 1405 1260.75 1405 1120.88 1405 c 128,-1,14
 981 1405 981 1405 870 1364 c 128,-1,15
 759 1323 759 1323 666.5 1252 c 128,-1,16
 574 1181 574 1181 502 1084.5 c 128,-1,17
 430 988 430 988 380 877.5 c 0,18,19
 278 652.08 278 652.08 278 408 c 0,20,21
 278 69.1081 278 69.1081 480.5 -111.5 c 0,22,23
 660.455 -272 660.455 -272 941 -272 c 0,24,25
 1078.14 -272 1078.14 -272 1221.5 -234 c 0,26,27
 1263 -223 1263 -223 1287 -211 c 1,28,-1
 1330 -319 l 1,29,30
 1222.01 -402.308 1222.01 -402.308 1032.5 -428.5 c 0,31,32
 971 -437 971 -437 881 -437 c 128,-1,33
 791 -437 791 -437 683.5 -417 c 128,-1,34
 576 -397 576 -397 481.5 -356 c 128,-1,35
 387 -315 387 -315 308.5 -252 c 128,-1,36
 230 -189 230 -189 173.5 -103 c 0,37,38
 55 77.3717 55 77.3717 55 337 c 0,39,40
 55 692.378 55 692.378 231 987.5 c 0,41,42
 392.722 1258.68 392.722 1258.68 660.5 1418.5 c 0,43,44
 921.04 1574 921.04 1574 1196 1574 c 0,45,46
 1510.24 1574 1510.24 1574 1708.5 1396.5 c 0,47,48
 1912 1214.31 1912 1214.31 1912 913 c 0,49,50
 1912 499.88 1912 499.88 1720.5 238 c 0,51,52
 1603.26 77.6655 1603.26 77.6655 1448.5 19 c 0,53,54
 1372 -10 1372 -10 1294 -10 c 0,55,56
 1169 -10 1169 -10 1169 195 c 0,57,58
 1169 295.5 1169 295.5 1207 457 c 1,59,60
 1081.32 161.273 1081.32 161.273 924 47.5 c 0,61,62
 868 7 868 7 809.5 7 c 128,-1,63
 751 7 751 7 692 33 c 128,-1,64
 633 59 633 59 587 112.5 c 0,65,66
 485 231.13 485 231.13 485 441 c 0,67,68
 485 700.176 485 700.176 641 899 c 0,69,70
 747.096 1034.22 747.096 1034.22 908.5 1089 c 0,71,72
 991 1117 991 1117 1050.5 1117 c 128,-1,73
 1110 1117 1110 1117 1136.5 1112.5 c 128,-1,74
 1163 1108 1163 1108 1191.5 1099.5 c 0,75,76
 1257.43 1079.84 1257.43 1079.84 1295 1053 c 1,77,-1
 1500 1103 l 1,78,79
 1432.74 847.419 1432.74 847.419 1391 430 c 0,80,81
 1385 371.5 1385 371.5 1385 311.5 c 2,82,-1
 1386 239 l 2,0,1
758 631.5 m 128,-1,84
 738 539 738 539 738 476.5 c 128,-1,85
 738 414 738 414 744.5 375.5 c 128,-1,86
 751 337 751 337 765 304 c 0,87,88
 798.091 226 798.091 226 854 226 c 0,89,90
 906.877 226 906.877 226 996 353 c 0,91,92
 1127.95 541.029 1127.95 541.029 1203.5 766 c 0,93,94
 1226 833 1226 833 1232 882 c 1,95,96
 1206.55 929.721 1206.55 929.721 1115.5 956.5 c 0,97,98
 1090 964 1090 964 1069 964 c 0,99,100
 912.595 964 912.595 964 819.5 798 c 0,101,83
 778 724 778 724 758 631.5 c 128,-1,84
EndSplineSet
EndChar

StartChar: A
Encoding: 65 65 30
Width: 1375
Flags: HW
LayerCount: 2
Fore
SplineSet
667 1530 m 1,0,-1
 1014 1530 l 1,1,-1
 1261 138 l 1,2,-1
 1422 106 l 1,3,-1
 1416 0 l 1,4,-1
 727 0 l 1,5,-1
 732 106 l 1,6,-1
 889 135 l 1,7,-1
 849 416 l 1,8,-1
 339 416 l 1,9,-1
 214 136 l 1,10,-1
 402 106 l 1,11,-1
 394 0 l 1,12,-1
 -164 0 l 1,13,-1
 -156 106 l 1,14,-1
 -18 135 l 1,15,-1
 667 1530 l 1,0,-1
828 567 m 1,16,-1
 750 1117 l 1,17,-1
 741 1316 l 1,18,-1
 406 567 l 1,19,-1
 828 567 l 1,16,-1
EndSplineSet
EndChar

StartChar: B
Encoding: 66 66 31
Width: 1396
Flags: HW
LayerCount: 2
Fore
SplineSet
595 -20 m 1,0,-1
 275 0 l 1,1,-1
 -22 0 l 1,2,-1
 -13 106 l 1,3,-1
 127 136 l 1,4,-1
 294 1394 l 1,5,-1
 149 1420 l 1,6,-1
 162 1530 l 1,7,-1
 498 1530 l 1,8,-1
 857 1546 l 1,9,10
 1124.09 1546 1124.09 1546 1240.5 1444 c 0,11,12
 1335.36 1360.89 1335.36 1360.89 1335.36 1198.52 c 0,13,14
 1335.36 894.652 1335.36 894.652 959 803 c 1,15,16
 965.566 803.151 965.566 803.151 1008.35 803.151 c 128,-1,17
 1051.13 803.151 1051.13 803.151 1116.57 779.575 c 128,-1,18
 1182 756 1182 756 1229.5 714 c 0,19,20
 1327 627.789 1327 627.789 1327 493.395 c 128,-1,21
 1327 359 1327 359 1280 260 c 128,-1,22
 1233 161 1233 161 1140.5 99 c 0,23,24
 962.96 -20 962.96 -20 595 -20 c 1,0,-1
559 856 m 1,25,-1
 683 856 l 2,26,27
 824.778 856 824.778 856 912 934.5 c 0,28,29
 1005.32 1018.48 1005.32 1018.48 1005.32 1173.54 c 0,30,31
 1005.32 1298.59 1005.32 1298.59 945.658 1359.3 c 128,-1,32
 886 1420 886 1420 778 1420 c 0,33,34
 692.5 1420 692.5 1420 633 1406 c 1,35,-1
 559 856 l 1,25,-1
638 105 m 0,36,37
 960.551 105 960.551 105 960.551 437.203 c 0,38,39
 960.551 591.205 960.551 591.205 888 656.5 c 0,40,41
 818.556 719 818.556 719 665 719 c 0,42,43
 611 719 611 719 590 717.5 c 128,-1,44
 569 716 569 716 559 715.5 c 128,-1,45
 549 715 549 715 540 714 c 1,46,-1
 461 128 l 1,47,48
 548.4 105 548.4 105 638 105 c 0,36,37
EndSplineSet
EndChar

StartChar: C
Encoding: 67 67 32
Width: 1300
Flags: HW
LayerCount: 2
Fore
SplineSet
450.652 686.051 m 0,0,1
 450.652 145 450.652 145 731 145 c 0,2,3
 823.933 145 823.933 145 871.467 168 c 128,-1,4
 919 191 919 191 940 212.5 c 128,-1,5
 961 234 961 234 972.5 256.5 c 128,-1,6
 984 279 984 279 993.5 305.5 c 128,-1,7
 1003 332 1003 332 1011.5 361 c 2,8,-1
 1028 419 l 1,9,-1
 1229 420 l 1,10,-1
 1186 136 l 1,11,12
 1107.61 71.1294 1107.61 71.1294 1030.81 42.5647 c 0,13,14
 873.333 -16 873.333 -16 690.167 -16 c 128,-1,15
 507 -16 507 -16 389.5 37 c 128,-1,16
 272 90 272 90 199 179.5 c 0,17,18
 60 349.918 60 349.918 60 637 c 0,19,20
 60 1061.36 60 1061.36 303 1307.5 c 0,21,22
 541.417 1549 541.417 1549 949 1549 c 0,23,24
 1141.65 1549 1141.65 1549 1252 1515.5 c 0,25,26
 1280 1507 1280 1507 1308 1501 c 1,27,-1
 1341 1492 l 1,28,-1
 1280 1092 l 1,29,-1
 1027 1092 l 1,30,-1
 987 1402 l 1,31,32
 939.75 1420 939.75 1420 876.375 1420 c 128,-1,33
 813 1420 813 1420 748.5 1386.5 c 128,-1,34
 684 1353 684 1353 634.5 1296 c 128,-1,35
 585 1239 585 1239 549 1163.5 c 0,36,37
 450.652 957.243 450.652 957.243 450.652 686.051 c 0,0,1
EndSplineSet
EndChar

StartChar: D
Encoding: 68 68 33
Width: 1505
Flags: HW
LayerCount: 2
Fore
SplineSet
-32 106 m 1,0,-1
 126 136 l 1,1,-1
 294 1394 l 1,2,-1
 150 1420 l 1,3,-1
 161 1530 l 1,4,-1
 478 1530 l 1,5,6
 563 1531 563 1531 654.5 1538.5 c 128,-1,7
 746 1546 746 1546 835 1546 c 2,8,9
 842.29 1546.02 l 2,10,11
 1176.93 1546.02 1176.93 1546.02 1342.5 1365.5 c 0,12,13
 1488 1206.86 1488 1206.86 1488 921 c 0,14,15
 1488 251.071 1488 251.071 1000 53 c 0,16,17
 830 -16 830 -16 592 -16 c 0,18,19
 566 -16 566 -16 533 -12 c 128,-1,20
 500 -8 500 -8 477 -6.5 c 128,-1,21
 454 -5 454 -5 427.5 -3.5 c 0,22,23
 365.667 6.05606e-07 365.667 6.05606e-07 324 0 c 2,24,-1
 -44 0 l 1,25,-1
 -32 106 l 1,0,-1
477 136 m 1,26,27
 542.909 111 542.909 111 623.955 111 c 128,-1,28
 705 111 705 111 778 145 c 128,-1,29
 851 179 851 179 906.5 236.5 c 128,-1,30
 962 294 962 294 1001 371 c 128,-1,31
 1040 448 1040 448 1064.5 534.5 c 0,32,33
 1111 698.673 1111 698.673 1111 863.337 c 128,-1,34
 1111 1028 1111 1028 1092.5 1129.5 c 128,-1,35
 1074 1231 1074 1231 1036 1295.5 c 0,36,37
 962.651 1420 962.651 1420 802 1420 c 0,38,39
 688.5 1420 688.5 1420 643 1394 c 1,40,-1
 477 136 l 1,26,27
EndSplineSet
EndChar

StartChar: E
Encoding: 69 69 34
Width: 1329
Flags: HW
LayerCount: 2
Fore
SplineSet
-32 106 m 1,0,-1
 128 136 l 1,1,-1
 292 1394 l 1,2,-1
 147 1420 l 1,3,-1
 158 1530 l 1,4,-1
 1276 1530 l 1,5,-1
 1240 1160 l 1,6,-1
 1018 1160 l 1,7,-1
 984 1384 l 1,8,-1
 645 1410 l 1,9,-1
 573 881 l 1,10,-1
 1017 905 l 1,11,-1
 994 687 l 1,12,-1
 553 712 l 1,13,-1
 475 136 l 1,14,-1
 938 171 l 1,15,-1
 1055 468 l 1,16,-1
 1268 454 l 1,17,-1
 1198 0 l 1,18,-1
 -46 0 l 1,19,-1
 -32 106 l 1,0,-1
EndSplineSet
EndChar

StartChar: F
Encoding: 70 70 35
Width: 1215
Flags: HW
LayerCount: 2
Fore
SplineSet
-10 106 m 1,0,-1
 128 136 l 1,1,-1
 292 1394 l 1,2,-1
 147 1420 l 1,3,-1
 161 1530 l 1,4,-1
 1297 1530 l 1,5,-1
 1253 1148 l 1,6,-1
 1032 1148 l 1,7,-1
 1013 1390 l 1,8,-1
 647 1408 l 1,9,-1
 572 859 l 1,10,-1
 1055 897 l 1,11,-1
 1028 662 l 1,12,-1
 552 701 l 1,13,-1
 480 136 l 1,14,-1
 807 106 l 1,15,-1
 799 0 l 1,16,-1
 -21 0 l 1,17,-1
 -10 106 l 1,0,-1
EndSplineSet
EndChar

StartChar: G
Encoding: 71 71 36
Width: 1450
Flags: HW
LayerCount: 2
Fore
SplineSet
903 1420 m 0,0,1
 433 1420 433 1420 433 658 c 0,2,3
 433 293.824 433 293.824 582 175.5 c 0,4,5
 633 135 633 135 704 135 c 256,6,7
 850.25 135 850.25 135 929 163 c 1,8,-1
 978 590 l 1,9,-1
 776 607 l 1,10,-1
 795 753 l 1,11,-1
 1351 753 l 1,12,-1
 1265 84 l 1,13,-1
 1225.5 79 l 2,14,15
 1135.57 67.52 1135.57 67.52 1083.29 53.76 c 2,16,-1
 983 28 l 1,17,18
 807 -16 807 -16 645.5 -16 c 128,-1,19
 484 -16 484 -16 376 36.5 c 128,-1,20
 268 89 268 89 198.5 178 c 0,21,22
 59.7143 355.726 59.7143 355.726 59.7143 656.107 c 0,23,24
 59.7143 1056.51 59.7143 1056.51 265.5 1293.5 c 0,25,26
 487.354 1549 487.354 1549 900 1549 c 0,27,28
 1111.3 1549 1111.3 1549 1263 1508 c 0,29,30
 1300 1498 1300 1498 1333 1490 c 1,31,-1
 1395 1479 l 1,32,-1
 1327 1123 l 1,33,-1
 1080 1123 l 1,34,-1
 1072 1380 l 1,35,36
 998.316 1420 998.316 1420 903 1420 c 0,0,1
1193 1271 m 1,37,-1
 1163 1310 l 2,38,39
 1171 1301 1171 1301 1178.5 1291 c 2,40,-1
 1193 1271 l 1,37,-1
EndSplineSet
EndChar

StartChar: H
Encoding: 72 72 37
Width: 1653
Flags: HW
LayerCount: 2
Fore
SplineSet
-10 106 m 1,0,-1
 128 136 l 1,1,-1
 294 1394 l 1,2,-1
 149 1420 l 1,3,-1
 163 1530 l 1,4,-1
 838 1530 l 1,5,-1
 826 1420 l 1,6,-1
 646 1394 l 1,7,-1
 575 854 l 1,8,-1
 1127 854 l 1,9,-1
 1198 1394 l 1,10,-1
 1021 1420 l 1,11,-1
 1033 1530 l 1,12,-1
 1716 1530 l 1,13,-1
 1704 1420 l 1,14,-1
 1550 1394 l 1,15,-1
 1385 136 l 1,16,-1
 1542 106 l 1,17,-1
 1530 0 l 1,18,-1
 827 0 l 1,19,-1
 841 106 l 1,20,-1
 1032 136 l 1,21,-1
 1107 704 l 1,22,-1
 555 704 l 1,23,-1
 480 136 l 1,24,-1
 654 106 l 1,25,-1
 646 0 l 1,26,-1
 -21 0 l 1,27,-1
 -10 106 l 1,0,-1
EndSplineSet
EndChar

StartChar: I
Encoding: 73 73 38
Width: 783
Flags: HW
LayerCount: 2
Fore
SplineSet
-5 106 m 1,0,-1
 145 136 l 1,1,-1
 310 1394 l 1,2,-1
 163 1420 l 1,3,-1
 175 1530 l 1,4,-1
 846 1530 l 1,5,-1
 834 1420 l 1,6,-1
 662 1394 l 1,7,-1
 497 136 l 1,8,-1
 672 106 l 1,9,-1
 665 0 l 1,10,-1
 -18 0 l 1,11,-1
 -5 106 l 1,0,-1
EndSplineSet
EndChar

StartChar: J
Encoding: 74 74 39
Width: 748
Flags: HW
LayerCount: 2
Fore
SplineSet
-205 -237 m 1,0,1
 71.1366 -152.812 71.1366 -152.812 115 86 c 0,2,3
 208.503 591.606 208.503 591.606 297 1393 c 1,4,-1
 144 1420 l 1,5,-1
 159 1530 l 1,6,-1
 825 1530 l 1,7,-1
 814 1420 l 1,8,-1
 646 1394 l 1,9,-1
 541.5 559.5 l 1,10,11
 486.789 143.369 486.789 143.369 459.895 65.1843 c 128,-1,12
 433 -13 433 -13 372 -84 c 128,-1,13
 311 -155 311 -155 229.5 -208.5 c 0,14,15
 70.116 -313.126 70.116 -313.126 -153 -345 c 1,16,-1
 -205 -237 l 1,0,1
EndSplineSet
EndChar

StartChar: K
Encoding: 75 75 40
Width: 1477
Flags: HW
LayerCount: 2
Fore
SplineSet
-18 106 m 1,0,-1
 128 136 l 1,1,-1
 293 1394 l 1,2,-1
 148 1420 l 1,3,-1
 162 1530 l 1,4,-1
 837 1530 l 1,5,-1
 825 1420 l 1,6,-1
 645 1394 l 1,7,-1
 556 721 l 1,8,-1
 1180 1394 l 1,9,-1
 1035 1421 l 1,10,-1
 1046 1530 l 1,11,-1
 1547 1530 l 1,12,-1
 1535 1420 l 1,13,-1
 1418 1394 l 1,14,-1
 951 924 l 1,15,16
 981.237 877.637 981.237 877.637 1013.12 812.319 c 2,17,18
 1146 530.5 l 1,19,20
 1314.61 169.871 1314.61 169.871 1377 136 c 1,21,-1
 1494 106 l 1,22,-1
 1482 0 l 1,23,-1
 1048 0 l 1,24,25
 1004.56 5.66667 1004.56 5.66667 983.778 36.8333 c 128,-1,26
 963 68 963 68 946.5 106.5 c 2,27,-1
 906 204 l 2,28,29
 886 253 886 253 864 314 c 0,30,31
 759.642 598.717 759.642 598.717 716 686 c 1,32,-1
 527 495 l 1,33,-1
 480 136 l 1,34,-1
 654 106 l 1,35,-1
 645 0 l 1,36,-1
 -31 0 l 1,37,-1
 -18 106 l 1,0,-1
EndSplineSet
EndChar

StartChar: L
Encoding: 76 76 41
Width: 1271
Flags: HW
LayerCount: 2
Fore
SplineSet
-10 106 m 1,0,-1
 128 136 l 1,1,-1
 293 1394 l 1,2,-1
 147 1420 l 1,3,-1
 160 1530 l 1,4,-1
 839 1530 l 1,5,-1
 827 1420 l 1,6,-1
 645 1394 l 1,7,-1
 479 129 l 1,8,-1
 828 149 l 1,9,-1
 1019 600 l 1,10,-1
 1200 577 l 1,11,-1
 1116 0 l 1,12,-1
 -22 0 l 1,13,-1
 -10 106 l 1,0,-1
EndSplineSet
EndChar

StartChar: M
Encoding: 77 77 42
Width: 2017
Flags: HW
LayerCount: 2
Fore
SplineSet
-116 106 m 1,0,-1
 65 136 l 1,1,-1
 391 1394 l 1,2,-1
 197 1420 l 1,3,-1
 213 1530 l 1,4,-1
 904 1530 l 1,5,-1
 1024 509 l 1,6,-1
 1079 680 l 1,7,-1
 1413 1530 l 1,8,-1
 2033 1530 l 1,9,-1
 2020 1420 l 1,10,-1
 1834 1394 l 1,11,-1
 1794 136 l 1,12,-1
 1998 106 l 1,13,-1
 1990 0 l 1,14,-1
 1253 0 l 1,15,-1
 1262 108 l 1,16,-1
 1451 136 l 1,17,-1
 1508 996 l 1,18,-1
 1528 1394 l 1,19,-1
 1385 1044 l 1,20,-1
 946 -3 l 1,21,-1
 777 -18 l 1,22,-1
 641 1020 l 1,23,-1
 587 1395 l 1,24,-1
 500 1010 l 1,25,-1
 291 136 l 1,26,-1
 516 107 l 1,27,-1
 506 0 l 1,28,-1
 -128 0 l 1,29,-1
 -116 106 l 1,0,-1
EndSplineSet
EndChar

StartChar: N
Encoding: 78 78 43
Width: 1545
Flags: HW
LayerCount: 2
Fore
SplineSet
-25 106 m 1,0,-1
 124 136 l 1,1,-1
 310 1394 l 1,2,-1
 140 1420 l 1,3,-1
 156 1530 l 1,4,-1
 713 1530 l 1,5,-1
 1084 535 l 1,6,-1
 1162 305 l 1,7,-1
 1298 1394 l 1,8,-1
 1126 1420 l 1,9,-1
 1137 1530 l 1,10,-1
 1639 1530 l 1,11,-1
 1628 1420 l 1,12,-1
 1505 1394 l 1,13,-1
 1293 0 l 1,14,-1
 935 0 l 1,15,-1
 544 1028 l 1,16,-1
 466 1282 l 1,17,-1
 341 136 l 1,18,-1
 531 106 l 1,19,-1
 520 0 l 1,20,-1
 -33 0 l 1,21,-1
 -25 106 l 1,0,-1
EndSplineSet
EndChar

StartChar: O
Encoding: 79 79 44
Width: 1500
Flags: HW
LayerCount: 2
Fore
SplineSet
55 624.5 m 0,0,1
 55 752 55 752 76.5 865 c 128,-1,2
 98 978 98 978 142 1079 c 128,-1,3
 186 1180 186 1180 252.5 1266.5 c 128,-1,4
 319 1353 319 1353 409 1416 c 0,5,6
 600.429 1550 600.429 1550 865 1550 c 0,7,8
 1166.96 1550 1166.96 1550 1325.5 1351 c 0,9,10
 1465 1175.9 1465 1175.9 1465 893 c 0,11,12
 1465 518.631 1465 518.631 1277 267 c 0,13,14
 1062.57 -20 1062.57 -20 655 -20 c 0,15,16
 353.486 -20 353.486 -20 198 168.5 c 0,17,18
 55 341.863 55 341.863 55 624.5 c 0,0,1
1084 881 m 0,19,20
 1084 1426 1084 1426 838 1426 c 0,21,22
 650.649 1426 650.649 1426 539 1183 c 0,23,24
 436 958.824 436 958.824 436 649 c 0,25,26
 436 102 436 102 684 102 c 0,27,28
 880.028 102 880.028 102 986.5 330 c 0,29,30
 1084 538.788 1084 538.788 1084 881 c 0,19,20
EndSplineSet
EndChar

StartChar: P
Encoding: 80 80 45
Width: 1312
Flags: HW
LayerCount: 2
Fore
SplineSet
948.5 556.5 m 128,-1,1
 816 514 816 514 694 514 c 128,-1,2
 572 514 572 514 532 518 c 1,3,-1
 486 136 l 1,4,-1
 764 106 l 1,5,-1
 756 0 l 1,6,-1
 -22 0 l 1,7,-1
 -11 106 l 1,8,-1
 127 136 l 1,9,-1
 295 1394 l 1,10,-1
 147 1420 l 1,11,-1
 161 1530 l 1,12,-1
 477 1530 l 1,13,-1
 774 1546 l 1,14,15
 1222.54 1546 1222.54 1546 1318 1313.5 c 0,16,17
 1352.32 1229.92 1352.32 1229.92 1352.32 1106.35 c 128,-1,18
 1352.32 982.772 1352.32 982.772 1307.66 870.886 c 128,-1,19
 1263 759 1263 759 1172 679 c 128,-1,0
 1081 599 1081 599 948.5 556.5 c 128,-1,1
1002 1132 m 0,20,21
 1002 1420 1002 1420 739 1420 c 0,22,23
 696.8 1420 696.8 1420 650 1411 c 1,24,-1
 548 654 l 1,25,26
 581.583 645.333 581.583 645.333 611.792 645.333 c 128,-1,27
 642 645.333 642 645.333 658 646 c 0,28,29
 815.998 647.975 815.998 647.975 909.5 783.5 c 0,30,31
 1002 917.573 1002 917.573 1002 1132 c 0,20,21
EndSplineSet
EndChar

StartChar: Q
Encoding: 81 81 46
Width: 1501
Flags: HW
LayerCount: 2
Fore
SplineSet
607 -19 m 1,0,1
 330.814 -5.57432 330.814 -5.57432 186.5 181.5 c 0,2,3
 55 351.963 55 351.963 55 636 c 0,4,5
 55 1008.6 55 1008.6 252.5 1265.5 c 0,6,7
 389.549 1443.77 389.549 1443.77 612.5 1513.5 c 0,8,9
 726 1549 726 1549 875.5 1549 c 128,-1,10
 1025 1549 1025 1549 1139 1495 c 128,-1,11
 1253 1441 1253 1441 1325.5 1350 c 0,12,13
 1465 1174.9 1465 1174.9 1465 892 c 0,14,15
 1465 557.095 1465 557.095 1312.5 316 c 0,16,17
 1141.84 46.1886 1141.84 46.1886 811 -8 c 1,18,19
 810.609 -15.6957 810.609 -15.6957 810.609 -43.5978 c 128,-1,20
 810.609 -71.5 810.609 -71.5 829.304 -103.75 c 128,-1,21
 848 -136 848 -136 886 -153.5 c 0,22,23
 945.714 -181 945.714 -181 1090 -181 c 0,24,25
 1254.2 -181 1254.2 -181 1379 -142 c 1,26,-1
 1381 -328 l 1,27,28
 1233 -439 1233 -439 993 -439 c 0,29,30
 772.383 -439 772.383 -439 668 -329.5 c 0,31,32
 593.608 -251.461 593.608 -251.461 593.608 -128.822 c 0,33,34
 593.608 -77.8101 593.608 -77.8101 607 -19 c 1,0,1
1084 880 m 0,35,36
 1084 1425 1084 1425 838 1425 c 0,37,38
 650.649 1425 650.649 1425 539 1182 c 0,39,40
 436 957.824 436 957.824 436 648 c 0,41,42
 436 101 436 101 684 101 c 0,43,44
 880.028 101 880.028 101 986.5 329 c 0,45,46
 1084 537.788 1084 537.788 1084 880 c 0,35,36
EndSplineSet
EndChar

StartChar: R
Encoding: 82 82 47
Width: 1450
Flags: HW
LayerCount: 2
Fore
SplineSet
839 1546 m 0,0,1
 1365 1546 1365 1546 1365 1164 c 0,2,3
 1365 921.353 1365 921.353 1179.5 779.5 c 0,4,5
 1120 734 1120 734 1044 705 c 1,6,7
 1088.04 654.007 1088.04 654.007 1161 448 c 0,8,9
 1178 400 1178 400 1199 351 c 2,10,-1
 1243 253 l 1,11,12
 1290.8 151.172 1290.8 151.172 1344.5 123 c 0,13,14
 1375 107 1375 107 1421 106 c 1,15,-1
 1411 -1 l 1,16,-1
 996 1 l 2,17,18
 963.139 1 963.139 1 906 188 c 1,19,20
 773.985 603.522 773.985 603.522 735 662 c 1,21,22
 699 661 699 661 664 661 c 2,23,-1
 542 661 l 1,24,-1
 476 136 l 1,25,-1
 660 106 l 1,26,-1
 654 0 l 1,27,-1
 -22 0 l 1,28,-1
 -13 106 l 1,29,-1
 128 136 l 1,30,-1
 293 1394 l 1,31,-1
 148 1420 l 1,32,-1
 161 1530 l 1,33,-1
 472 1530 l 2,34,35
 532.333 1530 532.333 1530 605.667 1535.5 c 0,36,37
 745.667 1546 745.667 1546 839 1546 c 0,0,1
561 800 m 1,38,39
 574 799 574 799 595 798.5 c 2,40,-1
 638.5 797.5 l 2,41,42
 661 797 661 797 680.5 797 c 2,43,-1
 710 797 l 2,44,45
 853.818 797 853.818 797 933 897.5 c 0,46,47
 1007.68 992.287 1007.68 992.287 1007.68 1154.62 c 0,48,49
 1007.68 1299.05 1007.68 1299.05 938.34 1359.52 c 128,-1,50
 869 1420 869 1420 757 1420 c 0,51,52
 731.667 1420 731.667 1420 710.333 1418 c 2,53,-1
 672.5 1414.5 l 2,54,55
 656 1413 656 1413 642 1410 c 1,56,-1
 561 800 l 1,38,39
EndSplineSet
EndChar

StartChar: S
Encoding: 83 83 48
Width: 1157
Flags: HW
LayerCount: 2
Fore
SplineSet
75 393 m 1,0,-1
 281 393 l 1,1,-1
 292 172 l 1,2,3
 379.214 106 379.214 106 475.107 106 c 128,-1,4
 571 106 571 106 620 122 c 128,-1,5
 669 138 669 138 698 165.5 c 0,6,7
 750 214.81 750 214.81 750 309 c 0,8,9
 750 401.919 750 401.919 690 474.5 c 0,10,11
 636.065 539.744 636.065 539.744 530.533 607.372 c 128,-1,12
 425 675 425 675 365.5 724.5 c 128,-1,13
 306 774 306 774 262 832 c 0,14,15
 166 958.545 166 958.545 166 1084.77 c 128,-1,16
 166 1211 166 1211 208.5 1294.5 c 128,-1,17
 251 1378 251 1378 327 1434.5 c 0,18,19
 481.018 1549 481.018 1549 735 1549 c 0,20,21
 1007.14 1549 1007.14 1549 1134 1475 c 1,22,-1
 1080 1173 l 1,23,-1
 889 1173 l 1,24,-1
 859 1371 l 1,25,26
 789 1423 789 1423 690 1423 c 256,27,28
 533.545 1423 533.545 1423 495 1317 c 0,29,30
 483 1284 483 1284 483 1237.5 c 128,-1,31
 483 1191 483 1191 500 1145.5 c 128,-1,32
 517 1100 517 1100 551.5 1058.5 c 0,33,34
 611.448 986.389 611.448 986.389 766 889 c 0,35,36
 1078 690.905 1078 690.905 1078 442 c 0,37,38
 1078 247.166 1078 247.166 934.5 119.5 c 0,39,40
 774.326 -23 774.326 -23 491 -23 c 0,41,42
 254.353 -23 254.353 -23 77 44 c 0,43,44
 32 61 32 61 15 75 c 1,45,-1
 75 393 l 1,0,-1
EndSplineSet
EndChar

StartChar: T
Encoding: 84 84 49
Width: 1461
Flags: HW
LayerCount: 2
Fore
SplineSet
245 106 m 1,0,-1
 495 136 l 1,1,-1
 662 1394 l 1,2,-1
 426 1368 l 1,3,-1
 259 945 l 1,4,-1
 71 945 l 1,5,-1
 170 1530 l 1,6,-1
 1546 1530 l 1,7,-1
 1471 947 l 1,8,-1
 1290 945 l 1,9,-1
 1257 1368 l 1,10,-1
 1015 1394 l 1,11,-1
 847 136 l 1,12,-1
 1131 106 l 1,13,-1
 1121 0 l 1,14,-1
 232 0 l 1,15,-1
 245 106 l 1,0,-1
EndSplineSet
EndChar

StartChar: U
Encoding: 85 85 50
Width: 1447
Flags: HW
LayerCount: 2
Fore
SplineSet
153.5 253 m 128,-1,1
 128 335 128 335 128 401 c 0,2,3
 128 530 128 530 135 593 c 2,4,-1
 235 1394 l 1,5,-1
 91 1420 l 1,6,-1
 104 1530 l 1,7,-1
 808 1530 l 1,8,-1
 798 1421 l 1,9,-1
 601 1394 l 1,10,-1
 504 623 l 1,11,12
 487 474.857 487 474.857 487 412.929 c 128,-1,13
 487 351 487 351 501.5 292.5 c 128,-1,14
 516 234 516 234 546 192 c 0,15,16
 608.857 104 608.857 104 732 104 c 0,17,18
 985.777 104 985.777 104 1075 411.5 c 0,19,20
 1103 508 1103 508 1119 626 c 2,21,-1
 1223 1394 l 1,22,-1
 1055 1421 l 1,23,-1
 1066 1530 l 1,24,-1
 1550 1530 l 1,25,-1
 1535 1421 l 1,26,-1
 1406 1394 l 1,27,-1
 1309 627 l 1,28,29
 1263.9 279.943 1263.9 279.943 1105 127 c 0,30,31
 952.273 -20 952.273 -20 670 -20 c 0,32,33
 374.736 -20 374.736 -20 241 110.5 c 0,34,0
 179 171 179 171 153.5 253 c 128,-1,1
EndSplineSet
EndChar

StartChar: V
Encoding: 86 86 51
Width: 1245
Flags: HW
LayerCount: 2
Fore
SplineSet
115 1394 m 1,0,-1
 -24 1421 l 1,1,-1
 -10 1530 l 1,2,-1
 643 1530 l 1,3,-1
 634 1420 l 1,4,-1
 472 1394 l 1,5,-1
 592 510 l 1,6,-1
 616 302 l 1,7,-1
 691 510 l 1,8,-1
 1101 1394 l 1,9,-1
 910 1420 l 1,10,-1
 920 1530 l 1,11,-1
 1495 1530 l 1,12,-1
 1477 1420 l 1,13,-1
 1307 1394 l 1,14,-1
 660 -10 l 1,15,-1
 339 -10 l 1,16,-1
 115 1394 l 1,0,-1
EndSplineSet
EndChar

StartChar: W
Encoding: 87 87 52
Width: 1954
Flags: HW
LayerCount: 2
Fore
SplineSet
115 1393 m 1,0,-1
 -23 1421 l 1,1,-1
 -9 1530 l 1,2,-1
 603 1530 l 1,3,-1
 594 1420 l 1,4,-1
 468 1392 l 1,5,-1
 594 302 l 1,6,-1
 673 510 l 1,7,-1
 978 1248 l 1,8,-1
 965 1393 l 1,9,-1
 805 1421 l 1,10,-1
 815 1530 l 1,11,-1
 1451 1530 l 1,12,-1
 1442 1420 l 1,13,-1
 1303 1393 l 1,14,-1
 1396 510 l 1,15,-1
 1403 302 l 1,16,-1
 1864 1393 l 1,17,-1
 1637 1420 l 1,18,-1
 1647 1530 l 1,19,-1
 2241 1530 l 1,20,-1
 2231 1421 l 1,21,-1
 2072 1394 l 1,22,-1
 1428 -10 l 1,23,-1
 1108 -10 l 1,24,-1
 1018 926 l 1,25,-1
 639 -10 l 1,26,-1
 322 -10 l 1,27,-1
 115 1393 l 1,0,-1
EndSplineSet
EndChar

StartChar: X
Encoding: 88 88 53
Width: 1389
Flags: HW
LayerCount: 2
Fore
SplineSet
-64 106 m 1,0,-1
 50 136 l 1,1,-1
 529 749 l 1,2,-1
 223 1394 l 1,3,-1
 104 1420 l 1,4,-1
 115 1530 l 1,5,-1
 776 1530 l 1,6,-1
 768 1421 l 1,7,-1
 624 1394 l 1,8,-1
 792 953 l 1,9,-1
 1088 1394 l 1,10,-1
 954 1420 l 1,11,-1
 960 1530 l 1,12,-1
 1482 1530 l 1,13,-1
 1472 1420 l 1,14,-1
 1336 1394 l 1,15,-1
 866 809 l 1,16,-1
 1201 136 l 1,17,-1
 1327 106 l 1,18,-1
 1317 0 l 1,19,-1
 625 0 l 1,20,-1
 634 106 l 1,21,-1
 790 136 l 1,22,-1
 610 591 l 1,23,-1
 307 136 l 1,24,-1
 459 106 l 1,25,-1
 449 0 l 1,26,-1
 -76 0 l 1,27,-1
 -64 106 l 1,0,-1
EndSplineSet
EndChar

StartChar: Y
Encoding: 89 89 54
Width: 1281
Flags: HW
LayerCount: 2
Fore
SplineSet
173 106 m 1,0,-1
 403 136 l 1,1,-1
 461 605 l 1,2,-1
 130 1394 l 1,3,-1
 19 1420 l 1,4,-1
 31 1530 l 1,5,-1
 715 1530 l 1,6,-1
 698 1420 l 1,7,-1
 517 1394 l 1,8,-1
 689 908 l 1,9,-1
 742 785 l 1,10,-1
 1096 1394 l 1,11,-1
 932 1420 l 1,12,-1
 942 1530 l 1,13,-1
 1475 1530 l 1,14,-1
 1460 1420 l 1,15,-1
 1330 1394 l 1,16,-1
 815 605 l 1,17,-1
 754 136 l 1,18,-1
 999 106 l 1,19,-1
 989 0 l 1,20,-1
 161 0 l 1,21,-1
 173 106 l 1,0,-1
EndSplineSet
EndChar

StartChar: Z
Encoding: 90 90 55
Width: 1226
Flags: HW
LayerCount: 2
Fore
SplineSet
-73 89 m 1,0,-1
 804 1304 l 1,1,-1
 927 1402 l 1,2,-1
 503 1384 l 1,3,-1
 355 1114 l 1,4,-1
 180 1136 l 1,5,-1
 231 1530 l 1,6,-1
 1271 1530 l 1,7,-1
 1301 1444 l 1,8,-1
 436 235 l 1,9,-1
 324 137 l 1,10,-1
 817 159 l 1,11,-1
 1001 492 l 1,12,-1
 1168 461 l 1,13,-1
 1080 0 l 1,14,-1
 -39 0 l 1,15,-1
 -73 89 l 1,0,-1
EndSplineSet
EndChar

StartChar: bracketleft
Encoding: 91 91 56
Width: 874
Flags: HW
LayerCount: 2
Fore
SplineSet
322 1519 m 1,0,1
 353.5 1771 353.5 1771 633 1771 c 0,2,3
 701.083 1771 701.083 1771 893 1724 c 1,4,-1
 873 1601 l 1,5,-1
 598 1601 l 1,6,-1
 375 -55 l 1,7,-1
 650 -57 l 1,8,-1
 635 -185 l 1,9,-1
 569.5 -203.5 l 1,10,11
 463.882 -232 463.882 -232 389.441 -232 c 128,-1,12
 315 -232 315 -232 269.5 -225 c 128,-1,13
 224 -218 224 -218 188.5 -201.5 c 0,14,15
 110 -165.014 110 -165.014 110 -89 c 2,16,-1
 110 -36 l 2,17,18
 110 -9 110 -9 114 21 c 2,19,-1
 322 1519 l 1,0,1
EndSplineSet
EndChar

StartChar: backslash
Encoding: 92 92 57
Width: 854
Flags: HW
LayerCount: 2
Fore
SplineSet
26 1597 m 1,0,-1
 254 1597 l 1,1,-1
 831 -362 l 1,2,-1
 602 -362 l 1,3,-1
 26 1597 l 1,0,-1
EndSplineSet
EndChar

StartChar: asciicircum
Encoding: 94 94 59
Width: 1364
Flags: HW
LayerCount: 2
Fore
SplineSet
658 1531 m 1,0,-1
 915 1531 l 1,1,-1
 1192 510 l 1,2,-1
 937 510 l 1,3,-1
 758 1202 l 1,4,-1
 402 510 l 1,5,-1
 137 510 l 1,6,-1
 658 1531 l 1,0,-1
EndSplineSet
EndChar

StartChar: underscore
Encoding: 95 95 60
Width: 1335
Flags: HW
LayerCount: 2
Fore
SplineSet
1287 -187 m 1,0,-1
 1267 -338 l 1,1,-1
 -111 -338 l 1,2,-1
 -91 -187 l 1,3,-1
 1287 -187 l 1,0,-1
EndSplineSet
EndChar

StartChar: grave
Encoding: 96 96 61
Width: 541
Flags: HW
LayerCount: 2
Fore
SplineSet
386 1241 m 1,0,1
 275.366 1288.41 275.366 1288.41 110 1440 c 0,2,3
 30.2 1513.15 30.2 1513.15 0 1566 c 1,4,-1
 203 1743 l 1,5,-1
 491 1311 l 1,6,-1
 386 1241 l 1,0,1
EndSplineSet
EndChar

StartChar: a
Encoding: 97 97 62
Width: 1215
Flags: HW
LayerCount: 2
Fore
SplineSet
717 106 m 1,0,1
 591 -20 591 -20 413 -20 c 0,2,3
 234.522 -20 234.522 -20 142.5 104.5 c 0,4,5
 60 216.118 60 216.118 60 402 c 0,6,7
 60 712.757 60 712.757 233.5 928.5 c 0,8,9
 351.882 1075.71 351.882 1075.71 538 1133.5 c 0,10,11
 633 1163 633 1163 746.688 1163 c 128,-1,12
 860.375 1163 860.375 1163 984 1120 c 1,13,-1
 1136 1163 l 1,14,-1
 1007 227 l 1,15,16
 997.732 151 997.732 151 1046 151 c 0,17,18
 1079.86 151 1079.86 151 1139 197 c 1,19,-1
 1167 124 l 1,20,21
 1114.29 42.0001 1114.29 42.0001 993.5 -2.5 c 0,22,23
 946 -20 946 -20 879.5 -20 c 128,-1,24
 813 -20 813 -20 766 12 c 128,-1,25
 719 44 719 44 717 106 c 1,0,1
680 209 m 1,26,-1
 790 1017 l 1,27,28
 757 1023 757 1023 709 1023 c 128,-1,29
 661 1023 661 1023 614 996.5 c 128,-1,30
 567 970 567 970 532 924.5 c 128,-1,31
 497 879 497 879 473 818.5 c 128,-1,32
 449 758 449 758 434 690 c 0,33,34
 406 563.067 406 563.067 406 426.033 c 128,-1,35
 406 289 406 289 445.5 221.5 c 128,-1,36
 485 154 485 154 551.562 154 c 128,-1,37
 618.125 154 618.125 154 680 209 c 1,26,-1
EndSplineSet
Substitution2: "Single Substitution lookup 16 subtable" ordfeminine
Substitution2: "'aalt' Access All Alternates in Latin lookup 0 subtable" ordfeminine
EndChar

StartChar: b
Encoding: 98 98 63
Width: 1191
Flags: HW
LayerCount: 2
Fore
SplineSet
733.5 38 m 128,-1,1
 607 -20 607 -20 471 -20 c 128,-1,2
 335 -20 335 -20 206 23 c 1,3,-1
 60 -20 l 1,4,-1
 247 1484 l 1,5,-1
 144 1527 l 1,6,-1
 165 1611 l 1,7,-1
 526 1650 l 1,8,-1
 580 1623 l 1,9,-1
 506 1059 l 1,10,11
 629.81 1163 629.81 1163 787 1163 c 0,12,13
 1042.86 1163 1042.86 1163 1109.5 913.5 c 0,14,15
 1131 833 1131 833 1131 702.5 c 128,-1,16
 1131 572 1131 572 1084 435.5 c 128,-1,17
 1037 299 1037 299 948.5 197.5 c 128,-1,0
 860 96 860 96 733.5 38 c 128,-1,1
385 128 m 1,18,19
 421 119 421 119 491 119 c 128,-1,20
 561 119 561 119 621 171.5 c 128,-1,21
 681 224 681 224 718.5 310 c 0,22,23
 790 473.973 790 473.973 790 729 c 0,24,25
 790 906.291 790 906.291 710.5 967 c 0,26,27
 683 988 683 988 639.5 988 c 0,28,29
 559.568 988 559.568 988 485 899 c 1,30,-1
 385 128 l 1,18,19
EndSplineSet
EndChar

StartChar: c
Encoding: 99 99 64
Width: 942
Flags: HW
LayerCount: 2
Fore
SplineSet
575 169 m 0,0,1
 730.538 169 730.538 169 829 297 c 1,2,-1
 893 194 l 1,3,4
 806.3 57.7576 806.3 57.7576 609 1 c 0,5,6
 536 -20 536 -20 447.5 -20 c 128,-1,7
 359 -20 359 -20 288 9.5 c 128,-1,8
 217 39 217 39 166.5 98 c 0,9,10
 58.7895 223.84 58.7895 223.84 58.7895 467.9 c 0,11,12
 58.7895 734.467 58.7895 734.467 213.5 934 c 0,13,14
 322.921 1075.12 322.921 1075.12 503 1133.5 c 0,15,16
 594 1163 594 1163 665 1163 c 128,-1,17
 736 1163 736 1163 770.5 1160.5 c 128,-1,18
 805 1158 805 1158 839 1153.5 c 0,19,20
 914.846 1143.46 914.846 1143.46 961 1125 c 1,21,-1
 868 803 l 1,22,23
 847.047 809.447 847.047 809.447 813.024 847.724 c 2,24,-1
 757 911 l 2,25,26
 673.4 1006 673.4 1006 632.7 1006 c 128,-1,27
 592 1006 592 1006 549.5 966 c 0,28,29
 457.958 879.843 457.958 879.843 417.5 681.5 c 0,30,31
 399.617 593.83 399.617 593.83 399.617 534.638 c 128,-1,32
 399.617 475.447 399.617 475.447 400.809 428.223 c 128,-1,33
 402 381 402 381 413 326 c 128,-1,34
 424 271 424 271 445.5 236 c 0,35,36
 486.657 169 486.657 169 575 169 c 0,0,1
EndSplineSet
EndChar

StartChar: d
Encoding: 100 100 65
Width: 1255
Flags: HW
LayerCount: 2
Fore
SplineSet
1036 229 m 2,0,1
 1025.17 151 1025.17 151 1074.61 151 c 0,2,3
 1102.21 151 1102.21 151 1163 197 c 1,4,-1
 1191 124 l 1,5,-1
 1160.5 90 l 2,6,7
 1108.14 31.5465 1108.14 31.5465 1040.57 5.77323 c 128,-1,8
 973 -20 973 -20 898 -20 c 0,9,10
 748.219 -20 748.219 -20 736 147 c 1,11,12
 655.827 36.285 655.827 36.285 519 -4.5 c 0,13,14
 467 -20 467 -20 388.5 -20 c 128,-1,15
 310 -20 310 -20 244.5 13.5 c 128,-1,16
 179 47 179 47 138 104.5 c 0,17,18
 60 213.89 60 213.89 60 402 c 0,19,20
 60 716.577 60 716.577 224.5 928.5 c 0,21,22
 338.409 1075.25 338.409 1075.25 526 1133.5 c 0,23,24
 621 1163 621 1163 700.75 1163 c 128,-1,25
 780.5 1163 780.5 1163 839 1154 c 1,26,-1
 887 1482 l 1,27,-1
 731 1525 l 1,28,-1
 750 1608 l 1,29,-1
 1182 1650 l 1,30,-1
 1238 1623 l 1,31,-1
 1036 229 l 2,0,1
545 154 m 0,32,33
 634.9 154 634.9 154 707 257 c 1,34,-1
 817 1007 l 1,35,36
 772 1023 772 1023 712 1023 c 128,-1,37
 652 1023 652 1023 605.5 996.5 c 128,-1,38
 559 970 559 970 524 924.5 c 128,-1,39
 489 879 489 879 465.5 818.5 c 128,-1,40
 442 758 442 758 427.5 690 c 0,41,42
 401 565.724 401 565.724 401 427.362 c 0,43,44
 401 154 401 154 545 154 c 0,32,33
EndSplineSet
EndChar

StartChar: e
Encoding: 101 101 66
Width: 1048
Flags: HW
LayerCount: 2
Fore
SplineSet
607 159 m 0,0,1
 785 159 785 159 905 315 c 1,2,-1
 969 212 l 1,3,4
 876.478 66.6087 876.478 66.6087 673 4 c 0,5,6
 595 -20 595 -20 507 -20 c 128,-1,7
 419 -20 419 -20 355.5 -2.5 c 128,-1,8
 292 15 292 15 243 46 c 128,-1,9
 194 77 194 77 160 119.5 c 128,-1,10
 126 162 126 162 104 212 c 0,11,12
 61 309.727 61 309.727 61 430 c 0,13,14
 60.9804 433.137 60.9804 433.137 60.9804 436.265 c 0,15,16
 60.9804 748.664 60.9804 748.664 247.5 956.5 c 0,17,18
 432.821 1163 432.821 1163 710 1163 c 0,19,20
 950.407 1163 950.407 1163 1017 1011.5 c 0,21,22
 1039.14 961.136 1039.14 961.136 1039.14 893.309 c 128,-1,23
 1039.14 825.483 1039.14 825.483 1013.07 762.241 c 128,-1,24
 987 699 987 699 939 649 c 128,-1,25
 891 599 891 599 827.5 562.5 c 128,-1,26
 764 526 764 526 694.5 503 c 0,27,28
 555.979 457.158 555.979 457.158 420 455 c 1,29,30
 420 299 420 299 470 229 c 128,-1,31
 520 159 520 159 607 159 c 0,0,1
636 1025 m 0,32,33
 449.348 1025 449.348 1025 420 575 c 1,34,35
 525.926 582.222 525.926 582.222 615.5 659 c 0,36,37
 718.127 746.966 718.127 746.966 718.127 885.983 c 128,-1,38
 718.127 1025 718.127 1025 636 1025 c 0,32,33
EndSplineSet
EndChar

StartChar: f
Encoding: 102 102 67
Width: 709
Flags: HW
LayerCount: 2
Fore
SplineSet
857 1466 m 1,0,1
 795.286 1514 795.286 1514 739.643 1514 c 128,-1,2
 684 1514 684 1514 661.5 1503 c 128,-1,3
 639 1492 639 1492 626 1468 c 0,4,5
 609.107 1436.81 609.107 1436.81 589 1305 c 1,6,-1
 569 1155 l 1,7,-1
 799 1155 l 1,8,-1
 778 984 l 1,9,-1
 545 984 l 1,10,-1
 429 9 l 1,11,12
 379.77 -349.676 379.77 -349.676 141.5 -469.5 c 0,13,14
 55 -513 55 -513 -63 -513 c 0,15,16
 -157 -513 -157 -513 -253 -489 c 1,17,-1
 -195 -305 l 1,18,19
 -190 -307 -190 -307 -172 -315 c 128,-1,20
 -154 -323 -154 -323 -130.5 -332 c 0,21,22
 -73.0556 -354 -73.0556 -354 -32.0278 -354 c 128,-1,23
 9 -354 9 -354 41 -309 c 128,-1,24
 73 -264 73 -264 87 -162 c 1,25,-1
 225 984 l 1,26,-1
 100 984 l 1,27,-1
 121 1087 l 1,28,-1
 257 1150 l 1,29,-1
 274 1254 l 1,30,31
 327.95 1549.14 327.95 1549.14 562 1639.5 c 0,32,33
 641 1670 641 1670 712 1670 c 0,34,35
 856.294 1670 856.294 1670 919 1644 c 1,36,-1
 857 1466 l 1,0,1
EndSplineSet
EndChar

StartChar: g
Encoding: 103 103 68
Width: 1218
Flags: HW
LayerCount: 2
Fore
SplineSet
538 1133.5 m 0,0,1
 633 1163 633 1163 747.375 1163 c 128,-1,2
 861.75 1163 861.75 1163 994 1117 c 1,3,-1
 1156 1163 l 1,4,-1
 989 -77 l 1,5,6
 950.31 -386.52 950.31 -386.52 640 -482 c 0,7,8
 523 -518 523 -518 370 -518 c 0,9,10
 259.5 -518 259.5 -518 188.25 -499 c 128,-1,11
 117 -480 117 -480 102 -473 c 1,12,-1
 153 -258 l 1,13,14
 173.826 -278.826 173.826 -278.826 232.413 -302.413 c 0,15,16
 348.129 -349 348.129 -349 412.565 -349 c 128,-1,17
 477 -349 477 -349 516 -342.5 c 128,-1,18
 555 -336 555 -336 583.5 -315 c 0,19,20
 639.888 -273.451 639.888 -273.451 655 -145 c 2,21,-1
 680 73 l 1,22,23
 562.526 -20 562.526 -20 413 -20 c 0,24,25
 234.522 -20 234.522 -20 142.5 104.5 c 0,26,27
 60 216.118 60 216.118 60 402 c 0,28,29
 60 712.757 60 712.757 233.5 928.5 c 0,30,31
 351.882 1075.71 351.882 1075.71 538 1133.5 c 0,0,1
814 1012 m 1,32,33
 775.5 1023 775.5 1023 718.25 1023 c 128,-1,34
 661 1023 661 1023 614 996.5 c 128,-1,35
 567 970 567 970 532 924.5 c 128,-1,36
 497 879 497 879 473 818.5 c 128,-1,37
 449 758 449 758 434 690 c 0,38,39
 406 563.067 406 563.067 406 426.033 c 128,-1,40
 406 289 406 289 445.5 221.5 c 128,-1,41
 485 154 485 154 554 154 c 0,42,43
 630.71 154 630.71 154 699 227 c 1,44,-1
 814 1012 l 1,32,33
EndSplineSet
EndChar

StartChar: h
Encoding: 104 104 69
Width: 1296
Flags: HW
LayerCount: 2
Fore
SplineSet
1113 151 m 0,0,1
 1141.67 151 1141.67 151 1203 197 c 1,2,-1
 1231 124 l 1,3,4
 1169.5 39.432 1169.5 39.432 1050.5 -2.5 c 0,5,6
 998 -21 998 -21 930.5 -21 c 128,-1,7
 863 -21 863 -21 823 -6.5 c 128,-1,8
 783 8 783 8 762 32 c 0,9,10
 728 70.8571 728 70.8571 728 150 c 0,11,12
 728 190.857 728 190.857 739 252.929 c 2,13,-1
 789.5 531.5 l 1,14,15
 819.182 700.861 819.182 700.861 819.182 758.931 c 128,-1,16
 819.182 817 819.182 817 818.591 841.5 c 128,-1,17
 818 866 818 866 813 893 c 128,-1,18
 808 920 808 920 798.5 936 c 0,19,20
 781.281 965 781.281 965 745.141 965 c 128,-1,21
 709 965 709 965 675 944 c 128,-1,22
 641 923 641 923 607.5 887 c 0,23,24
 536.981 811.219 536.981 811.219 490 705 c 1,25,-1
 404 0 l 1,26,-1
 71 0 l 1,27,-1
 250 1482 l 1,28,-1
 123 1525 l 1,29,-1
 139 1608 l 1,30,-1
 548 1650 l 1,31,-1
 603 1623 l 1,32,-1
 516 915 l 1,33,34
 664.8 1163 664.8 1163 900 1163 c 0,35,36
 1165 1163 1165 1163 1165 861 c 0,37,38
 1165 806.412 1165 806.412 1144 676.706 c 2,39,-1
 1116 505 l 2,40,41
 1110 467 1110 467 1102.5 426 c 128,-1,42
 1095 385 1095 385 1088.5 345 c 0,43,44
 1074 255.769 1074 255.769 1074 203.385 c 128,-1,45
 1074 151 1074 151 1113 151 c 0,0,1
EndSplineSet
EndChar

StartChar: dotaccent
Encoding: 729 729 71
Width: 388
Flags: HW
LayerCount: 2
Fore
SplineSet
264.5 1354 m 128,-1,1
 226 1338 226 1338 183 1338 c 128,-1,2
 140 1338 140 1338 110 1352.5 c 0,3,4
 50.1054 1381.45 50.1054 1381.45 23 1444 c 0,5,6
 10.9286 1471.86 10.9286 1471.86 10.9286 1507.57 c 128,-1,7
 10.9286 1543.28 10.9286 1543.28 25.4643 1580.14 c 128,-1,8
 40 1617 40 1617 65 1643.5 c 0,9,10
 119.245 1701 119.245 1701 209 1701 c 0,11,12
 284 1701 284 1701 334.5 1650.5 c 0,13,14
 379.08 1605.92 379.08 1605.92 379.08 1553.54 c 128,-1,15
 379.08 1501.15 379.08 1501.15 366.04 1463.08 c 128,-1,16
 353 1425 353 1425 328 1397.5 c 128,-1,0
 303 1370 303 1370 264.5 1354 c 128,-1,1
EndSplineSet
EndChar

StartChar: dotlessi
Encoding: 305 305 72
Width: 669
Flags: HW
LayerCount: 2
Fore
SplineSet
603 124 m 1,0,1
 485.182 -20 485.182 -20 307 -20 c 0,2,3
 200 -20 200 -20 153.18 18.0984 c 128,-1,4
 106.361 56.1967 106.361 56.1967 106.361 108.019 c 0,5,6
 106.361 118.18 106.361 118.18 111.68 153.59 c 128,-1,7
 117 189 117 189 128.5 275 c 2,8,-1
 221 980 l 1,9,-1
 57 1031 l 1,10,-1
 75 1112 l 1,11,-1
 521 1163 l 1,12,-1
 576 1139 l 1,13,-1
 448 227 l 2,14,15
 445.877 212.333 445.877 212.333 445.877 200.497 c 0,16,17
 445.877 151 445.877 151 483 151 c 0,18,19
 513.077 151 513.077 151 575 197 c 1,20,-1
 603 124 l 1,0,1
EndSplineSet
EndChar

StartChar: k
Encoding: 107 107 74
Width: 1158
Flags: HW
LayerCount: 2
Fore
SplineSet
258 1482 m 1,0,-1
 130 1525 l 1,1,-1
 147 1608 l 1,2,-1
 556 1650 l 1,3,-1
 611 1623 l 1,4,-1
 396 0 l 1,5,-1
 63 0 l 1,6,-1
 258 1482 l 1,0,-1
948 274 m 1,7,8
 996 182 996 182 1069.14 182 c 0,9,10
 1108.27 182 1108.27 182 1171 228 c 1,11,-1
 1205 157 l 1,12,13
 1116.86 51.2355 1116.86 51.2355 981 1.5 c 0,14,15
 925 -19 925 -19 871 -19 c 128,-1,16
 817 -19 817 -19 784.5 -10 c 128,-1,17
 752 -1 752 -1 728.5 14.5 c 0,18,19
 685.543 42.8332 685.543 42.8332 664 101 c 2,20,-1
 478 610 l 1,21,-1
 483 611 l 1,22,-1
 478 611 l 1,23,24
 569.659 658.068 569.659 658.068 613.33 692.034 c 0,25,26
 701.839 760.875 701.839 760.875 778 863 c 0,27,28
 831 933.036 831 933.036 831 1028 c 0,29,30
 831 1101.41 831 1101.41 887.5 1136 c 0,31,32
 931.6 1163 931.6 1163 979.8 1163 c 128,-1,33
 1028 1163 1028 1163 1052 1152.5 c 128,-1,34
 1076 1142 1076 1142 1092.5 1124.5 c 0,35,36
 1126 1088.97 1126 1088.97 1126 1033.48 c 0,37,38
 1126 950.714 1126 950.714 1069 872 c 1,39,40
 968.672 746.59 968.672 746.59 764 654 c 1,41,-1
 948 274 l 1,7,8
EndSplineSet
EndChar

StartChar: l
Encoding: 108 108 75
Width: 635
Flags: HW
LayerCount: 2
Fore
SplineSet
423 227 m 2,0,1
 412.143 151 412.143 151 461.333 151 c 0,2,3
 488.667 151 488.667 151 550 197 c 1,4,-1
 578 124 l 1,5,6
 517.144 40.323 517.144 40.323 407.5 -1.5 c 0,7,8
 359 -20 359 -20 308 -20 c 128,-1,9
 257 -20 257 -20 219 -12.5 c 128,-1,10
 181 -5 181 -5 151 11 c 0,11,12
 84.8574 46.2761 84.8574 46.2761 83 115 c 0,13,14
 83 144 83 144 91 192 c 1,15,-1
 262 1482 l 1,16,-1
 130 1525 l 1,17,-1
 150 1608 l 1,18,-1
 556 1650 l 1,19,-1
 607 1623 l 1,20,-1
 423 227 l 2,0,1
EndSplineSet
EndChar

StartChar: m
Encoding: 109 109 76
Width: 1954
Flags: HW
LayerCount: 2
Fore
SplineSet
1771 151 m 0,0,1
 1799.67 151 1799.67 151 1861 197 c 1,2,-1
 1889 124 l 1,3,4
 1827.5 39.432 1827.5 39.432 1708.5 -2.5 c 0,5,6
 1656 -21 1656 -21 1588.5 -21 c 128,-1,7
 1521 -21 1521 -21 1481 -5 c 128,-1,8
 1441 11 1441 11 1420 35.5 c 0,9,10
 1386 75.1667 1386 75.1667 1386 150 c 0,11,12
 1386 190.857 1386 190.857 1397 252.929 c 2,13,-1
 1447.5 531.5 l 1,14,15
 1477.18 700.861 1477.18 700.861 1477.18 758.93 c 128,-1,16
 1477.18 817 1477.18 817 1476.59 841.5 c 128,-1,17
 1476 866 1476 866 1471 893 c 128,-1,18
 1466 920 1466 920 1456.5 936 c 0,19,20
 1439.28 965 1439.28 965 1404.14 965 c 128,-1,21
 1369 965 1369 965 1337.5 950 c 128,-1,22
 1306 935 1306 935 1274.5 908 c 0,23,24
 1210.75 853.36 1210.75 853.36 1161 758 c 1,25,26
 1155.25 637.345 1155.25 637.345 1137 505 c 1,27,-1
 1078 0 l 1,28,-1
 743 0 l 1,29,-1
 811 531.5 l 2,30,31
 830.286 684.179 830.286 684.179 830.286 745.804 c 128,-1,32
 830.286 807.429 830.286 807.429 829.643 837.214 c 128,-1,33
 829 867 829 867 823 895.5 c 128,-1,34
 817 924 817 924 806 939.5 c 0,35,36
 787.903 965 787.903 965 749.452 965 c 128,-1,37
 711 965 711 965 679.5 947.5 c 128,-1,38
 648 930 648 930 616.5 899.5 c 0,39,40
 551.172 836.245 551.172 836.245 502 742 c 1,41,-1
 400 0 l 1,42,-1
 77 0 l 1,43,-1
 209 962 l 1,44,-1
 101 1022 l 1,45,-1
 118 1111 l 1,46,-1
 490 1163 l 1,47,-1
 543 1139 l 1,48,-1
 527 927 l 1,49,50
 630.483 1093.91 630.483 1093.91 779.5 1145 c 0,51,52
 832 1163 832 1163 889 1163 c 0,53,54
 1132.36 1163 1132.36 1163 1161 916 c 1,55,56
 1299.15 1163 1299.15 1163 1558 1163 c 0,57,58
 1823 1163 1823 1163 1823 861 c 0,59,60
 1823 806.412 1823 806.412 1802 676.706 c 2,61,-1
 1774 505 l 2,62,63
 1768 467 1768 467 1760.5 426 c 128,-1,64
 1753 385 1753 385 1746.5 345 c 0,65,66
 1732 255.769 1732 255.769 1732 203.385 c 128,-1,67
 1732 151 1732 151 1771 151 c 0,0,1
EndSplineSet
EndChar

StartChar: n
Encoding: 110 110 77
Width: 1299
Flags: HW
LayerCount: 2
Fore
SplineSet
1116 151 m 0,0,1
 1144.67 151 1144.67 151 1206 197 c 1,2,-1
 1234 124 l 1,3,4
 1172.5 39.432 1172.5 39.432 1053.5 -2.5 c 0,5,6
 1001 -21 1001 -21 933.5 -21 c 128,-1,7
 866 -21 866 -21 826 -5 c 128,-1,8
 786 11 786 11 765 35.5 c 0,9,10
 731 75.1667 731 75.1667 731 150 c 0,11,12
 731 190.857 731 190.857 742 252.929 c 2,13,-1
 792.5 531.5 l 1,14,15
 822.182 700.861 822.182 700.861 822.182 758.931 c 128,-1,16
 822.182 817 822.182 817 821.591 841.5 c 128,-1,17
 821 866 821 866 816 893 c 128,-1,18
 811 920 811 920 801.5 936 c 0,19,20
 784.281 965 784.281 965 748.641 965 c 128,-1,21
 713 965 713 965 680.5 945.5 c 128,-1,22
 648 926 648 926 615.5 892.5 c 0,23,24
 549.63 824.603 549.63 824.603 501 721 c 1,25,-1
 402 0 l 1,26,-1
 78 0 l 1,27,-1
 209 962 l 1,28,-1
 102 1022 l 1,29,-1
 118 1111 l 1,30,-1
 492 1163 l 1,31,-1
 544 1139 l 1,32,-1
 528 929 l 1,33,34
 676.5 1163 676.5 1163 903 1163 c 0,35,36
 1168 1163 1168 1163 1168 861 c 0,37,38
 1168 806.412 1168 806.412 1147 676.706 c 2,39,-1
 1119 505 l 2,40,41
 1113 467 1113 467 1105.5 426 c 128,-1,42
 1098 385 1098 385 1091.5 345 c 0,43,44
 1077 255.769 1077 255.769 1077 203.385 c 128,-1,45
 1077 151 1077 151 1116 151 c 0,0,1
EndSplineSet
EndChar

StartChar: o
Encoding: 111 111 78
Width: 1197
Flags: HW
LayerCount: 2
Fore
SplineSet
317 11 m 0,0,1
 60.561 109.143 60.561 109.143 60.561 467.554 c 0,2,3
 60.561 752.125 60.561 752.125 221.5 948.5 c 0,4,5
 332.357 1083.77 332.357 1083.77 502.5 1136.5 c 0,6,7
 588 1163 588 1163 690 1163 c 128,-1,8
 792 1163 792 1163 874 1132 c 128,-1,9
 956 1101 956 1101 1012 1042 c 0,10,11
 1131.44 916.163 1131.44 916.163 1131.44 674.446 c 0,12,13
 1131.44 389.694 1131.44 389.694 970 194.5 c 0,14,15
 857.948 59.019 857.948 59.019 688.5 6.5 c 0,16,17
 603 -20 603 -20 500.5 -20 c 128,-1,18
 398 -20 398 -20 317 11 c 0,0,1
491 125.5 m 0,19,20
 515 107 515 107 555 107 c 128,-1,21
 595 107 595 107 629 133.5 c 128,-1,22
 663 160 663 160 688.5 204.5 c 128,-1,23
 714 249 714 249 731 309 c 0,24,25
 772.727 456.273 772.727 456.273 772.727 659.066 c 0,26,27
 772.727 953.347 772.727 953.347 702 1008 c 0,28,29
 680 1025 680 1025 643 1025 c 128,-1,30
 606 1025 606 1025 570.5 999 c 128,-1,31
 535 973 535 973 508.5 928.5 c 128,-1,32
 482 884 482 884 464 825 c 0,33,34
 417.333 672.037 417.333 672.037 417.333 477.611 c 0,35,36
 417.333 182.285 417.333 182.285 491 125.5 c 0,19,20
EndSplineSet
Substitution2: "Single Substitution lookup 16 subtable" ordmasculine
Substitution2: "'aalt' Access All Alternates in Latin lookup 0 subtable" ordmasculine
EndChar

StartChar: p
Encoding: 112 112 79
Width: 1230
Flags: HW
LayerCount: 2
Fore
SplineSet
543 1055 m 1,0,1
 655.909 1163 655.909 1163 821 1163 c 0,2,3
 1079.81 1163 1079.81 1163 1148 913.5 c 0,4,5
 1170 833 1170 833 1170 702.5 c 128,-1,6
 1170 572 1170 572 1122 435.5 c 128,-1,7
 1074 299 1074 299 985.5 197.5 c 0,8,9
 795.857 -20 795.857 -20 496 -20 c 0,10,11
 444 -20 444 -20 395 -11 c 1,12,-1
 324 -520 l 1,13,-1
 6 -520 l 1,14,-1
 206 982 l 1,15,-1
 89 1032 l 1,16,-1
 108 1111 l 1,17,-1
 501 1163 l 1,18,-1
 553 1139 l 1,19,-1
 543 1055 l 1,0,1
416 133 m 1,20,21
 452.75 119 452.75 119 529.375 119 c 128,-1,22
 606 119 606 119 663.5 171.5 c 128,-1,23
 721 224 721 224 756.5 310 c 0,24,25
 824 473.521 824 473.521 824 729 c 0,26,27
 824 906.291 824 906.291 744.5 967 c 0,28,29
 717 988 717 988 672 988 c 0,30,31
 594.128 988 594.128 988 522 891 c 1,32,-1
 416 133 l 1,20,21
EndSplineSet
EndChar

StartChar: q
Encoding: 113 113 80
Width: 1227
Flags: HW
LayerCount: 2
Fore
SplineSet
679 84 m 1,0,1
 562.619 -20 562.619 -20 404 -20 c 0,2,3
 226.774 -20 226.774 -20 138 104.5 c 0,4,5
 60 213.89 60 213.89 60 402 c 0,6,7
 60 716.577 60 716.577 224.5 928.5 c 0,8,9
 338.409 1075.25 338.409 1075.25 526 1133.5 c 0,10,11
 621 1163 621 1163 695.5 1163 c 128,-1,12
 770 1163 770 1163 805.5 1158.5 c 128,-1,13
 841 1154 841 1154 874.5 1147 c 0,14,15
 941.5 1133 941.5 1133 991 1115 c 1,16,-1
 990 1114 l 1,17,-1
 1153 1163 l 1,18,-1
 961 -274 l 2,19,20
 957 -301 957 -301 966 -323.5 c 128,-1,21
 975 -346 975 -346 1002.64 -346 c 128,-1,22
 1030.28 -346 1030.28 -346 1091 -300 c 1,23,-1
 1119 -373 l 1,24,25
 1057.84 -457.094 1057.84 -457.094 937.5 -499.5 c 0,26,27
 885 -518 885 -518 822 -518 c 128,-1,28
 759 -518 759 -518 719.5 -502.5 c 128,-1,29
 680 -487 680 -487 656 -462.5 c 0,30,31
 611.339 -416.909 611.339 -416.909 616 -347 c 1,32,-1
 679 84 l 1,0,1
815 1008 m 1,33,34
 771.875 1023 771.875 1023 711.938 1023 c 128,-1,35
 652 1023 652 1023 605.5 996.5 c 128,-1,36
 559 970 559 970 524 924.5 c 128,-1,37
 489 879 489 879 465.5 818.5 c 128,-1,38
 442 758 442 758 427.5 690 c 0,39,40
 401 565.724 401 565.724 401 427.362 c 0,41,42
 401 154 401 154 545 154 c 0,43,44
 631.128 154 631.128 154 704 252 c 1,45,-1
 815 1008 l 1,33,34
EndSplineSet
EndChar

StartChar: r
Encoding: 114 114 81
Width: 843
Flags: HW
LayerCount: 2
Fore
SplineSet
523 866 m 1,0,1
 608.576 1163 608.576 1163 818 1163 c 0,2,3
 856 1163 856 1163 888 1143 c 1,4,-1
 819 786 l 1,5,6
 793.167 817 793.167 817 722.583 817 c 0,7,8
 603 817 603 817 508 760 c 1,9,-1
 403 0 l 1,10,-1
 80 0 l 1,11,-1
 212 962 l 1,12,-1
 105 1022 l 1,13,-1
 122 1111 l 1,14,-1
 450 1163 l 1,15,-1
 503 1139 l 1,16,-1
 523 866 l 1,0,1
EndSplineSet
EndChar

StartChar: s
Encoding: 115 115 82
Width: 873
Flags: HW
LayerCount: 2
Fore
SplineSet
785 919 m 1,0,1
 694.091 1019 694.091 1019 581 1019 c 0,2,3
 472.409 1019 472.409 1019 434 954 c 0,4,5
 421 932 421 932 421 902 c 256,6,7
 421 844.5 421 844.5 454 806.25 c 0,8,9
 501.076 751.685 501.076 751.685 571.038 701.342 c 128,-1,10
 641 651 641 651 677.5 616.5 c 128,-1,11
 714 582 714 582 742 539 c 0,12,13
 803 445.321 803 445.321 803 340.161 c 128,-1,14
 803 235 803 235 762 169 c 128,-1,15
 721 103 721 103 654 61 c 0,16,17
 524.786 -20 524.786 -20 324 -20 c 0,18,19
 174.76 -20 174.76 -20 51 25.5 c 0,20,21
 17 38 17 38 3 49 c 1,22,-1
 51 250 l 1,23,24
 122.724 178.276 122.724 178.276 233 146 c 0,25,26
 274 134 274 134 309.5 134 c 128,-1,27
 345 134 345 134 373 140.5 c 128,-1,28
 401 147 401 147 424 161 c 0,29,30
 476 192.652 476 192.652 476 257 c 0,31,32
 476 312.196 476 312.196 440.5 353.098 c 0,33,34
 391.236 409.859 391.236 409.859 325.618 455.429 c 128,-1,35
 260 501 260 501 225 532 c 128,-1,36
 190 563 190 563 162 605 c 0,37,38
 99 699.5 99 699.5 99 803.75 c 128,-1,39
 99 908 99 908 135 971 c 128,-1,40
 171 1034 171 1034 234.5 1077 c 0,41,42
 361.5 1163 361.5 1163 568 1163 c 0,43,44
 686.231 1163 686.231 1163 750.615 1147.5 c 128,-1,45
 815 1132 815 1132 828 1126 c 1,46,-1
 785 919 l 1,0,1
EndSplineSet
EndChar

StartChar: t
Encoding: 116 116 83
Width: 724
Flags: HW
LayerCount: 2
Fore
SplineSet
512 170 m 0,0,1
 613.312 170 613.312 170 681 227 c 1,2,-1
 706 147 l 1,3,4
 611.74 39.8868 611.74 39.8868 446.5 -3 c 0,5,6
 381 -20 381 -20 321.5 -20 c 128,-1,7
 262 -20 262 -20 227.5 -11.5 c 128,-1,8
 193 -3 193 -3 166 18 c 0,9,10
 106 64.6667 106 64.6667 106 159 c 0,11,12
 106 185.455 106 185.455 114.5 254.227 c 2,13,-1
 214 994 l 1,14,-1
 95 994 l 1,15,-1
 119 1103 l 1,16,-1
 241 1150 l 1,17,18
 318 1216.5 318 1216.5 402 1416 c 1,19,-1
 591 1416 l 1,20,-1
 558 1155 l 1,21,-1
 766 1155 l 1,22,-1
 743 994 l 1,23,-1
 537 994 l 1,24,-1
 454 390 l 2,25,26
 439 282.857 439 282.857 439 251 c 0,27,28
 439 170 439 170 512 170 c 0,0,1
EndSplineSet
EndChar

StartChar: u
Encoding: 117 117 84
Width: 1276
Flags: HW
LayerCount: 2
Fore
SplineSet
138 114 m 0,0,1
 109 163 109 163 108.5 216.5 c 128,-1,2
 108 270 108 270 112 313.5 c 128,-1,3
 116 357 116 357 122 404.5 c 128,-1,4
 128 452 128 452 135.5 501 c 2,5,-1
 204 962 l 1,6,-1
 78 1042 l 1,7,-1
 94 1131 l 1,8,-1
 497 1163 l 1,9,-1
 549 1139 l 1,10,-1
 480 589 l 1,11,12
 443 325.56 443 325.56 443 267.78 c 0,13,14
 443 148 443 148 538 148 c 0,15,16
 645.375 148 645.375 148 732 247 c 1,17,-1
 856 1155 l 1,18,-1
 1182 1155 l 1,19,-1
 1054 227 l 2,20,21
 1044.26 151 1044.26 151 1094 151 c 0,22,23
 1118 151 1118 151 1142 167 c 2,24,-1
 1186 197 l 1,25,-1
 1214 124 l 1,26,27
 1159.33 42.0001 1159.33 42.0001 1042 -2 c 0,28,29
 994 -20 994 -20 934 -20 c 0,30,31
 827 -20 827 -20 787.714 20.625 c 128,-1,32
 748.429 61.25 748.429 61.25 748.429 113.36 c 0,33,34
 748.429 127.571 748.429 127.571 751 143 c 1,35,-1
 747 146 l 1,36,37
 680.818 72.1818 680.818 72.1818 626.409 41.0909 c 0,38,39
 519.5 -20 519.5 -20 400 -20 c 0,40,41
 217.306 -20 217.306 -20 138 114 c 0,0,1
EndSplineSet
EndChar

StartChar: w
Encoding: 119 119 85
Width: 1742
Flags: HW
LayerCount: 2
Fore
SplineSet
325 -20 m 1,0,-1
 123 925 l 1,1,2
 112.543 979.027 112.543 979.027 79 981 c 0,3,4
 50.6791 982.231 50.6791 982.231 4 948 c 1,5,-1
 -25 1028 l 1,6,7
 25.1051 1099.58 25.1051 1099.58 144.5 1145.5 c 0,8,9
 190 1163 190 1163 261 1163 c 128,-1,10
 332 1163 332 1163 381.5 1128 c 128,-1,11
 431 1093 431 1093 442 1026 c 2,12,-1
 532 439 l 1,13,-1
 558 228 l 1,14,-1
 645 510 l 1,15,-1
 834 1155 l 1,16,-1
 1111 1155 l 1,17,-1
 1229 405 l 1,18,-1
 1259 228 l 1,19,-1
 1348 393 l 2,20,21
 1446 575 1446 575 1446 775 c 0,22,23
 1446 828.333 1446 828.333 1435 885.167 c 0,24,25
 1414 993.667 1414 993.667 1414 1023.83 c 128,-1,26
 1414 1054 1414 1054 1424 1079.5 c 128,-1,27
 1434 1105 1434 1105 1454 1123.5 c 0,28,29
 1496.7 1163 1496.7 1163 1562.35 1163 c 128,-1,30
 1628 1163 1628 1163 1661.5 1144.5 c 128,-1,31
 1695 1126 1695 1126 1713 1095.5 c 0,32,33
 1745.06 1041.17 1745.06 1041.17 1745.06 969.245 c 128,-1,34
 1745.06 897.323 1745.06 897.323 1731.03 842.161 c 128,-1,35
 1717 787 1717 787 1691.5 725 c 128,-1,36
 1666 663 1666 663 1633 599 c 128,-1,37
 1600 535 1600 535 1564 474.5 c 128,-1,38
 1528 414 1528 414 1492 359.5 c 1,39,-1
 1425 262 l 1,40,-1
 1231 -8 l 1,41,-1
 991 -18 l 1,42,-1
 923 355 l 1,43,-1
 885 623 l 1,44,-1
 884 761 l 1,45,-1
 837 623 l 1,46,-1
 743 327 l 1,47,-1
 608 -4 l 1,48,-1
 325 -20 l 1,0,-1
EndSplineSet
EndChar

StartChar: x
Encoding: 120 120 86
Width: 1030
Flags: HW
LayerCount: 2
Fore
SplineSet
943.857 179 m 128,-1,1
 971.714 179 971.714 179 1026 217 c 1,2,-1
 1071 133 l 1,3,4
 1018.36 50.2825 1018.36 50.2825 865 0 c 0,5,6
 804 -20 804 -20 726.5 -20 c 0,7,8
 585.979 -20 585.979 -20 548 85 c 1,9,-1
 449 373 l 1,10,-1
 216 0 l 1,11,-1
 -99 0 l 1,12,-1
 364 587 l 1,13,-1
 199 901 l 1,14,-1
 182.5 930 l 2,15,16
 151.9 984 151.9 984 121 984 c 0,17,18
 72.6667 984 72.6667 984 41 965 c 1,19,-1
 2 1049 l 1,20,21
 49.9777 1110.69 49.9777 1110.69 189.5 1148.5 c 0,22,23
 243 1163 243 1163 315.5 1163 c 0,24,25
 470.059 1163 470.059 1163 503 1058 c 1,26,-1
 588 806 l 1,27,-1
 810 1155 l 1,28,-1
 1115 1155 l 1,29,-1
 668 587 l 1,30,-1
 827 299 l 1,31,32
 863.273 226.455 863.273 226.455 889.636 202.727 c 128,-1,0
 916 179 916 179 943.857 179 c 128,-1,1
EndSplineSet
EndChar

StartChar: y
Encoding: 121 121 87
Width: 1084
Flags: HW
LayerCount: 2
Fore
SplineSet
105.5 968.5 m 128,-1,1
 96 981 96 981 69.55 981 c 128,-1,2
 43.1 981 43.1 981 4 947 c 1,3,-1
 -25 1028 l 1,4,5
 -0.193301 1063.44 -0.193301 1063.44 50.4034 1096.22 c 0,6,7
 153.478 1163 153.478 1163 245 1163 c 0,8,9
 417.312 1163 417.312 1163 443 1026 c 0,10,11
 481 828 481 828 514 632.5 c 1,12,-1
 578 239 l 1,13,-1
 596 80 l 1,14,-1
 657 204 l 2,15,16
 791 477.583 791 477.583 791 737 c 0,17,18
 791 812.429 791 812.429 778.5 864.214 c 0,19,20
 755 961.571 755 961.571 755 1007.79 c 128,-1,21
 755 1054 755 1054 765 1079 c 128,-1,22
 775 1104 775 1104 795 1123 c 0,23,24
 837.105 1163 837.105 1163 901.053 1163 c 128,-1,25
 965 1163 965 1163 998 1146.5 c 128,-1,26
 1031 1130 1031 1130 1050.5 1101 c 0,27,28
 1086 1048.21 1086 1048.21 1086 963.103 c 128,-1,29
 1086 878 1086 878 1066 794.5 c 128,-1,30
 1046 711 1046 711 1014.5 624.5 c 0,31,32
 961.482 478.911 961.482 478.911 890.241 339.956 c 2,33,-1
 663.5 -98 l 1,34,-1
 622.5 -172.5 l 2,35,36
 604 -205 604 -205 587 -232 c 2,37,-1
 552 -286 l 1,38,39
 475.371 -393.759 475.371 -393.759 411.686 -436.879 c 0,40,41
 291.877 -518 291.877 -518 152 -518 c 0,42,43
 34.8 -518 34.8 -518 -76.5 -486.5 c 0,44,45
 -103 -479 -103 -479 -116 -473 c 1,46,-1
 -65 -258 l 1,47,48
 -5.59995 -306.6 -5.59995 -306.6 120 -338 c 0,49,50
 164 -349 164 -349 209 -349 c 128,-1,51
 254 -349 254 -349 293.5 -334.5 c 128,-1,52
 333 -320 333 -320 370 -287 c 0,53,54
 438.512 -225.895 438.512 -225.895 523 -71 c 1,55,-1
 332 -71 l 1,56,-1
 122 925 l 2,57,0
 115 956 115 956 105.5 968.5 c 128,-1,1
EndSplineSet
EndChar

StartChar: z
Encoding: 122 122 88
Width: 1011
Flags: HW
LayerCount: 2
Fore
SplineSet
33 -23 m 1,0,-1
 -29 39 l 1,1,-1
 617 831 l 1,2,-1
 710 883 l 1,3,-1
 407 884 l 2,4,5
 288.571 884 288.571 884 247.5 792 c 0,6,7
 235 764 235 764 232 733 c 1,8,-1
 144 733 l 1,9,10
 134.429 788.036 134.429 788.036 134.429 827.018 c 128,-1,11
 134.429 866 134.429 866 134.714 890 c 128,-1,12
 135 914 135 914 138.5 957.5 c 128,-1,13
 142 1001 142 1001 150.5 1039 c 0,14,15
 169.051 1121.93 169.051 1121.93 211 1141 c 1,16,17
 263.8 1163 263.8 1163 307.9 1163 c 128,-1,18
 352 1163 352 1163 402 1160.5 c 128,-1,19
 452 1158 452 1158 506.5 1154 c 2,20,-1
 726 1137 l 2,21,22
 843 1128 843 1128 908.583 1128 c 128,-1,23
 974.167 1128 974.167 1128 1015 1163 c 1,24,-1
 1068 1102 l 1,25,-1
 419 300 l 1,26,-1
 347 257 l 1,27,-1
 675 257 l 2,28,29
 795.424 257 795.424 257 840.5 355.5 c 0,30,31
 854 385 854 385 857 419 c 1,32,-1
 942 419 l 1,33,34
 950 357.667 950 357.667 950 298.333 c 128,-1,35
 950 239 950 239 946 195 c 128,-1,36
 942 151 942 151 933.5 111.5 c 0,37,38
 914.233 21.9667 914.233 21.9667 875 -3 c 1,39,40
 846.111 -23 846.111 -23 770 -23 c 256,41,42
 672.667 -23 672.667 -23 526.833 -12.5 c 128,-1,43
 381 -2 381 -2 324.5 1.5 c 0,44,45
 187.286 10 187.286 10 124.993 10 c 128,-1,46
 62.7 10 62.7 10 33 -23 c 1,0,-1
EndSplineSet
EndChar

StartChar: braceleft
Encoding: 123 123 89
Width: 1044
Flags: HW
LayerCount: 2
Fore
SplineSet
1033 1718 m 1,0,1
 1013 1628 1013 1628 1013 1601 c 1,2,-1
 737 1601 l 1,3,-1
 641 970 l 2,4,5
 628.759 886.35 628.759 886.35 508.5 827.5 c 0,6,7
 485 816 485 816 458 804 c 2,8,-1
 398 776 l 1,9,10
 503.652 722 503.652 722 533.326 691.5 c 0,11,12
 590.339 632.9 590.339 632.9 581 575 c 2,13,-1
 486 -55 l 1,14,-1
 761 -55 l 1,15,16
 759 -61 759 -61 757 -81 c 128,-1,17
 755 -101 755 -101 751.5 -125 c 128,-1,18
 748 -149 748 -149 745 -179 c 1,19,20
 622.614 -214.996 622.614 -214.996 566.807 -220.498 c 128,-1,21
 511 -226 511 -226 467 -226 c 128,-1,22
 423 -226 423 -226 378.5 -219 c 128,-1,23
 334 -212 334 -212 299 -195.5 c 0,24,25
 222 -159.2 222 -159.2 222 -83 c 0,26,27
 222 -69.2857 222 -69.2857 233 5.35714 c 2,28,-1
 269 259 l 2,29,30
 289 402 289 402 316 579 c 1,31,32
 316 634.591 316 634.591 188 685.5 c 0,33,34
 144 703 144 703 99 714 c 1,35,-1
 117 838 l 1,36,37
 362 898 362 898 374 966 c 1,38,-1
 458 1513 l 1,39,40
 490.863 1715.65 490.863 1715.65 662 1753.5 c 0,41,42
 714 1765 714 1765 760 1765 c 0,43,44
 841.083 1765 841.083 1765 1033 1718 c 1,0,1
EndSplineSet
EndChar

StartChar: bar
Encoding: 124 124 90
Width: 854
Flags: HW
LayerCount: 2
Fore
SplineSet
340 1780 m 1,0,-1
 553 1780 l 1,1,-1
 553 -186 l 1,2,-1
 340 -186 l 1,3,-1
 340 1780 l 1,0,-1
EndSplineSet
EndChar

StartChar: asciitilde
Encoding: 126 126 92
Width: 1137
Flags: HW
LayerCount: 2
Fore
SplineSet
384 854 m 0,0,1
 257.288 854 257.288 854 192 757 c 1,2,-1
 108 876 l 1,3,4
 134.524 955.571 134.524 955.571 219.5 1017 c 0,5,6
 314.95 1086 314.95 1086 420 1086 c 0,7,8
 526.6 1086 526.6 1086 623.5 1010 c 128,-1,9
 720.4 934 720.4 934 782 934 c 0,10,11
 903.34 934 903.34 934 974 1041 c 1,12,-1
 1078 922 l 1,13,14
 1054.97 836.147 1054.97 836.147 962.5 766 c 0,15,16
 864.955 692 864.955 692 756 692 c 0,17,18
 646.714 692 646.714 692 544.5 773 c 1,19,-1
 493 812 l 1,20,21
 434.667 854 434.667 854 384 854 c 0,0,1
EndSplineSet
EndChar

StartChar: exclam
Encoding: 33 33 94
Width: 716
Flags: HW
LayerCount: 2
Fore
SplineSet
367 1778 m 1,0,-1
 702 1778 l 1,1,-1
 444 528 l 1,2,-1
 241 528 l 1,3,-1
 367 1778 l 1,0,-1
127 77 m 0,4,5
 116 106 116 106 116 147 c 128,-1,6
 116 188 116 188 133 225 c 128,-1,7
 150 262 150 262 177.5 288 c 0,8,9
 233.558 341 233.558 341 307 341 c 0,10,11
 377.8 341 377.8 341 418.5 291.5 c 0,12,13
 455 247.108 455 247.108 455 188.054 c 128,-1,14
 455 129 455 129 437 91.5 c 128,-1,15
 419 54 419 54 390 29 c 0,16,17
 333.16 -20 333.16 -20 253 -20 c 0,18,19
 163.793 -20 163.793 -20 127 77 c 0,4,5
EndSplineSet
EndChar

StartChar: sterling
Encoding: 163 163 95
Width: 1395
Flags: HW
LayerCount: 2
Fore
SplineSet
959 518 m 1,0,-1
 1166 697 l 1,1,2
 1288.3 622.881 1288.3 622.881 1338 465 c 0,3,4
 1355 411 1355 411 1355 341 c 128,-1,5
 1355 271 1355 271 1321 203 c 128,-1,6
 1287 135 1287 135 1219.5 85.5 c 0,7,8
 1075.64 -20 1075.64 -20 822 -20 c 0,9,10
 674.091 -20 674.091 -20 559.545 8 c 128,-1,11
 445 36 445 36 382 53.5 c 128,-1,12
 319 71 319 71 255 84 c 1,13,14
 180.966 20.5424 180.966 20.5424 85 -8.5 c 0,15,16
 47 -20 47 -20 5.5 -20 c 128,-1,17
 -36 -20 -36 -20 -66 2 c 128,-1,18
 -96 24 -96 24 -96 58.5 c 128,-1,19
 -96 93 -96 93 -75.5 119.5 c 128,-1,20
 -55 146 -55 146 -21.5 167 c 0,21,22
 55.0714 215 55.0714 215 149 215 c 1,23,24
 221.444 323.667 221.444 323.667 238 423 c 2,25,-1
 290 724 l 1,26,-1
 143 724 l 1,27,-1
 161 905 l 1,28,-1
 322 905 l 1,29,-1
 342 1017 l 1,30,31
 381.252 1244.25 381.252 1244.25 549.5 1401 c 0,32,33
 725.527 1565 725.527 1565 951 1565 c 0,34,35
 1166.69 1565 1166.69 1565 1259 1469 c 1,36,-1
 1156 1261 l 1,37,38
 1120.12 1341.74 1120.12 1341.74 1026 1386.5 c 0,39,40
 985 1406 985 1406 941.5 1406 c 128,-1,41
 898 1406 898 1406 863.5 1397 c 128,-1,42
 829 1388 829 1388 796.5 1358 c 0,43,44
 723.243 1290.38 723.243 1290.38 691 1122 c 2,45,-1
 649 905 l 1,46,-1
 894 905 l 1,47,-1
 877 724 l 1,48,-1
 615 724 l 1,49,-1
 586 571 l 2,50,51
 559.072 429.627 559.072 429.627 472.5 303 c 0,52,53
 439 254 439 254 412 224.5 c 128,-1,54
 385 195 385 195 379 188 c 1,55,56
 571.667 154 571.667 154 699.333 154 c 128,-1,57
 827 154 827 154 894.5 174 c 128,-1,58
 962 194 962 194 999.5 224.5 c 0,59,60
 1063 276.147 1063 276.147 1063 361.323 c 128,-1,61
 1063 446.5 1063 446.5 959 518 c 1,0,-1
EndSplineSet
EndChar

StartChar: section
Encoding: 167 167 96
Width: 1194
Flags: HW
LayerCount: 2
Fore
SplineSet
947 396 m 1,0,1
 1015 304.625 1015 304.625 1015 200.312 c 128,-1,2
 1015 96 1015 96 975 27 c 128,-1,3
 935 -42 935 -42 865.5 -89 c 0,4,5
 722.064 -186 722.064 -186 501 -186 c 0,6,7
 278.846 -186 278.846 -186 113 -137 c 0,8,9
 69 -124 69 -124 49 -111 c 1,10,-1
 105 237 l 1,11,-1
 294 237 l 1,12,-1
 321 13 l 1,13,14
 404.286 -40 404.286 -40 516 -40 c 256,15,16
 726 -40 726 -40 726 123 c 0,17,18
 726 196.795 726 196.795 628 262.5 c 0,19,20
 584 292 584 292 527.5 320.5 c 1,21,-1
 412.5 381 l 1,22,23
 265.074 461.643 265.074 461.643 209.037 525.322 c 128,-1,24
 153 589 153 589 126 652 c 128,-1,25
 99 715 99 715 99 798 c 0,26,27
 99 960.867 99 960.867 248 1090 c 1,28,29
 186 1179.79 186 1179.79 186 1280.4 c 128,-1,30
 186 1381 186 1381 229 1451.5 c 128,-1,31
 272 1522 272 1522 344 1571 c 0,32,33
 493.878 1673 493.878 1673 710 1673 c 0,34,35
 937.538 1673 937.538 1673 1077 1624 c 0,36,37
 1114 1611 1114 1611 1134 1598 c 1,38,-1
 1078 1270 l 1,39,-1
 889 1270 l 1,40,-1
 862 1477 l 1,41,42
 797.222 1530 797.222 1530 695 1530 c 0,43,44
 597.323 1530 597.323 1530 555.661 1509.5 c 128,-1,45
 514 1489 514 1489 494.5 1460.5 c 128,-1,46
 475 1432 475 1432 475 1381 c 128,-1,47
 475 1330 475 1330 501.5 1290.5 c 128,-1,48
 528 1251 528 1251 570.5 1219.5 c 128,-1,49
 613 1188 613 1188 668 1161.5 c 2,50,-1
 780.5 1106.5 l 2,51,52
 928.997 1032.9 928.997 1032.9 980.999 978.449 c 0,53,54
 1086 868.506 1086 868.506 1086 728 c 0,55,56
 1086 530.036 1086 530.036 947 396 c 1,0,1
402 952 m 1,57,58
 379 916.455 379 916.455 379 873.227 c 128,-1,59
 379 830 379 830 397.5 797 c 128,-1,60
 416 764 416 764 447 736 c 128,-1,61
 478 708 478 708 520 683.5 c 128,-1,62
 562 659 562 659 608.5 634.5 c 2,63,-1
 704.5 584 l 2,64,65
 754 558 754 558 800 528 c 1,66,67
 822 562 822 562 822 609.5 c 128,-1,68
 822 657 822 657 803.5 689 c 128,-1,69
 785 721 785 721 754 748.5 c 128,-1,70
 723 776 723 776 681 800.5 c 128,-1,71
 639 825 639 825 592.5 849 c 2,72,-1
 497 898 l 2,73,74
 448 923 448 923 402 952 c 1,57,58
EndSplineSet
EndChar

StartChar: dieresis
Encoding: 168 168 97
Width: 809
Flags: HW
LayerCount: 2
Fore
SplineSet
694.5 1354 m 0,0,1
 660 1338 660 1338 621 1338 c 128,-1,2
 582 1338 582 1338 555.5 1352.5 c 128,-1,3
 529 1367 529 1367 509.5 1390.5 c 0,4,5
 444.861 1468.4 444.861 1468.4 481.5 1581.5 c 0,6,7
 505.084 1654.3 505.084 1654.3 570.5 1685.5 c 0,8,9
 603 1701 603 1701 642 1701 c 128,-1,10
 681 1701 681 1701 709 1687 c 0,11,12
 795.091 1643.95 795.091 1643.95 795.091 1545.45 c 0,13,14
 795.091 1400.65 795.091 1400.65 694.5 1354 c 0,0,1
242.5 1354 m 0,15,16
 208 1338 208 1338 169 1338 c 128,-1,17
 130 1338 130 1338 103.5 1352.5 c 0,18,19
 49.7703 1381.9 49.7703 1381.9 27 1444 c 0,20,21
 16.9167 1471.5 16.9167 1471.5 16.9167 1486.96 c 128,-1,22
 16.9167 1502.42 16.9167 1502.42 17.4583 1524.21 c 128,-1,23
 18 1546 18 1546 29.5 1581.5 c 128,-1,24
 41 1617 41 1617 63.5 1643.5 c 0,25,26
 112.321 1701 112.321 1701 193 1701 c 0,27,28
 260.733 1701 260.733 1701 304.5 1650.5 c 0,29,30
 343.091 1605.97 343.091 1605.97 343.091 1545.45 c 0,31,32
 343.091 1400.65 343.091 1400.65 242.5 1354 c 0,15,16
EndSplineSet
EndChar

StartChar: copyright
Encoding: 169 169 98
Width: 1768
Flags: HW
LayerCount: 2
Fore
SplineSet
158 805.5 m 0,0,1
 158 913 158 913 186 1012 c 128,-1,2
 214 1111 214 1111 264.5 1197 c 128,-1,3
 315 1283 315 1283 385.5 1353.5 c 128,-1,4
 456 1424 456 1424 542 1474 c 0,5,6
 722.6 1579 722.6 1579 933 1579 c 256,7,8
 1143.4 1579 1143.4 1579 1324 1474 c 0,9,10
 1594.87 1316.51 1594.87 1316.51 1681 1012 c 0,11,12
 1709 913 1709 913 1709 806 c 256,13,14
 1709 595.366 1709 595.366 1602.5 414 c 0,15,16
 1499.89 239.263 1499.89 239.263 1324 137 c 0,17,18
 1143.4 32 1143.4 32 933 32 c 256,19,20
 722.6 32 722.6 32 542 137 c 0,21,22
 367.625 238.381 367.625 238.381 264.5 414 c 0,23,24
 158 595.366 158 595.366 158 805.5 c 0,0,1
297 806 m 256,25,26
 297 537.313 297 537.313 481.5 348 c 0,27,28
 666.669 158 666.669 158 933 158 c 256,29,30
 1200.33 158 1200.33 158 1385.5 348 c 0,31,32
 1502.52 468.072 1502.52 468.072 1547.5 634 c 0,33,34
 1570 717 1570 717 1570 806 c 256,35,36
 1570 1072.58 1570 1072.58 1385.5 1263.5 c 0,37,38
 1270.12 1382.89 1270.12 1382.89 1104 1430.5 c 0,39,40
 1022 1454 1022 1454 933 1454 c 256,41,42
 760.452 1454 760.452 1454 610 1365 c 0,43,44
 467.77 1280.86 467.77 1280.86 383 1132 c 0,45,46
 297 980.976 297 980.976 297 806 c 256,25,26
953 512 m 0,47,48
 1086.16 512 1086.16 512 1173 562 c 1,49,-1
 1213 458 l 1,50,51
 1144.66 399.426 1144.66 399.426 1008 374 c 0,52,53
 965 366 965 366 897.5 366 c 128,-1,54
 830 366 830 366 760 400.5 c 128,-1,55
 690 435 690 435 641.5 494.5 c 0,56,57
 542 616.567 542 616.567 542 802 c 0,58,59
 541.967 805 541.967 805 541.967 807.99 c 0,60,61
 541.967 991.263 541.967 991.263 654 1114.5 c 0,62,63
 774.455 1247 774.455 1247 969 1247 c 0,64,65
 1131.75 1247 1131.75 1247 1203 1209 c 1,66,-1
 1203 974 l 1,67,-1
 1099 974 l 1,68,-1
 1055 1094 l 1,69,70
 1012.1 1133 1012.1 1133 957.55 1133 c 128,-1,71
 903 1133 903 1133 866 1112.5 c 128,-1,72
 829 1092 829 1092 802.5 1055.5 c 0,73,74
 746 977.679 746 977.679 746 861 c 0,75,76
 745.947 855.474 745.947 855.474 745.947 803.961 c 128,-1,77
 745.947 752.447 745.947 752.447 763.474 686.724 c 128,-1,78
 781 621 781 621 810.5 582 c 0,79,80
 863.449 512 863.449 512 953 512 c 0,47,48
EndSplineSet
EndChar

StartChar: guilsinglleft
Encoding: 8249 8249 100
Width: 1190
Flags: HW
LayerCount: 2
Fore
SplineSet
234 690 m 1,0,-1
 966 1096 l 1,1,-1
 1024 921 l 1,2,-1
 564 605 l 1,3,-1
 938 294 l 1,4,-1
 838 142 l 1,5,-1
 212 530 l 1,6,-1
 234 690 l 1,0,-1
EndSplineSet
EndChar

StartChar: registered
Encoding: 174 174 101
Width: 1768
Flags: HW
LayerCount: 2
Fore
SplineSet
158 805.5 m 0,0,1
 158 913 158 913 186 1012 c 128,-1,2
 214 1111 214 1111 264.5 1197 c 128,-1,3
 315 1283 315 1283 385.5 1353.5 c 128,-1,4
 456 1424 456 1424 542 1474 c 0,5,6
 722.6 1579 722.6 1579 933 1579 c 256,7,8
 1143.4 1579 1143.4 1579 1324 1474 c 0,9,10
 1594.87 1316.51 1594.87 1316.51 1681 1012 c 0,11,12
 1709 913 1709 913 1709 806 c 256,13,14
 1709 595.366 1709 595.366 1602.5 414 c 0,15,16
 1499.89 239.263 1499.89 239.263 1324 137 c 0,17,18
 1143.4 32 1143.4 32 933 32 c 256,19,20
 722.6 32 722.6 32 542 137 c 0,21,22
 367.625 238.381 367.625 238.381 264.5 414 c 0,23,24
 158 595.366 158 595.366 158 805.5 c 0,0,1
297 806 m 256,25,26
 297 537.313 297 537.313 481.5 348 c 0,27,28
 666.669 158 666.669 158 933 158 c 256,29,30
 1200.33 158 1200.33 158 1385.5 348 c 0,31,32
 1502.52 468.072 1502.52 468.072 1547.5 634 c 0,33,34
 1570 717 1570 717 1570 806 c 256,35,36
 1570 1072.58 1570 1072.58 1385.5 1263.5 c 0,37,38
 1270.12 1382.89 1270.12 1382.89 1104 1430.5 c 0,39,40
 1022 1454 1022 1454 933 1454 c 256,41,42
 760.452 1454 760.452 1454 610 1365 c 0,43,44
 467.77 1280.86 467.77 1280.86 383 1132 c 0,45,46
 297 980.976 297 980.976 297 806 c 256,25,26
716 1240 m 1,47,-1
 954 1245 l 1,48,49
 1195.34 1245 1195.34 1245 1266 1108.5 c 0,50,51
 1288 1066 1288 1066 1289 1020 c 128,-1,52
 1290 974 1290 974 1284.5 935 c 128,-1,53
 1279 896 1279 896 1257.5 860 c 0,54,55
 1211.14 782.382 1211.14 782.382 1075 737 c 1,56,57
 1148.67 694.905 1148.67 694.905 1203 594 c 2,58,-1
 1242.5 520.5 l 2,59,60
 1261 486 1261 486 1291 465 c 1,61,62
 1315 453 1315 453 1338 453 c 1,63,-1
 1338 375 l 1,64,-1
 1128 375 l 2,65,66
 1095.92 375 1095.92 375 1070 429 c 0,67,68
 1058 454 1058 454 1045 487.5 c 128,-1,69
 1032 521 1032 521 1013.5 559 c 0,70,71
 967.15 654.205 967.15 654.205 903 720 c 1,72,-1
 834 720 l 1,73,-1
 834 469 l 1,74,-1
 926 449 l 1,75,-1
 926 375 l 1,76,-1
 562 375 l 1,77,-1
 562 449 l 1,78,-1
 645 469 l 1,79,-1
 645 1134 l 1,80,-1
 562 1156 l 1,81,-1
 562 1240 l 1,82,-1
 716 1240 l 1,47,-1
1083 993 m 0,83,84
 1083 1125 1083 1125 927 1125 c 2,85,-1
 902.5 1125 l 2,86,87
 879.4 1125 879.4 1125 866.2 1122 c 2,88,-1
 834 1115 l 1,89,-1
 834 848 l 1,90,91
 875.6 840 875.6 840 930.3 840 c 128,-1,92
 985 840 985 840 1010 851.5 c 128,-1,93
 1035 863 1035 863 1051 883.5 c 0,94,95
 1083 924.5 1083 924.5 1083 993 c 0,83,84
EndSplineSet
EndChar

StartChar: macron
Encoding: 175 175 102
Width: 614
Flags: HW
LayerCount: 2
Fore
SplineSet
11 1614 m 1,0,-1
 582 1614 l 1,1,-1
 582 1405 l 1,2,-1
 11 1405 l 1,3,-1
 11 1614 l 1,0,-1
EndSplineSet
EndChar

StartChar: degree
Encoding: 176 176 103
Width: 957
Flags: HW
LayerCount: 2
Fore
SplineSet
523.5 934 m 0,0,1
 448 934 448 934 385.5 961 c 0,2,3
 257.236 1016.41 257.236 1016.41 206 1144.5 c 0,4,5
 181.962 1204.6 181.962 1204.6 181.962 1272.55 c 0,6,7
 181.962 1423.3 181.962 1423.3 286 1523 c 0,8,9
 388.261 1621 388.261 1621 543 1621 c 0,10,11
 689 1621 689 1621 789.5 1520.5 c 0,12,13
 886.038 1423.96 886.038 1423.96 886.038 1283.35 c 0,14,15
 886.038 1131.55 886.038 1131.55 780 1032 c 0,16,17
 675.609 934 675.609 934 523.5 934 c 0,0,1
461.5 1105.5 m 128,-1,19
 493 1091 493 1091 531 1091 c 128,-1,20
 569 1091 569 1091 601.5 1105 c 128,-1,21
 634 1119 634 1119 658 1144 c 0,22,23
 710 1198.17 710 1198.17 710 1278 c 0,24,25
 710.069 1280.69 710.069 1280.69 710.069 1300 c 128,-1,26
 710.069 1319.31 710.069 1319.31 697.034 1351.66 c 128,-1,27
 684 1384 684 1384 661 1409.5 c 0,28,29
 611.843 1464 611.843 1464 537 1464 c 0,30,31
 459.88 1464 459.88 1464 409 1411 c 128,-1,32
 358 1357.88 358 1357.88 358 1278 c 0,33,34
 357.929 1275.21 357.929 1275.21 357.929 1255.89 c 128,-1,35
 357.929 1236.57 357.929 1236.57 370.464 1203.79 c 128,-1,36
 383 1171 383 1171 406.5 1145.5 c 128,-1,18
 430 1120 430 1120 461.5 1105.5 c 128,-1,19
EndSplineSet
EndChar

StartChar: plusminus
Encoding: 177 177 104
Width: 1330
Flags: HW
LayerCount: 2
Fore
SplineSet
558 516 m 1,0,-1
 584 680 l 1,1,-1
 443 673 l 1,2,-1
 248 673 l 1,3,-1
 266 871 l 1,4,-1
 482 871 l 1,5,-1
 620 860 l 1,6,-1
 633 1025 l 1,7,-1
 660 1255 l 1,8,-1
 878 1255 l 1,9,-1
 852 1025 l 1,10,-1
 823 861 l 1,11,-1
 938 871 l 1,12,-1
 1163 871 l 1,13,-1
 1145 673 l 1,14,-1
 900 673 l 1,15,-1
 788 680 l 1,16,17
 786 638 786 638 783 598 c 128,-1,18
 780 558 780 558 778 516 c 1,19,-1
 750 275 l 1,20,-1
 531 275 l 1,21,-1
 558 516 l 1,0,-1
197 180 m 1,22,-1
 1046 180 l 1,23,-1
 1029 0 l 1,24,-1
 180 0 l 1,25,-1
 197 180 l 1,22,-1
EndSplineSet
EndChar

StartChar: acute
Encoding: 180 180 105
Width: 559
Flags: HW
LayerCount: 2
Fore
SplineSet
50 1312 m 1,0,-1
 367 1743 l 1,1,-1
 559 1556 l 1,2,3
 529.574 1500.42 529.574 1500.42 387 1385 c 0,4,5
 233 1260.33 233 1260.33 153 1231 c 1,6,-1
 50 1312 l 1,0,-1
EndSplineSet
EndChar

StartChar: paragraph
Encoding: 182 182 106
Width: 1364
Flags: HW
LayerCount: 2
Fore
SplineSet
144 87 m 1,0,-1
 349 117 l 1,1,-1
 422 678 l 1,2,3
 271.785 678 271.785 678 166 793.5 c 0,4,5
 60 909.235 60 909.235 60 1073 c 0,6,7
 60 1571 60 1571 715 1571 c 0,8,9
 796.5 1571 796.5 1571 842.25 1568 c 2,10,-1
 917.5 1563 l 2,11,12
 1054.12 1553.74 1054.12 1553.74 1141 1552 c 1,13,-1
 1438 1552 l 1,14,-1
 1427 1449 l 1,15,-1
 1260 1416 l 1,16,17
 1242 1261 1242 1261 1221 1096.5 c 2,18,-1
 1135 436 l 2,19,20
 1114 272 1114 272 1096 116 c 1,21,-1
 1251 86 l 1,22,-1
 1242 0 l 1,23,-1
 801 0 l 1,24,-1
 976 1414 l 1,25,-1
 782 1414 l 1,26,-1
 605 0 l 1,27,-1
 136 0 l 1,28,-1
 144 87 l 1,0,-1
EndSplineSet
EndChar

StartChar: cedilla
Encoding: 184 184 108
Width: 479
Flags: HW
LayerCount: 2
Fore
SplineSet
243.5 -234 m 128,-1,1
 258 -202 258 -202 259.474 -168.526 c 128,-1,2
 260.947 -135.053 260.947 -135.053 260.947 -90.8 c 128,-1,3
 260.947 -46.5473 260.947 -46.5473 245 30 c 1,4,-1
 322 34 l 1,5,-1
 405 30 l 1,6,7
 439.8 -22.2 439.8 -22.2 455.5 -163.5 c 0,8,9
 460 -204 460 -204 460 -238 c 0,10,11
 460 -484 460 -484 162 -484 c 0,12,13
 79.8 -484 79.8 -484 25.9 -473 c 128,-1,14
 -28 -462 -28 -462 -36 -456 c 1,15,-1
 -1 -303 l 1,16,17
 28.7143 -319 28.7143 -319 71.8571 -319 c 128,-1,18
 115 -319 115 -319 147.5 -311 c 128,-1,19
 180 -303 180 -303 204.5 -284.5 c 128,-1,0
 229 -266 229 -266 243.5 -234 c 128,-1,1
EndSplineSet
EndChar

StartChar: questiondown
Encoding: 191 191 110
Width: 1013
Flags: HW
LayerCount: 2
Fore
SplineSet
720 1085 m 128,-1,1
 684 1073 684 1073 652 1073 c 128,-1,2
 620 1073 620 1073 595 1085 c 128,-1,3
 570 1097 570 1097 551.5 1119 c 0,4,5
 511 1167.16 511 1167.16 511 1224.08 c 128,-1,6
 511 1281 511 1281 528 1318 c 128,-1,7
 545 1355 545 1355 572.5 1381 c 0,8,9
 628.558 1434 628.558 1434 702 1434 c 0,10,11
 772.8 1434 772.8 1434 813.5 1384.5 c 0,12,13
 850 1340.11 850 1340.11 850 1281.05 c 128,-1,14
 850 1222 850 1222 832 1184.5 c 128,-1,15
 814 1147 814 1147 785 1122 c 128,-1,0
 756 1097 756 1097 720 1085 c 128,-1,1
610.5 696.5 m 0,16,17
 637 755 637 755 638.5 800 c 128,-1,18
 640 845 640 845 636 885 c 1,19,-1
 825 940 l 1,20,-1
 839 939 l 1,21,22
 889 866.778 889 866.778 889 786.389 c 128,-1,23
 889 706 889 706 862.5 649 c 128,-1,24
 836 592 836 592 792 544 c 0,25,26
 721.777 467.393 721.777 467.393 572 379 c 1,27,28
 431.39 306.271 431.39 306.271 352 221 c 1,29,30
 320.647 155.159 320.647 155.159 320.647 97.4029 c 128,-1,31
 320.647 39.6471 320.647 39.6471 341.824 -11.1765 c 128,-1,32
 363 -62 363 -62 408 -101 c 0,33,34
 503.769 -184 503.769 -184 664 -184 c 0,35,36
 759 -184 759 -184 875 -126 c 1,37,-1
 819 -346 l 1,38,39
 773.427 -387.775 773.427 -387.775 635 -412 c 0,40,41
 595 -419 595 -419 562 -419 c 0,42,43
 294.114 -419 294.114 -419 160.5 -291 c 0,44,45
 50 -185.143 50 -185.143 50 -15 c 0,46,47
 50 220.231 50 220.231 233 361 c 0,48,49
 285 401 285 401 339.5 437.5 c 2,50,-1
 447 510.5 l 2,51,52
 562.174 589.818 562.174 589.818 610.5 696.5 c 0,16,17
EndSplineSet
EndChar

StartChar: germandbls
Encoding: 223 223 111
Width: 1193
Flags: HW
LayerCount: 2
Fore
SplineSet
120 927 m 1,0,1
 191.084 1434.75 191.084 1434.75 521 1548 c 0,2,3
 628.783 1585 628.783 1585 747.391 1585 c 128,-1,4
 866 1585 866 1585 939.5 1565 c 128,-1,5
 1013 1545 1013 1545 1069.5 1506.5 c 0,6,7
 1194 1421.66 1194 1421.66 1194 1283 c 0,8,9
 1194 1099.27 1194 1099.27 1040.5 1006 c 1,10,-1
 966.5 959 l 1,11,12
 887 906 887 906 887 841 c 0,13,14
 887 799.658 887 799.658 943 724.5 c 2,15,-1
 987 666 l 1,16,17
 1012 635 1012 635 1042 601.5 c 128,-1,18
 1072 568 1072 568 1098 529 c 0,19,20
 1158 439 1158 439 1158 347.5 c 128,-1,21
 1158 256 1158 256 1127.5 189.5 c 128,-1,22
 1097 123 1097 123 1041 77.5 c 0,23,24
 925.923 -16 925.923 -16 732 -16 c 0,25,26
 537 -16 537 -16 443 31 c 1,27,-1
 469 218 l 1,28,29
 508.908 158.137 508.908 158.137 600.5 126 c 0,30,31
 629 116 629 116 659 116 c 128,-1,32
 689 116 689 116 718.5 121 c 128,-1,33
 748 126 748 126 770.5 143 c 0,34,35
 819 179.644 819 179.644 819 285 c 0,36,37
 819 363.667 819 363.667 758.5 470 c 1,38,-1
 727 523 l 1,39,40
 657.363 618.292 657.363 618.292 628 724 c 0,41,42
 618 760 618 760 618 794.5 c 128,-1,43
 618 829 618 829 626 856.5 c 128,-1,44
 634 884 634 884 648.5 907.5 c 0,45,46
 671.056 944.056 671.056 944.056 729.028 1003.03 c 0,47,48
 864 1140.33 864 1140.33 864 1287 c 0,49,50
 864 1408.54 864 1408.54 787 1450 c 0,51,52
 761 1464 761 1464 718 1464 c 128,-1,53
 675 1464 675 1464 631.5 1432 c 128,-1,54
 588 1400 588 1400 552.5 1329 c 0,55,56
 482.575 1189.15 482.575 1189.15 447 867 c 1,57,-1
 340 0 l 1,58,-1
 7 0 l 1,59,-1
 120 927 l 1,0,1
EndSplineSet
EndChar

StartChar: oslash
Encoding: 248 248 112
Width: 1197
Flags: HW
LayerCount: 2
Fore
SplineSet
490 -18 m 0,0,1
 376 -18 376 -18 282 28 c 1,2,-1
 168 -132 l 1,3,-1
 79 -83 l 1,4,-1
 199 85 l 1,5,6
 61.561 209.752 61.561 209.752 61.561 469.554 c 0,7,8
 61.561 754.125 61.561 754.125 222.5 950.5 c 0,9,10
 333.357 1085.77 333.357 1085.77 503.5 1138.5 c 0,11,12
 589 1165 589 1165 699.5 1165 c 128,-1,13
 810 1165 810 1165 902 1122 c 1,14,-1
 1031 1303 l 1,15,-1
 1120 1254 l 1,16,-1
 988 1067 l 1,17,18
 1132.44 939.554 1132.44 939.554 1132.44 676.446 c 0,19,20
 1132.44 391.694 1132.44 391.694 971 196.5 c 0,21,22
 793.594 -18 793.594 -18 490 -18 c 0,0,1
750 923 m 1,23,24
 721.636 1027 721.636 1027 652 1027 c 0,25,26
 490.496 1027 490.496 1027 436 702.5 c 0,27,28
 418.333 597.303 418.333 597.303 418.333 527.652 c 128,-1,29
 418.333 458 418.333 458 418.667 442 c 128,-1,30
 419 426 419 426 419.5 416 c 128,-1,31
 420 406 420 406 420 395 c 1,32,-1
 750 923 l 1,23,24
438 236 m 1,33,34
 452 169 452 169 479 139 c 128,-1,35
 506 109 506 109 551 109 c 256,36,37
 633.629 109 633.629 109 689.5 206.5 c 0,38,39
 773.727 353.485 773.727 353.485 773.727 661.066 c 0,40,41
 773.727 685.364 773.727 685.364 773 709 c 2,42,-1
 771 766 l 1,43,-1
 438 236 l 1,33,34
EndSplineSet
EndChar

StartChar: endash
Encoding: 8211 8211 113
Width: 1548
Flags: HW
LayerCount: 2
Fore
SplineSet
288 871 m 1,0,-1
 1385 871 l 1,1,-1
 1345 674 l 1,2,-1
 248 674 l 1,3,-1
 288 871 l 1,0,-1
EndSplineSet
EndChar

StartChar: emdash
Encoding: 8212 8212 114
Width: 2036
Flags: HW
LayerCount: 2
Fore
SplineSet
282 871 m 1,0,-1
 1873 871 l 1,1,-1
 1838 674 l 1,2,-1
 248 674 l 1,3,-1
 282 871 l 1,0,-1
EndSplineSet
EndChar

StartChar: quoteleft
Encoding: 8216 8216 115
Width: 702
Flags: HW
LayerCount: 2
Fore
SplineSet
375 917 m 1,0,1
 231.82 954.227 231.82 954.227 193.5 1122.5 c 0,2,3
 182 1173 182 1173 182 1234.5 c 128,-1,4
 182 1296 182 1296 199 1355.5 c 128,-1,5
 216 1415 216 1415 246 1466.5 c 128,-1,6
 276 1518 276 1518 315 1561.5 c 128,-1,7
 354 1605 354 1605 399 1640 c 0,8,9
 481.438 1704.12 481.438 1704.12 583 1747 c 1,10,-1
 649 1641 l 1,11,-1
 647 1619 l 1,12,13
 567.507 1592.5 567.507 1592.5 507 1498.5 c 0,14,15
 446 1403.73 446 1403.73 446 1319.37 c 0,16,17
 446 1158.42 446 1158.42 546 1148 c 1,18,-1
 541 1107 l 1,19,-1
 375 917 l 1,0,1
EndSplineSet
EndChar

StartChar: dagger
Encoding: 8224 8224 121
Width: 816
Flags: HW
LayerCount: 2
Fore
SplineSet
350 1008 m 1,0,-1
 373 1107 l 1,1,-1
 103 1107 l 1,2,-1
 132 1298 l 1,3,-1
 423 1298 l 1,4,-1
 424 1469 l 1,5,-1
 445 1646 l 1,6,-1
 695 1646 l 1,7,-1
 665 1469 l 1,8,-1
 608 1298 l 1,9,-1
 890 1298 l 1,10,-1
 862 1107 l 1,11,-1
 602 1107 l 1,12,-1
 599 1008 l 1,13,-1
 428 151 l 1,14,-1
 251 151 l 1,15,-1
 350 1008 l 1,0,-1
EndSplineSet
EndChar

StartChar: bullet
Encoding: 8226 8226 122
Width: 858
Flags: HW
LayerCount: 2
Fore
SplineSet
530.5 482 m 128,-1,1
 473 454 473 454 409 454 c 128,-1,2
 345 454 345 454 303.5 473 c 128,-1,3
 262 492 262 492 230.5 523.5 c 0,4,5
 162 592 162 592 162 683 c 0,6,7
 162 804.286 162 804.286 240.5 894 c 0,8,9
 326.25 992 326.25 992 465 992 c 0,10,11
 559.852 992 559.852 992 627.5 926.5 c 128,-1,12
 695 861.143 695 861.143 695 768 c 0,13,14
 695 641.918 695 641.918 624.5 555 c 0,15,0
 588 510 588 510 530.5 482 c 128,-1,1
EndSplineSet
EndChar

StartChar: mu
Encoding: 181 181 125
Width: 1364
Flags: HW
LayerCount: 2
Fore
SplineSet
970 -20 m 0,0,1
 825.438 -20 825.438 -20 825.438 93.2148 c 0,2,3
 825.438 104.875 825.438 104.875 827 118 c 1,4,5
 814 106 814 106 795.5 82.5 c 128,-1,6
 777 59 777 59 747.5 36.5 c 0,7,8
 673.422 -20 673.422 -20 574 -20 c 0,9,10
 470.607 -20 470.607 -20 401.5 23 c 0,11,12
 379 37 379 37 367 56 c 1,13,-1
 306 -372 l 1,14,-1
 41 -372 l 1,15,-1
 149 358 l 1,16,17
 158 429 158 429 169.5 496.5 c 2,18,-1
 192 633 l 2,19,20
 217.109 790.504 217.109 790.504 229 923 c 1,21,22
 229 981 229 981 186 981 c 0,23,24
 151.385 981 151.385 981 112 949 c 1,25,-1
 82 1028 l 1,26,27
 91 1036 91 1036 112 1058 c 128,-1,28
 133 1080 133 1080 169.5 1103.5 c 0,29,30
 261.915 1163 261.915 1163 389 1163 c 0,31,32
 518.92 1163 518.92 1163 557 1095 c 0,33,34
 577.989 1057.52 577.989 1057.52 558.495 913.26 c 128,-1,35
 539 769 539 769 528.5 703 c 128,-1,36
 518 637 518 637 511 598 c 128,-1,37
 504 559 504 559 498.5 520 c 0,38,39
 486 431.364 486 431.364 486 364.182 c 128,-1,40
 486 297 486 297 497.5 261.5 c 128,-1,41
 509 226 509 226 527 205.5 c 0,42,43
 558.171 170 558.171 170 601.085 170 c 128,-1,44
 644 170 644 170 668.5 181 c 128,-1,45
 693 192 693 192 711 209.5 c 128,-1,46
 729 227 729 227 743.5 247.5 c 2,47,-1
 773 288 l 1,48,-1
 892 1155 l 1,49,-1
 1218 1155 l 1,50,-1
 1090 227 l 2,51,52
 1080.26 151 1080.26 151 1130 151 c 0,53,54
 1156.06 151 1156.06 151 1185.53 171.5 c 2,55,-1
 1222 197 l 1,56,-1
 1250 124 l 1,57,58
 1200.42 39.7182 1200.42 39.7182 1072 -4 c 0,59,60
 1025 -20 1025 -20 970 -20 c 0,0,1
EndSplineSet
EndChar

StartChar: logicalnot
Encoding: 172 172 126
Width: 1370
Flags: HW
LayerCount: 2
Fore
SplineSet
228 873 m 1,0,-1
 1208 873 l 1,1,-1
 1146 322 l 1,2,-1
 929 322 l 1,3,-1
 972 701 l 1,4,-1
 209 701 l 1,5,-1
 228 873 l 1,0,-1
EndSplineSet
EndChar

StartChar: yen
Encoding: 165 165 127
Width: 1483
Flags: HW
LayerCount: 2
Fore
SplineSet
286 106 m 1,0,-1
 565 136 l 1,1,-1
 595 376 l 1,2,-1
 239 376 l 1,3,-1
 255 524 l 1,4,-1
 613 524 l 1,5,-1
 635 700 l 1,6,-1
 276 700 l 1,7,-1
 294 852 l 1,8,-1
 554 852 l 1,9,-1
 265 1394 l 1,10,-1
 151 1420 l 1,11,-1
 166 1532 l 1,12,-1
 849 1532 l 1,13,-1
 834 1420 l 1,14,-1
 652 1394 l 1,15,-1
 841 904 l 1,16,-1
 934 1044 l 1,17,-1
 1156 1402 l 1,18,-1
 1036 1420 l 1,19,-1
 1051 1532 l 1,20,-1
 1610 1532 l 1,21,-1
 1595 1420 l 1,22,-1
 1465 1392 l 1,23,-1
 1051 852 l 1,24,-1
 1280 852 l 1,25,-1
 1262 700 l 1,26,-1
 935 700 l 1,27,-1
 912 524 l 1,28,-1
 1240 524 l 1,29,-1
 1224 376 l 1,30,-1
 893 376 l 1,31,-1
 862 136 l 1,32,-1
 1155 106 l 1,33,-1
 1145 0 l 1,34,-1
 274 0 l 1,35,-1
 286 106 l 1,0,-1
EndSplineSet
EndChar

StartChar: divide
Encoding: 247 247 128
Width: 1370
Flags: HW
LayerCount: 2
Fore
SplineSet
818 1047 m 128,-1,1
 782 1035 782 1035 750 1035 c 128,-1,2
 718 1035 718 1035 693 1047 c 128,-1,3
 668 1059 668 1059 649.5 1081 c 0,4,5
 609 1129.16 609 1129.16 609 1186.08 c 128,-1,6
 609 1243 609 1243 626 1280 c 128,-1,7
 643 1317 643 1317 670.5 1343 c 0,8,9
 726.558 1396 726.558 1396 800 1396 c 0,10,11
 870.8 1396 870.8 1396 911.5 1346.5 c 0,12,13
 948 1302.11 948 1302.11 948 1243.05 c 128,-1,14
 948 1184 948 1184 930 1146.5 c 128,-1,15
 912 1109 912 1109 883 1084 c 128,-1,0
 854 1059 854 1059 818 1047 c 128,-1,1
262 871 m 1,16,-1
 1201 871 l 1,17,-1
 1183 674 l 1,18,-1
 244 674 l 1,19,-1
 262 871 l 1,16,-1
507 246 m 0,20,21
 496 275 496 275 496 316 c 128,-1,22
 496 357 496 357 513 394 c 128,-1,23
 530 431 530 431 557.5 457 c 0,24,25
 613.558 510 613.558 510 687 510 c 0,26,27
 757.8 510 757.8 510 798.5 460.5 c 0,28,29
 835 416.108 835 416.108 835 357.054 c 128,-1,30
 835 298 835 298 817 260.5 c 128,-1,31
 799 223 799 223 770 198 c 0,32,33
 713.16 149 713.16 149 633 149 c 0,34,35
 543.793 149 543.793 149 507 246 c 0,20,21
EndSplineSet
EndChar

StartChar: Ccedilla
Encoding: 199 199 129
Width: 1312
Flags: HW
LayerCount: 2
Fore
SplineSet
395 -301 m 1,0,1
 424.714 -317 424.714 -317 467.857 -317 c 128,-1,2
 511 -317 511 -317 543.5 -309 c 128,-1,3
 576 -301 576 -301 600.5 -282.5 c 0,4,5
 656.889 -239.921 656.889 -239.921 656.889 -118.123 c 0,6,7
 656.889 -70.2224 656.889 -70.2224 649 -15 c 1,8,9
 249.52 -3.90332 249.52 -3.90332 116.5 318.5 c 0,10,11
 60 455.441 60 455.441 60 653.22 c 128,-1,12
 60 851 60 851 123.5 1020.5 c 128,-1,13
 187 1190 187 1190 303 1307.5 c 0,14,15
 541.417 1549 541.417 1549 949 1549 c 0,16,17
 1141.65 1549 1141.65 1549 1252 1515.5 c 0,18,19
 1280 1507 1280 1507 1308 1501 c 1,20,-1
 1341 1492 l 1,21,-1
 1280 1092 l 1,22,-1
 1027 1092 l 1,23,-1
 987 1402 l 1,24,25
 939.75 1420 939.75 1420 876.375 1420 c 128,-1,26
 813 1420 813 1420 748.5 1386.5 c 128,-1,27
 684 1353 684 1353 634.5 1296 c 128,-1,28
 585 1239 585 1239 549 1163.5 c 0,29,30
 450.652 957.243 450.652 957.243 450.652 686.051 c 0,31,32
 450.652 145 450.652 145 731 145 c 0,33,34
 823.933 145 823.933 145 871.467 168 c 128,-1,35
 919 191 919 191 940 212.5 c 128,-1,36
 961 234 961 234 972.5 256.5 c 128,-1,37
 984 279 984 279 993.5 305.5 c 128,-1,38
 1003 332 1003 332 1011.5 361 c 2,39,-1
 1028 419 l 1,40,-1
 1229 420 l 1,41,-1
 1186 136 l 1,42,43
 1041.56 15.633 1041.56 15.633 820 -8 c 1,44,45
 856 -121.143 856 -121.143 856 -236 c 0,46,47
 856 -482 856 -482 558 -482 c 0,48,49
 475.8 -482 475.8 -482 421.9 -471 c 128,-1,50
 368 -460 368 -460 360 -454 c 1,51,-1
 395 -301 l 1,0,1
EndSplineSet
EndChar

StartChar: AE
Encoding: 198 198 130
Width: 2084
Flags: HW
LayerCount: 2
Fore
SplineSet
773 1394 m 1,0,-1
 437 1420 l 1,1,-1
 452 1530 l 1,2,-1
 2018 1530 l 1,3,-1
 1982 1160 l 1,4,-1
 1770 1160 l 1,5,-1
 1736 1384 l 1,6,-1
 1387 1410 l 1,7,-1
 1320 881 l 1,8,-1
 1764 905 l 1,9,-1
 1741 687 l 1,10,-1
 1300 712 l 1,11,-1
 1222 136 l 1,12,-1
 1701 171 l 1,13,-1
 1818 468 l 1,14,-1
 2031 454 l 1,15,-1
 1961 0 l 1,16,-1
 671 0 l 1,17,-1
 685 106 l 1,18,-1
 875 136 l 1,19,-1
 910 416 l 1,20,-1
 436 416 l 1,21,-1
 282 136 l 1,22,-1
 472 106 l 1,23,-1
 464 0 l 1,24,-1
 -163 0 l 1,25,-1
 -155 106 l 1,26,-1
 2 136 l 1,27,-1
 773 1394 l 1,0,-1
929 567 m 1,28,-1
 1034 1394 l 1,29,-1
 975 1394 l 1,30,-1
 519 567 l 1,31,-1
 929 567 l 1,28,-1
EndSplineSet
EndChar

StartChar: cent
Encoding: 162 162 131
Width: 1056
Flags: HW
LayerCount: 2
Fore
SplineSet
633 169 m 0,0,1
 788.538 169 788.538 169 887 297 c 1,2,-1
 951 194 l 1,3,4
 870.644 69.4489 870.644 69.4489 695 10 c 0,5,6
 630 -12 630 -12 551 -18 c 1,7,-1
 515 -215 l 1,8,-1
 365 -215 l 1,9,-1
 403 -9 l 1,10,11
 271 22 271 22 195.5 137 c 0,12,13
 116.875 256.76 116.875 256.76 116.875 464.127 c 0,14,15
 116.875 700.967 116.875 700.967 238 886.5 c 0,16,17
 377.291 1099.86 377.291 1099.86 623 1149 c 1,18,-1
 669 1358 l 1,19,-1
 819 1358 l 1,20,-1
 776 1163 l 1,21,22
 917.667 1163 917.667 1163 1019 1125 c 1,23,-1
 926 803 l 1,24,25
 905.047 809.447 905.047 809.447 871.024 847.724 c 2,26,-1
 815 911 l 2,27,28
 731.4 1006 731.4 1006 690.7 1006 c 128,-1,29
 650 1006 650 1006 607.5 966 c 0,30,31
 515.958 879.843 515.958 879.843 475.5 681.5 c 0,32,33
 457.617 593.83 457.617 593.83 457.617 534.638 c 128,-1,34
 457.617 475.447 457.617 475.447 458.809 428.223 c 128,-1,35
 460 381 460 381 471 326 c 128,-1,36
 482 271 482 271 503.5 236 c 0,37,38
 544.657 169 544.657 169 633 169 c 0,0,1
EndSplineSet
EndChar

StartChar: ae
Encoding: 230 230 132
Width: 1710
Flags: HW
LayerCount: 2
Fore
SplineSet
1269 159 m 0,0,1
 1447 159 1447 159 1567 315 c 1,2,-1
 1631 212 l 1,3,4
 1538.48 66.6087 1538.48 66.6087 1335 4 c 0,5,6
 1257 -20 1257 -20 1165.5 -20 c 128,-1,7
 1074 -20 1074 -20 1007.5 0.5 c 128,-1,8
 941 21 941 21 892 57 c 0,9,10
 798.722 125.531 798.722 125.531 760 246 c 1,11,12
 642.859 70.2892 642.859 70.2892 494 5 c 0,13,14
 437 -20 437 -20 358 -20 c 128,-1,15
 279 -20 279 -20 218.5 15 c 128,-1,16
 158 50 158 50 122.5 107.5 c 0,17,18
 60 208.732 60 208.732 60 392 c 0,19,20
 60 699.473 60 699.473 257.5 923 c 0,21,22
 391.086 1074.19 391.086 1074.19 593 1133 c 0,23,24
 696 1163 696 1163 799.5 1163 c 128,-1,25
 903 1163 903 1163 1018 1133 c 1,26,-1
 1107 1163 l 1,27,-1
 1099 1100 l 1,28,29
 1225 1163 1225 1163 1372 1163 c 0,30,31
 1612.41 1163 1612.41 1163 1679 1011.5 c 0,32,33
 1701.14 961.136 1701.14 961.136 1701.14 893.309 c 128,-1,34
 1701.14 825.483 1701.14 825.483 1675.07 762.241 c 128,-1,35
 1649 699 1649 699 1601 649 c 128,-1,36
 1553 599 1553 599 1489.5 562.5 c 128,-1,37
 1426 526 1426 526 1356.5 503 c 0,38,39
 1217.98 457.158 1217.98 457.158 1082 455 c 1,40,41
 1082 299 1082 299 1132 229 c 128,-1,42
 1182 159 1182 159 1269 159 c 0,0,1
1298 1025 m 0,43,44
 1111.35 1025 1111.35 1025 1082 575 c 1,45,46
 1187.93 582.222 1187.93 582.222 1277.5 659 c 0,47,48
 1380.13 746.966 1380.13 746.966 1380.13 885.983 c 128,-1,49
 1380.13 1025 1380.13 1025 1298 1025 c 0,43,44
450 202 m 128,-1,51
 467 180 467 180 493.5 180 c 128,-1,52
 520 180 520 180 547 193.5 c 128,-1,53
 574 207 574 207 600 228.5 c 0,54,55
 646.156 266.668 646.156 266.668 697 336 c 1,56,-1
 801 1023 l 1,57,58
 674.353 1021.14 674.353 1021.14 578 921.5 c 0,59,60
 452.589 791.814 452.589 791.814 416.5 549.5 c 0,61,62
 406 479 406 479 406 426.5 c 128,-1,63
 406 374 406 374 410 332.5 c 128,-1,64
 414 291 414 291 423.5 257.5 c 128,-1,50
 433 224 433 224 450 202 c 128,-1,51
EndSplineSet
EndChar

StartChar: circumflex
Encoding: 710 710 133
Width: 795
Flags: HW
LayerCount: 2
Fore
SplineSet
50 1296 m 1,0,-1
 417 1670 l 1,1,-1
 595 1670 l 1,2,-1
 805 1296 l 1,3,-1
 681 1238 l 1,4,-1
 480 1432 l 1,5,-1
 157 1239 l 1,6,-1
 50 1296 l 1,0,-1
EndSplineSet
EndChar

StartChar: caron
Encoding: 711 711 134
Width: 794
Flags: HW
LayerCount: 2
Fore
SplineSet
50 1612 m 1,0,-1
 174 1670 l 1,1,-1
 375 1460 l 1,2,-1
 698 1669 l 1,3,-1
 805 1612 l 1,4,-1
 437 1238 l 1,5,-1
 260 1238 l 1,6,-1
 50 1612 l 1,0,-1
EndSplineSet
EndChar

StartChar: breve
Encoding: 728 728 135
Width: 717
Flags: HW
LayerCount: 2
Fore
SplineSet
240 1681 m 1,0,-1
 239 1636 l 1,1,2
 239 1581.46 239 1581.46 256 1559.23 c 0,3,4
 288.294 1517 288.294 1517 355.647 1517 c 128,-1,5
 423 1517 423 1517 455 1531.5 c 128,-1,6
 487 1546 487 1546 503 1569 c 0,7,8
 527.438 1604.13 527.438 1604.13 530 1681 c 1,9,-1
 712 1681 l 1,10,11
 713 1673 713 1673 713 1664 c 2,12,-1
 713 1647 l 2,13,14
 713 1510.43 713 1510.43 632 1414 c 0,15,16
 536.24 1300 536.24 1300 363 1300 c 0,17,18
 199.303 1300 199.303 1300 118 1400.5 c 0,19,20
 51 1483.32 51 1483.32 51 1613 c 0,21,22
 51 1638.5 51 1638.5 56 1681 c 1,23,-1
 240 1681 l 1,0,-1
EndSplineSet
EndChar

StartChar: ring
Encoding: 730 730 136
Width: 722
Flags: HW
LayerCount: 2
Fore
SplineSet
364.5 1253 m 0,0,1
 295 1253 295 1253 238 1269 c 128,-1,2
 181 1285 181 1285 140.5 1316 c 0,3,4
 57 1379.91 57 1379.91 57 1497 c 256,5,6
 57 1703.33 57 1703.33 274 1776.5 c 0,7,8
 355.552 1804 355.552 1804 432.276 1804 c 128,-1,9
 509 1804 509 1804 564.5 1788 c 128,-1,10
 620 1772 620 1772 660.5 1741.5 c 0,11,12
 746 1677.11 746 1677.11 746 1567 c 0,13,14
 746 1418.11 746 1418.11 624 1330 c 0,15,16
 517.385 1253 517.385 1253 364.5 1253 c 0,0,1
430.348 1664 m 128,-1,18
 389 1664 389 1664 359.5 1656.5 c 128,-1,19
 330 1649 330 1649 306 1632.5 c 0,20,21
 251 1594.69 251 1594.69 251 1520 c 0,22,23
 251 1468.31 251 1468.31 294.5 1431.5 c 0,24,25
 336.455 1396 336.455 1396 376.727 1396 c 0,26,27
 458.375 1396 458.375 1396 505.688 1428.21 c 128,-1,28
 553 1460.43 553 1460.43 553 1525.96 c 128,-1,29
 553 1591.49 553 1591.49 512.349 1627.74 c 128,-1,17
 471.697 1664 471.697 1664 430.348 1664 c 128,-1,18
EndSplineSet
EndChar

StartChar: tilde
Encoding: 732 732 137
Width: 816
Flags: HW
LayerCount: 2
Fore
SplineSet
97 1387 m 1,0,-1
 20 1511 l 1,1,2
 51.3655 1575.82 51.3655 1575.82 126 1627 c 0,3,4
 203.292 1680 203.292 1680 259.646 1680 c 128,-1,5
 316 1680 316 1680 344.5 1669 c 128,-1,6
 373 1658 373 1658 396 1641 c 128,-1,7
 419 1624 419 1624 437.5 1605 c 2,8,9
 474 1569 l 1,10,11
 515.294 1530 515.294 1530 549.647 1530 c 128,-1,12
 584 1530 584 1530 605.5 1539 c 128,-1,13
 627 1548 627 1548 645 1562 c 0,14,15
 670.594 1581.91 670.594 1581.91 708 1630 c 1,16,-1
 796 1499 l 1,17,18
 769.337 1431.32 769.337 1431.32 697 1376 c 0,19,20
 621.154 1318 621.154 1318 561.077 1318 c 128,-1,21
 501 1318 501 1318 469.5 1329 c 128,-1,22
 438 1340 438 1340 415 1356.5 c 128,-1,23
 392 1373 392 1373 373.5 1392 c 128,-1,24
 355 1411 355 1411 336 1427.5 c 0,25,26
 291.174 1466.43 291.174 1466.43 231.887 1467.21 c 128,-1,27
 172.6 1468 172.6 1468 97 1387 c 1,0,-1
EndSplineSet
EndChar

StartChar: hungarumlaut
Encoding: 733 733 138
Width: 917
Flags: HW
LayerCount: 2
Fore
SplineSet
436 1295 m 1,0,-1
 702 1742 l 1,1,-1
 866 1628 l 1,2,3
 844.966 1546.87 844.966 1546.87 731.5 1408 c 0,4,5
 615.865 1266.48 615.865 1266.48 539 1231 c 1,6,-1
 436 1295 l 1,0,-1
-47 1295 m 1,7,-1
 214 1742 l 1,8,-1
 386 1624 l 1,9,10
 364.003 1542.3 364.003 1542.3 249 1407 c 0,11,12
 130 1267 130 1267 55 1231 c 1,13,-1
 -47 1295 l 1,7,-1
EndSplineSet
EndChar

StartChar: ogonek
Encoding: 731 731 139
Width: 645
Flags: HW
LayerCount: 2
Fore
SplineSet
543 -326 m 1,0,1
 393.968 -480 393.968 -480 199 -480 c 0,2,3
 102 -480 102 -480 54 -432.5 c 128,-1,4
 6 -385 6 -385 6 -306 c 0,5,6
 6 -247.25 6 -247.25 48 -186.625 c 128,-1,7
 90 -126 90 -126 129.5 -90 c 128,-1,8
 169 -54 169 -54 208 -30 c 128,-1,9
 247 -6 247 -6 284.5 10.5 c 128,-1,10
 322 27 322 27 356 45 c 1,11,-1
 418 59 l 1,12,-1
 539 38 l 1,13,14
 287 -120.118 287 -120.118 287 -215 c 0,15,16
 287 -287 287 -287 354 -287 c 0,17,18
 395 -287 395 -287 430 -266 c 128,-1,19
 465 -245 465 -245 507 -212 c 1,20,-1
 543 -326 l 1,0,1
EndSplineSet
EndChar

StartChar: fraction
Encoding: 8260 8260 140
Width: 1026
Flags: HW
LayerCount: 2
Fore
SplineSet
780 1530 m 1,0,-1
 999 1530 l 1,1,-1
 318 0 l 1,2,-1
 99 0 l 1,3,-1
 780 1530 l 1,0,-1
EndSplineSet
EndChar

StartChar: dollar
Encoding: 36 36 141
Width: 1205
Flags: HW
LayerCount: 2
Fore
SplineSet
79 393 m 1,0,-1
 283 393 l 1,1,-1
 292 174 l 1,2,3
 381.103 106 381.103 106 501 106 c 0,4,5
 705.066 106 705.066 106 747.5 235 c 0,6,7
 760 273 760 273 760 318 c 128,-1,8
 760 363 760 363 744.5 402.5 c 128,-1,9
 729 442 729 442 696.5 478.5 c 0,10,11
 641.689 540.057 641.689 540.057 534.844 608.529 c 128,-1,12
 428 677 428 677 368 725.5 c 128,-1,13
 308 774 308 774 262.5 831 c 0,14,15
 164 954.396 164 954.396 164 1099 c 0,16,17
 164 1297.39 164 1297.39 307.5 1417.5 c 0,18,19
 444.956 1532.56 444.956 1532.56 674 1547 c 1,20,-1
 703 1729 l 1,21,-1
 884 1729 l 1,22,-1
 854 1545 l 1,23,24
 1038.08 1531.36 1038.08 1531.36 1138 1475 c 1,25,-1
 1084 1173 l 1,26,-1
 893 1173 l 1,27,-1
 865 1371 l 1,28,29
 793 1423 793 1423 691 1423 c 256,30,31
 534.731 1423 534.731 1423 493.5 1312.5 c 0,32,33
 481 1279 481 1279 481 1232.5 c 128,-1,34
 481 1186 481 1186 498.5 1141 c 128,-1,35
 516 1096 516 1096 551.5 1054.5 c 0,36,37
 614.321 981.062 614.321 981.062 769 887 c 1,38,39
 915.862 796.085 915.862 796.085 991.5 706 c 0,40,41
 1088 591.067 1088 591.067 1088 445 c 0,42,43
 1088 152.804 1088 152.804 809 32 c 0,44,45
 712 -10 712 -10 577 -20 c 1,46,-1
 543 -230 l 1,47,-1
 363 -230 l 1,48,-1
 396 -19 l 1,49,50
 200.602 -4.84071 200.602 -4.84071 66 49 c 0,51,52
 31 63 31 63 17 75 c 1,53,-1
 79 393 l 1,0,-1
204 270 m 1,54,-1
 201 276 l 1,55,-1
 204 270 l 1,54,-1
EndSplineSet
EndChar

StartChar: ordfeminine
Encoding: 170 170 142
Width: 854
Flags: HW
LayerCount: 2
Fore
SplineSet
810 866 m 256,0,1
 830.615 866 830.615 866 866 886 c 1,2,-1
 899 832 l 1,3,4
 867.933 794.719 867.933 794.719 740.5 755 c 0,5,6
 702 743 702 743 650.5 743 c 128,-1,7
 599 743 599 743 568.044 775.804 c 128,-1,8
 537.089 808.608 537.089 808.608 537.089 852.741 c 0,9,10
 537.089 860.646 537.089 860.646 538 869 c 1,11,12
 489.888 810.196 489.888 810.196 452.444 788.098 c 0,13,14
 376.028 743 376.028 743 301.014 743 c 128,-1,15
 226 743 226 743 182 763.5 c 128,-1,16
 138 784 138 784 107 822.5 c 0,17,18
 44 900.742 44 900.742 44 1040 c 0,19,20
 44 1237.64 44 1237.64 203 1403 c 0,21,22
 305.796 1509.91 305.796 1509.91 447.5 1554.5 c 0,23,24
 519 1577 519 1577 603 1577 c 128,-1,25
 687 1577 687 1577 768 1550 c 1,26,-1
 915 1586 l 1,27,-1
 798 920 l 2,28,29
 793 895 793 895 797.5 880.5 c 128,-1,30
 802 866 802 866 810 866 c 256,0,1
346.5 922.5 m 128,-1,32
 365 881 365 881 406 881 c 0,33,34
 477.609 881 477.609 881 535 936 c 1,35,-1
 626 1459 l 1,36,37
 599 1475 599 1475 573 1475 c 0,38,39
 450.545 1475 450.545 1475 383.5 1337.5 c 0,40,41
 328 1223.68 328 1223.68 328 1055 c 0,42,31
 328 964 328 964 346.5 922.5 c 128,-1,32
EndSplineSet
EndChar

StartChar: ordmasculine
Encoding: 186 186 143
Width: 854
Flags: HW
LayerCount: 2
Fore
SplineSet
598.5 765.5 m 128,-1,1
 510 733 510 733 423 733 c 128,-1,2
 336 733 336 733 270.5 758 c 128,-1,3
 205 783 205 783 158 829 c 0,4,5
 58 926.872 58 926.872 58 1085 c 0,6,7
 58 1315.54 58 1315.54 212 1459.5 c 0,8,9
 350.566 1589.03 350.566 1589.03 541.708 1589.03 c 0,10,11
 712.695 1589.03 712.695 1589.03 810.5 1488 c 0,12,13
 903 1392.45 903 1392.45 903 1252.23 c 128,-1,14
 903 1112 903 1112 862.5 1018.5 c 128,-1,15
 822 925 822 925 754.5 861.5 c 128,-1,0
 687 798 687 798 598.5 765.5 c 128,-1,1
331.5 1229.5 m 128,-1,17
 322 1163 322 1163 322 1073 c 128,-1,18
 322 983 322 983 351.734 915.469 c 128,-1,19
 381.468 847.938 381.468 847.938 425.25 847.938 c 128,-1,20
 469.031 847.938 469.031 847.938 500.516 862.469 c 128,-1,21
 532 877 532 877 555.5 903.5 c 128,-1,22
 579 930 579 930 594.5 965.5 c 128,-1,23
 610 1001 610 1001 619.5 1042 c 0,24,25
 637 1117.53 637 1117.53 637 1196.76 c 128,-1,26
 637 1276 637 1276 629.5 1325 c 128,-1,27
 622 1374 622 1374 607.5 1408.5 c 0,28,29
 577.029 1481 577.029 1481 521.015 1481 c 128,-1,30
 465 1481 465 1481 426 1444 c 128,-1,31
 387 1407 387 1407 364 1351.5 c 128,-1,16
 341 1296 341 1296 331.5 1229.5 c 128,-1,17
EndSplineSet
EndChar

StartChar: percent
Encoding: 37 37 144
Width: 1911
Flags: HW
LayerCount: 2
Fore
SplineSet
1314 1530 m 1,0,-1
 1533 1530 l 1,1,-1
 586 0 l 1,2,-1
 367 0 l 1,3,-1
 1314 1530 l 1,0,-1
648.5 774.5 m 128,-1,5
 567 735 567 735 480.5 735 c 128,-1,6
 394 735 394 735 336.5 760 c 128,-1,7
 279 785 279 785 240 828.5 c 0,8,9
 160 917.731 160 917.731 160 1055 c 0,10,11
 160 1218.36 160 1218.36 282.5 1352 c 0,12,13
 409 1490 409 1490 593 1490 c 0,14,15
 745.146 1490 745.146 1490 831 1402 c 0,16,17
 910 1321.03 910 1321.03 910 1185 c 0,18,19
 910 1012.62 910 1012.62 788 878 c 0,20,4
 730 814 730 814 648.5 774.5 c 128,-1,5
391 1057 m 256,21,22
 391 848 391 848 497 848 c 0,23,24
 576.049 848 576.049 848 626.5 966.5 c 0,25,26
 670 1068.67 670 1068.67 670 1177 c 0,27,28
 670 1378 670 1378 565 1378 c 0,29,30
 485.485 1378 485.485 1378 434 1264.5 c 0,31,32
 391 1169.7 391 1169.7 391 1057 c 256,21,22
1017 370.5 m 0,33,34
 1017 430 1017 430 1031.5 483 c 128,-1,35
 1046 536 1046 536 1073.5 584 c 128,-1,36
 1101 632 1101 632 1139.5 674 c 128,-1,37
 1178 716 1178 716 1226 746.5 c 0,38,39
 1329.08 812 1329.08 812 1429.04 812 c 128,-1,40
 1529 812 1529 812 1588.5 788.5 c 128,-1,41
 1648 765 1648 765 1688 724 c 0,42,43
 1767 643.025 1767 643.025 1767 507 c 0,44,45
 1767 334.621 1767 334.621 1645 200 c 0,46,47
 1515.41 57 1515.41 57 1325 57 c 0,48,49
 1180.83 57 1180.83 57 1097 150.5 c 0,50,51
 1017 239.731 1017 239.731 1017 370.5 c 0,33,34
1527 499 m 0,52,53
 1527 700 1527 700 1422 700 c 0,54,55
 1342.48 700 1342.48 700 1291 586.5 c 0,56,57
 1248 491.705 1248 491.705 1248 379 c 256,58,59
 1248 170 1248 170 1354 170 c 0,60,61
 1433.05 170 1433.05 170 1483.5 288.5 c 0,62,63
 1527 390.674 1527 390.674 1527 499 c 0,52,53
EndSplineSet
Ligature2: "'frac' Diagonal Fractions in Latin lookup 10 subtable" zero slash zero
EndChar

StartChar: Oslash
Encoding: 216 216 145
Width: 1499
Flags: HW
LayerCount: 2
Fore
SplineSet
916 18 m 0,0,1
 800 -18 800 -18 631.737 -18 c 128,-1,2
 463.474 -18 463.474 -18 328 60 c 1,3,-1
 199 -122 l 1,4,-1
 110 -73 l 1,5,-1
 246 120 l 1,6,7
 55 293.636 55 293.636 55 639 c 0,8,9
 55 1011.6 55 1011.6 252.5 1268.5 c 0,10,11
 389.549 1446.77 389.549 1446.77 612.5 1516.5 c 0,12,13
 726 1552 726 1552 879.548 1552 c 128,-1,14
 1033.1 1552 1033.1 1552 1161 1487 c 1,15,-1
 1291 1670 l 1,16,-1
 1380 1621 l 1,17,-1
 1246 1432 l 1,18,19
 1465 1255.26 1465 1255.26 1465 895 c 0,20,21
 1465 520.631 1465 520.631 1277 269 c 0,22,23
 1141.83 88.0866 1141.83 88.0866 916 18 c 0,0,1
1017 1304 m 1,24,25
 957.067 1428 957.067 1428 838 1428 c 0,26,27
 650.649 1428 650.649 1428 539 1185 c 0,28,29
 436 960.824 436 960.824 436 651 c 0,30,31
 436 490.455 436 490.455 454 389 c 1,32,-1
 1017 1304 l 1,24,25
489 257 m 1,33,34
 548.87 104 548.87 104 684 104 c 0,35,36
 880.028 104 880.028 104 986.5 332 c 0,37,38
 1084 540.788 1084 540.788 1084 883 c 0,39,40
 1084 1059.77 1084 1059.77 1059 1179 c 1,41,-1
 489 257 l 1,33,34
EndSplineSet
EndChar

StartChar: ccedilla
Encoding: 231 231 151
Width: 944
Flags: HW
LayerCount: 2
Fore
SplineSet
155 -303 m 1,0,1
 184.714 -319 184.714 -319 227.857 -319 c 128,-1,2
 271 -319 271 -319 303.5 -311 c 128,-1,3
 336 -303 336 -303 360.5 -284.5 c 0,4,5
 416.889 -241.921 416.889 -241.921 416.889 -120.222 c 0,6,7
 416.889 -73.2222 416.889 -73.2222 409 -18 c 1,8,9
 162.446 0.491529 162.446 0.491529 87 255.5 c 0,10,11
 60.7895 344.092 60.7895 344.092 60.7895 444.046 c 128,-1,12
 60.7895 544 60.7895 544 76.8947 625 c 128,-1,13
 93 706 93 706 127.5 785.5 c 128,-1,14
 162 865 162 865 215.5 934 c 128,-1,15
 269 1003 269 1003 341.5 1053.5 c 0,16,17
 498.703 1163 498.703 1163 707 1163 c 0,18,19
 868 1163 868 1163 963 1125 c 1,20,-1
 870 803 l 1,21,22
 849.047 809.447 849.047 809.447 815.024 847.724 c 2,23,-1
 759 911 l 2,24,25
 675.4 1006 675.4 1006 634.7 1006 c 128,-1,26
 594 1006 594 1006 551.5 966 c 0,27,28
 459.958 879.843 459.958 879.843 419.5 681.5 c 0,29,30
 401.617 593.83 401.617 593.83 401.617 534.638 c 128,-1,31
 401.617 475.447 401.617 475.447 402.809 428.223 c 128,-1,32
 404 381 404 381 415 326 c 128,-1,33
 426 271 426 271 447.5 236 c 0,34,35
 488.657 169 488.657 169 577 169 c 0,36,37
 732.538 169 732.538 169 831 297 c 1,38,-1
 895 194 l 1,39,40
 829.724 90.3259 829.724 90.3259 690.5 29.5 c 0,41,42
 639 7 639 7 578 -6 c 1,43,44
 616 -110.5 616 -110.5 616 -238 c 0,45,46
 616 -484 616 -484 318 -484 c 0,47,48
 235.8 -484 235.8 -484 181.9 -473 c 128,-1,49
 128 -462 128 -462 120 -456 c 1,50,-1
 155 -303 l 1,0,1
EndSplineSet
EndChar

StartChar: oe
Encoding: 339 339 190
Width: 1744
Flags: HW
LayerCount: 2
Fore
SplineSet
873 100 m 1,0,1
 713 -20 713 -20 500 -20 c 0,2,3
 183.713 -20 183.713 -20 94 244.5 c 0,4,5
 60.2558 343.987 60.2558 343.987 60.2558 449.052 c 128,-1,6
 60.2558 554.116 60.2558 554.116 76.1279 637.558 c 128,-1,7
 92 721 92 721 128.5 801.5 c 128,-1,8
 165 882 165 882 219.5 948.5 c 128,-1,9
 274 1015 274 1015 345.5 1062.5 c 0,10,11
 496.779 1163 496.779 1163 703.685 1163 c 128,-1,12
 910.591 1163 910.591 1163 1019 1028 c 1,13,14
 1187.23 1163 1187.23 1163 1406 1163 c 0,15,16
 1648.57 1163 1648.57 1163 1713.5 1011.5 c 0,17,18
 1735.3 960.633 1735.3 960.633 1735.3 892.042 c 128,-1,19
 1735.3 823.45 1735.3 823.45 1709.65 761.225 c 128,-1,20
 1684 699 1684 699 1636 649 c 128,-1,21
 1588 599 1588 599 1524.5 562.5 c 128,-1,22
 1461 526 1461 526 1391 503 c 0,23,24
 1251.46 457.15 1251.46 457.15 1116 455 c 1,25,26
 1116 299 1116 299 1166 229 c 128,-1,27
 1216 159 1216 159 1303 159 c 0,28,29
 1481 159 1481 159 1601 315 c 1,30,-1
 1665 212 l 1,31,32
 1572.48 66.6087 1572.48 66.6087 1369 4 c 0,33,34
 1291 -20 1291 -20 1195 -20 c 0,35,36
 986.455 -20 986.455 -20 873 100 c 1,0,1
1332 1025 m 0,37,38
 1145.35 1025 1145.35 1025 1116 575 c 1,39,40
 1221.93 582.222 1221.93 582.222 1311.5 659 c 0,41,42
 1414.27 747.091 1414.27 747.091 1414.27 886.045 c 128,-1,43
 1414.27 1025 1414.27 1025 1332 1025 c 0,37,38
486.5 127.5 m 0,44,45
 510 107 510 107 549.5 107 c 128,-1,46
 589 107 589 107 624 131.5 c 128,-1,47
 659 156 659 156 685 199 c 0,48,49
 735.856 283.109 735.856 283.109 757 429 c 1,50,-1
 757 430 l 2,51,52
 756.8 439 756.8 439 756.8 461.15 c 0,53,54
 756.8 521.1 756.8 521.1 772 599 c 1,55,56
 772.2 618.4 772.2 618.4 772.2 665.1 c 128,-1,57
 772.2 711.8 772.2 711.8 768.6 782.9 c 128,-1,58
 765 854 765 854 751.5 909.5 c 0,59,60
 723.405 1025 723.405 1025 650 1025 c 0,61,62
 526.462 1025 526.462 1025 463.5 822.5 c 0,63,64
 417.333 674.018 417.333 674.018 417.333 473.611 c 0,65,66
 417.333 187.837 417.333 187.837 486.5 127.5 c 0,44,45
EndSplineSet
EndChar

StartChar: daggerdbl
Encoding: 8225 8225 191
Width: 816
Flags: HW
LayerCount: 2
Fore
SplineSet
271 487 m 1,0,-1
 315 606 l 1,1,-1
 97 606 l 1,2,-1
 130 800 l 1,3,-1
 351 800 l 1,4,-1
 344 981 l 1,5,-1
 391 1107 l 1,6,-1
 121 1107 l 1,7,-1
 150 1298 l 1,8,-1
 441 1298 l 1,9,-1
 441 1469 l 1,10,-1
 460 1646 l 1,11,-1
 711 1646 l 1,12,-1
 683 1469 l 1,13,-1
 626 1298 l 1,14,-1
 908 1298 l 1,15,-1
 880 1107 l 1,16,-1
 620 1107 l 1,17,-1
 623 981 l 1,18,-1
 547 800 l 1,19,-1
 791 800 l 1,20,-1
 762 606 l 1,21,-1
 545 606 l 1,22,-1
 540 487 l 1,23,-1
 429 -51 l 1,24,-1
 251 -51 l 1,25,-1
 271 487 l 1,0,-1
EndSplineSet
EndChar

StartChar: Euro
Encoding: 8364 8364 192
Width: 1388
Flags: HW
LayerCount: 2
Fore
SplineSet
235 695 m 1,0,1
 239.081 811.294 239.081 811.294 258 904 c 1,2,-1
 110 904 l 1,3,-1
 129 1054 l 1,4,-1
 297 1054 l 1,5,6
 383.531 1298.21 383.531 1298.21 578 1427.5 c 0,7,8
 756.24 1546 756.24 1546 991 1546 c 0,9,10
 1133.53 1546 1133.53 1546 1247.5 1510.5 c 1,11,-1
 1305 1492 l 2,12,13
 1314 1489 1314 1489 1328.5 1486.5 c 128,-1,14
 1343 1484 1343 1484 1358.5 1481 c 2,15,-1
 1387.5 1475.5 l 2,16,17
 1401 1473 1401 1473 1407 1472 c 1,18,-1
 1341 1120 l 1,19,-1
 1207 1120 l 1,20,-1
 1187 1328 l 1,21,22
 1100.33 1406 1100.33 1406 947 1406 c 0,23,24
 782.908 1406 782.908 1406 683 1201.5 c 0,25,26
 651 1136 651 1136 628 1054 c 1,27,-1
 1055 1054 l 1,28,-1
 1037 904 l 1,29,-1
 597 904 l 1,30,31
 580.954 805.72 580.954 805.72 577 695 c 1,32,-1
 980 695 l 1,33,-1
 967 544 l 1,34,-1
 577 544 l 1,35,36
 587 346 587 346 649.5 246.5 c 128,-1,37
 712 147 712 147 813 147 c 0,38,39
 936.75 147 936.75 147 995.5 194 c 0,40,41
 1013 208 1013 208 1028 225 c 1,42,-1
 1100 413 l 1,43,-1
 1240 412 l 1,44,-1
 1190 70 l 1,45,46
 1079.28 62.6187 1079.28 62.6187 1012.14 38.3093 c 128,-1,47
 945 14 945 14 911 5 c 0,48,49
 831.667 -16 831.667 -16 725.333 -16 c 128,-1,50
 619 -16 619 -16 527.5 25 c 128,-1,51
 436 66 436 66 375 140 c 0,52,53
 258.023 281.907 258.023 281.907 239 544 c 1,54,-1
 38 544 l 1,55,-1
 55 695 l 1,56,-1
 235 695 l 1,0,1
EndSplineSet
EndChar

StartChar: infinity
Encoding: 8734 8734 193
Width: 2418
Flags: HW
LayerCount: 2
Fore
SplineSet
195 599.5 m 0,0,1
 195 705 195 705 232.5 801.5 c 128,-1,2
 270 898 270 898 339 968.5 c 0,3,4
 486.298 1119 486.298 1119 716 1119 c 0,5,6
 950.28 1119 950.28 1119 1126.5 941 c 0,7,8
 1176 891 1176 891 1220 839 c 1,9,10
 1447.17 1119 1447.17 1119 1736 1119 c 0,11,12
 1934.78 1119 1934.78 1119 2076.5 989 c 0,13,14
 2224.1 853.604 2224.1 853.604 2224.1 652.893 c 0,15,16
 2224.1 424.218 2224.1 424.218 2084.5 278.5 c 0,17,18
 1939.36 127 1939.36 127 1702 127 c 0,19,20
 1466.85 127 1466.85 127 1293.5 307.5 c 0,21,22
 1245 358 1245 358 1202 411 c 1,23,24
 1098.9 280.894 1098.9 280.894 1016.95 228.447 c 0,25,26
 858.438 127 858.438 127 682 127 c 0,27,28
 483 127 483 127 340.5 262 c 0,29,30
 195 399.842 195 399.842 195 599.5 c 0,0,1
530 815 m 0,31,32
 503 775 503 775 489.25 730.083 c 128,-1,33
 475.5 685.167 475.5 685.167 475.5 634.526 c 128,-1,34
 475.5 583.885 475.5 583.885 496.75 529.942 c 128,-1,35
 518 476 518 476 554 438.5 c 0,36,37
 633.2 356 633.2 356 762 356 c 0,38,39
 930.57 356 930.57 356 1079 559 c 1,40,-1
 1035.5 630 l 1,41,42
 946.352 780.561 946.352 780.561 858 844.5 c 0,43,44
 774.4 905 774.4 905 673 905 c 0,45,46
 590.75 905 590.75 905 530 815 c 0,31,32
1346 696 m 1,47,-1
 1395.5 623 l 1,48,49
 1588.95 331 1588.95 331 1794 331 c 0,50,51
 1871.13 331 1871.13 331 1918.5 411 c 0,52,53
 1961.62 483.826 1961.62 483.826 1961.62 591.38 c 0,54,55
 1961.62 802.846 1961.62 802.846 1795.5 876 c 0,56,57
 1741 900 1741 900 1680.5 900 c 128,-1,58
 1620 900 1620 900 1577.5 885.5 c 128,-1,59
 1535 871 1535 871 1495.5 844 c 0,60,61
 1418.63 791.455 1418.63 791.455 1346 696 c 1,47,-1
EndSplineSet
EndChar

StartChar: lessequal
Encoding: 8804 8804 194
Width: 1364
Flags: HW
LayerCount: 2
Fore
SplineSet
207 767 m 1,0,-1
 1205 1204 l 1,1,-1
 1177 971 l 1,2,-1
 554 725 l 1,3,-1
 1121 478 l 1,4,-1
 1094 246 l 1,5,-1
 198 689 l 1,6,-1
 207 767 l 1,0,-1
161 170 m 1,7,-1
 1109 170 l 1,8,-1
 1088 0 l 1,9,-1
 140 0 l 1,10,-1
 161 170 l 1,7,-1
EndSplineSet
EndChar

StartChar: greaterequal
Encoding: 8805 8805 195
Width: 1364
Flags: HW
LayerCount: 2
Fore
SplineSet
230 484 m 1,0,-1
 853 730 l 1,1,-1
 286 977 l 1,2,-1
 313 1209 l 1,3,-1
 1208 767 l 1,4,-1
 1200 689 l 1,5,-1
 197 246 l 1,6,-1
 230 484 l 1,0,-1
161 170 m 1,7,-1
 1109 170 l 1,8,-1
 1088 0 l 1,9,-1
 140 0 l 1,10,-1
 161 170 l 1,7,-1
EndSplineSet
EndChar

StartChar: partialdiff
Encoding: 8706 8706 196
Width: 1364
Flags: HW
LayerCount: 2
Fore
SplineSet
254 1551 m 1,0,1
 415.824 1682 415.824 1682 645 1682 c 0,2,3
 865 1682 865 1682 1013.5 1555.5 c 0,4,5
 1197.58 1398.69 1197.58 1398.69 1242.5 1104 c 0,6,7
 1255 1022 1255 1022 1255 933.5 c 128,-1,8
 1255 845 1255 845 1243.5 732 c 128,-1,9
 1232 619 1232 619 1203.5 510.5 c 128,-1,10
 1175 402 1175 402 1127 305 c 128,-1,11
 1079 208 1079 208 1006 135 c 0,12,13
 847 -24 847 -24 597 -24 c 0,14,15
 361.859 -24 361.859 -24 235.5 131 c 0,16,17
 132.667 257.142 132.667 257.142 132.667 430.931 c 0,18,19
 132.667 568.346 132.667 568.346 176.333 683.173 c 128,-1,20
 220 798 220 798 294.5 871.5 c 0,21,22
 447.048 1022 447.048 1022 727 1022 c 0,23,24
 853.348 1022 853.348 1022 959 968 c 1,25,26
 941.277 1350.82 941.277 1350.82 751 1474.5 c 0,27,28
 681 1520 681 1520 580 1520 c 0,29,30
 501.241 1520 501.241 1520 451.121 1494.5 c 128,-1,31
 401 1469 401 1469 365 1446 c 1,32,-1
 254 1551 l 1,0,1
957 789 m 1,33,34
 863 863 863 863 679 863 c 0,35,36
 594.172 863 594.172 863 524 780.5 c 0,37,38
 429.25 669.105 429.25 669.105 429.25 466.938 c 0,39,40
 429.25 256.305 429.25 256.305 530.5 159 c 0,41,42
 569 122 569 122 621 122 c 128,-1,43
 673 122 673 122 712.5 143.5 c 128,-1,44
 752 165 752 165 784.5 202.5 c 128,-1,45
 817 240 817 240 843 290.5 c 128,-1,46
 869 341 869 341 889 399 c 0,47,48
 944.641 560.359 944.641 560.359 957 789 c 1,33,34
EndSplineSet
EndChar

StartChar: summation
Encoding: 8721 8721 197
Width: 1583
Flags: HW
LayerCount: 2
Fore
SplineSet
678 670 m 1,0,-1
 227 1356 l 1,1,-1
 235 1553 l 1,2,-1
 1309 1553 l 1,3,-1
 1342 1163 l 1,4,-1
 1163 1163 l 1,5,-1
 1074 1371 l 1,6,-1
 570 1402 l 1,7,-1
 1037 713 l 1,8,-1
 537 -10 l 1,9,-1
 1085 24 l 1,10,-1
 1220 262 l 1,11,-1
 1403 225 l 1,12,-1
 1329 -180 l 1,13,-1
 215 -179 l 1,14,-1
 207 -15 l 1,15,-1
 678 670 l 1,0,-1
EndSplineSet
EndChar

StartChar: product
Encoding: 8719 8719 198
Width: 1982
Flags: HW
LayerCount: 2
Fore
SplineSet
386 -24 m 1,0,-1
 385 1394 l 1,1,-1
 185 1420 l 1,2,-1
 185 1552 l 1,3,-1
 1833 1552 l 1,4,-1
 1833 1420 l 1,5,-1
 1623 1393 l 1,6,-1
 1623 -24 l 1,7,-1
 1823 -69 l 1,8,-1
 1823 -177 l 1,9,-1
 1082 -177 l 1,10,-1
 1082 -69 l 1,11,-1
 1278 -27 l 1,12,-1
 1278 1420 l 1,13,-1
 730 1420 l 1,14,-1
 730 -25 l 1,15,-1
 918 -67 l 1,16,-1
 918 -177 l 1,17,-1
 195 -177 l 1,18,-1
 195 -67 l 1,19,-1
 386 -24 l 1,0,-1
EndSplineSet
EndChar

StartChar: pi
Encoding: 960 960 199
Width: 1621
Flags: HW
LayerCount: 2
Fore
SplineSet
1232 1163 m 2,0,1
 1380.92 1163 1380.92 1163 1396 1278 c 1,2,-1
 1554 1278 l 1,3,4
 1554 1001.81 1554 1001.81 1393.5 901 c 0,5,6
 1333 863 1333 863 1240 863 c 2,7,-1
 1171 863 l 1,8,9
 1147.17 646.155 1147.17 646.155 1141.09 519.578 c 128,-1,10
 1135 393 1135 393 1132.5 359.5 c 128,-1,11
 1130 326 1130 326 1132.5 305.5 c 128,-1,12
 1135 285 1135 285 1143 269 c 0,13,14
 1160.5 234 1160.5 234 1206 234 c 0,15,16
 1252.53 234 1252.53 234 1277.76 256 c 0,17,18
 1328.15 299.927 1328.15 299.927 1355 393 c 1,19,-1
 1509 393 l 1,20,21
 1470.09 110.007 1470.09 110.007 1268 14.5 c 0,22,23
 1195 -20 1195 -20 1086 -20 c 128,-1,24
 977 -20 977 -20 910.5 40 c 128,-1,25
 844 100 844 100 844 193 c 128,-1,26
 844 286 844 286 872.5 450.5 c 2,27,-1
 946 863 l 1,28,-1
 751 863 l 1,29,-1
 683 450 l 2,30,31
 642.385 200.772 642.385 200.772 520 79.5 c 0,32,33
 419.587 -20 419.587 -20 282 -20 c 1,34,-1
 75 174 l 1,35,36
 246.528 187.453 246.528 187.453 359 368 c 0,37,38
 397 429 397 429 420 509 c 2,39,-1
 523 863 l 1,40,-1
 389 863 l 2,41,42
 318.455 863 318.455 863 277 787 c 0,43,44
 265 765 265 765 258 741 c 1,45,-1
 122 754 l 1,46,47
 122 929.6 122 929.6 144.5 983.3 c 128,-1,48
 167 1037 167 1037 197.5 1069.5 c 128,-1,49
 228 1102 228 1102 265.5 1123 c 0,50,51
 336.929 1163 336.929 1163 428 1163 c 2,52,-1
 1232 1163 l 2,0,1
EndSplineSet
EndChar

StartChar: integral
Encoding: 8747 8747 200
Width: 1309
Flags: HW
LayerCount: 2
Fore
SplineSet
229 -176 m 1,0,1
 250.5 -251.25 250.5 -251.25 331 -291.5 c 0,2,3
 356 -304 356 -304 386.5 -304 c 128,-1,4
 417 -304 417 -304 450 -293 c 128,-1,5
 483 -282 483 -282 508.5 -249.5 c 0,6,7
 566 -176.216 566 -176.216 566 -12.6078 c 128,-1,8
 566 151 566 151 541.5 292.5 c 128,-1,9
 517 434 517 434 487.5 574 c 128,-1,10
 458 714 458 714 433.5 855.5 c 128,-1,11
 409 997 409 997 409 1133 c 128,-1,12
 409 1269 409 1269 448.5 1373 c 128,-1,13
 488 1477 488 1477 557.5 1552.5 c 0,14,15
 705.245 1713 705.245 1713 928 1713 c 0,16,17
 1081.74 1713 1081.74 1713 1179.5 1643 c 0,18,19
 1220 1614 1220 1614 1247 1566 c 1,20,-1
 1078 1427 l 1,21,22
 1056.33 1502.83 1056.33 1502.83 977 1542.5 c 0,23,24
 952 1555 952 1555 921.5 1555 c 128,-1,25
 891 1555 891 1555 858 1544 c 128,-1,26
 825 1533 825 1533 798.5 1500.5 c 0,27,28
 740 1428.75 740 1428.75 740 1264.38 c 128,-1,29
 740 1100 740 1100 763.5 957 c 128,-1,30
 787 814 787 814 815 672.5 c 128,-1,31
 843 531 843 531 866.5 388 c 128,-1,32
 890 245 890 245 890 108.5 c 128,-1,33
 890 -28 890 -28 852 -132 c 128,-1,34
 814 -236 814 -236 746.5 -311.5 c 0,35,36
 603.007 -472 603.007 -472 380 -472 c 0,37,38
 142.688 -472 142.688 -472 60 -325 c 1,39,-1
 229 -176 l 1,0,1
EndSplineSet
EndChar

StartChar: Omega
Encoding: 8486 8486 201
Width: 1684
Flags: HW
LayerCount: 2
Fore
SplineSet
-76 440 m 1,0,-1
 104 416 l 1,1,-1
 129 181 l 1,2,-1
 419 181 l 1,3,4
 247.827 355.667 247.827 355.667 179 620.5 c 0,5,6
 156 709 156 709 156 830 c 128,-1,7
 156 951 156 951 196.5 1087 c 128,-1,8
 237 1223 237 1223 328.5 1326 c 0,9,10
 526.602 1549 526.602 1549 925 1549 c 0,11,12
 1208.72 1549 1208.72 1549 1370.5 1403.5 c 0,13,14
 1535 1255.55 1535 1255.55 1535 987 c 0,15,16
 1535 780.847 1535 780.847 1435 563.5 c 0,17,18
 1328.28 331.551 1328.28 331.551 1155 191 c 1,19,-1
 1423 191 l 1,20,-1
 1429 185 l 1,21,-1
 1501 440 l 1,22,-1
 1689 440 l 1,23,-1
 1620 0 l 1,24,-1
 907 0 l 1,25,-1
 847 149 l 1,26,27
 1000.8 245.617 1000.8 245.617 1093 462.5 c 0,28,29
 1184 676.557 1184 676.557 1184 938 c 0,30,31
 1184 1115.78 1184 1115.78 1121.5 1250.5 c 0,32,33
 1074.27 1352.31 1074.27 1352.31 985 1395 c 0,34,35
 939 1417 939 1417 856 1417 c 128,-1,36
 773 1417 773 1417 699 1365 c 128,-1,37
 625 1313 625 1313 578.5 1226 c 0,38,39
 490 1060.42 490 1060.42 490 793 c 0,40,41
 490 554 490 554 607.5 301.5 c 0,42,43
 655.306 198.767 655.306 198.767 703 149 c 1,44,-1
 633 0 l 1,45,-1
 -76 0 l 1,46,-1
 -76 440 l 1,0,-1
EndSplineSet
EndChar

StartChar: radical
Encoding: 8730 8730 202
Width: 1587
Flags: HW
LayerCount: 2
Fore
SplineSet
62 578 m 1,0,-1
 291 749 l 1,1,-1
 507 749 l 1,2,-1
 693 -56 l 1,3,-1
 1400 1917 l 1,4,-1
 1723 1917 l 1,5,-1
 812 -373 l 1,6,-1
 554 -373 l 1,7,-1
 296 483 l 1,8,9
 159 410 l 1,10,-1
 62 578 l 1,0,-1
EndSplineSet
EndChar

StartChar: Delta
Encoding: 8710 8710 204
Width: 1407
Flags: HW
LayerCount: 2
Fore
SplineSet
-53 22 m 1,0,-1
 711 1508 l 1,1,-1
 783 1508 l 1,2,-1
 1352 27 l 1,3,-1
 1335 0 l 1,4,-1
 -41 0 l 1,5,-1
 -53 22 l 1,0,-1
960 252 m 1,6,-1
 666 1053 l 1,7,-1
 268 252 l 1,8,-1
 960 252 l 1,6,-1
EndSplineSet
EndChar

StartChar: v
Encoding: 118 118 205
Width: 1083
Flags: HW
LayerCount: 2
Fore
SplineSet
324 -21 m 1,0,-1
 122 925 l 1,1,2
 102.56 1025.44 102.56 1025.44 4 948 c 1,3,-1
 -25 1028 l 1,4,5
 33.4755 1103.18 33.4755 1103.18 143.5 1145.5 c 0,6,7
 189 1163 189 1163 261.5 1163 c 128,-1,8
 334 1163 334 1163 383 1127.5 c 128,-1,9
 432 1092 432 1092 443 1026 c 1,10,-1
 549 455 l 1,11,-1
 578 239 l 1,12,-1
 652 367 l 1,13,-1
 705 471.5 l 1,14,15
 788 642.48 788 642.48 788 802 c 0,16,17
 788 838.385 788 838.385 776.5 889.692 c 0,18,19
 755 985.615 755 985.615 755 1019.81 c 128,-1,20
 755 1054 755 1054 765 1079.5 c 128,-1,21
 775 1105 775 1105 795 1123.5 c 0,22,23
 837.703 1163 837.703 1163 902.851 1163 c 128,-1,24
 968 1163 968 1163 1002 1144.5 c 128,-1,25
 1036 1126 1036 1126 1054.5 1095.5 c 0,26,27
 1086.07 1043.45 1086.07 1043.45 1086.07 970.33 c 128,-1,28
 1086.07 897.207 1086.07 897.207 1073.03 844.103 c 128,-1,29
 1060 791 1060 791 1037 732.5 c 128,-1,30
 1014 674 1014 674 983 613 c 128,-1,31
 952 552 952 552 917 494 c 0,32,33
 847.714 379.184 847.714 379.184 772 284 c 1,34,-1
 516 -9 l 1,35,-1
 324 -21 l 1,0,-1
EndSplineSet
EndChar

StartChar: ellipsis
Encoding: 8230 8230 206
Width: 1578
Flags: HW
LayerCount: 2
Fore
SplineSet
1099 77 m 0,0,1
 1088 106 1088 106 1088 147 c 128,-1,2
 1088 188 1088 188 1105 225 c 128,-1,3
 1122 262 1122 262 1149.5 288 c 0,4,5
 1205.56 341 1205.56 341 1279 341 c 0,6,7
 1349.8 341 1349.8 341 1390.5 291.5 c 0,8,9
 1427 247.108 1427 247.108 1427 188.054 c 128,-1,10
 1427 129 1427 129 1409 91.5 c 128,-1,11
 1391 54 1391 54 1362 29 c 0,12,13
 1305.16 -20 1305.16 -20 1225 -20 c 0,14,15
 1135.79 -20 1135.79 -20 1099 77 c 0,0,1
573 77 m 0,16,17
 562 106 562 106 562 147 c 128,-1,18
 562 188 562 188 579 225 c 128,-1,19
 596 262 596 262 623.5 288 c 0,20,21
 679.558 341 679.558 341 753 341 c 0,22,23
 823.8 341 823.8 341 864.5 291.5 c 0,24,25
 901 247.108 901 247.108 901 188.054 c 128,-1,26
 901 129 901 129 883 91.5 c 128,-1,27
 865 54 865 54 836 29 c 0,28,29
 779.16 -20 779.16 -20 699 -20 c 0,30,31
 609.793 -20 609.793 -20 573 77 c 0,16,17
47 77 m 0,32,33
 36 106 36 106 36 147 c 128,-1,34
 36 188 36 188 53 225 c 128,-1,35
 70 262 70 262 97.5 288 c 0,36,37
 153.558 341 153.558 341 227 341 c 0,38,39
 297.8 341 297.8 341 338.5 291.5 c 0,40,41
 375 247.108 375 247.108 375 188.054 c 128,-1,42
 375 129 375 129 357 91.5 c 128,-1,43
 339 54 339 54 310 29 c 0,44,45
 253.16 -20 253.16 -20 173 -20 c 0,46,47
 83.7931 -20 83.7931 -20 47 77 c 0,32,33
EndSplineSet
EndChar

StartChar: perthousand
Encoding: 8240 8240 207
Width: 2718
Flags: HW
LayerCount: 2
Fore
SplineSet
1814 370.5 m 0,0,1
 1814 430 1814 430 1828.5 483 c 128,-1,2
 1843 536 1843 536 1870.5 584 c 128,-1,3
 1898 632 1898 632 1936.5 674 c 128,-1,4
 1975 716 1975 716 2023 746.5 c 0,5,6
 2126.08 812 2126.08 812 2226.04 812 c 128,-1,7
 2326 812 2326 812 2385.5 788.5 c 128,-1,8
 2445 765 2445 765 2485 724 c 0,9,10
 2564 643.025 2564 643.025 2564 507 c 0,11,12
 2564 334.621 2564 334.621 2442 200 c 0,13,14
 2312.41 57 2312.41 57 2122 57 c 0,15,16
 1977.83 57 1977.83 57 1894 150.5 c 0,17,18
 1814 239.731 1814 239.731 1814 370.5 c 0,0,1
2324 499 m 0,19,20
 2324 700 2324 700 2219 700 c 0,21,22
 2139.48 700 2139.48 700 2088 586.5 c 0,23,24
 2045 491.705 2045 491.705 2045 379 c 256,25,26
 2045 170 2045 170 2151 170 c 0,27,28
 2230.05 170 2230.05 170 2280.5 288.5 c 0,29,30
 2324 390.674 2324 390.674 2324 499 c 0,19,20
1314 1530 m 1,31,-1
 1533 1530 l 1,32,-1
 586 0 l 1,33,-1
 367 0 l 1,34,-1
 1314 1530 l 1,31,-1
648.5 774.5 m 128,-1,36
 567 735 567 735 480.5 735 c 128,-1,37
 394 735 394 735 336.5 760 c 128,-1,38
 279 785 279 785 240 828.5 c 0,39,40
 160 917.731 160 917.731 160 1055 c 0,41,42
 160 1218.36 160 1218.36 282.5 1352 c 0,43,44
 409 1490 409 1490 593 1490 c 0,45,46
 745.146 1490 745.146 1490 831 1402 c 0,47,48
 910 1321.03 910 1321.03 910 1185 c 0,49,50
 910 1012.62 910 1012.62 788 878 c 0,51,35
 730 814 730 814 648.5 774.5 c 128,-1,36
391 1057 m 256,52,53
 391 848 391 848 497 848 c 0,54,55
 576.049 848 576.049 848 626.5 966.5 c 0,56,57
 670 1068.67 670 1068.67 670 1177 c 0,58,59
 670 1378 670 1378 565 1378 c 0,60,61
 485.485 1378 485.485 1378 434 1264.5 c 0,62,63
 391 1169.7 391 1169.7 391 1057 c 256,52,53
1017 370.5 m 0,64,65
 1017 430 1017 430 1031.5 483 c 128,-1,66
 1046 536 1046 536 1073.5 584 c 128,-1,67
 1101 632 1101 632 1139.5 674 c 128,-1,68
 1178 716 1178 716 1226 746.5 c 0,69,70
 1329.08 812 1329.08 812 1429.04 812 c 128,-1,71
 1529 812 1529 812 1588.5 788.5 c 128,-1,72
 1648 765 1648 765 1688 724 c 0,73,74
 1767 643.025 1767 643.025 1767 507 c 0,75,76
 1767 334.621 1767 334.621 1645 200 c 0,77,78
 1515.41 57 1515.41 57 1325 57 c 0,79,80
 1180.83 57 1180.83 57 1097 150.5 c 0,81,82
 1017 239.731 1017 239.731 1017 370.5 c 0,64,65
1527 499 m 0,83,84
 1527 700 1527 700 1422 700 c 0,85,86
 1342.48 700 1342.48 700 1291 586.5 c 0,87,88
 1248 491.705 1248 491.705 1248 379 c 256,89,90
 1248 170 1248 170 1354 170 c 0,91,92
 1433.05 170 1433.05 170 1483.5 288.5 c 0,93,94
 1527 390.674 1527 390.674 1527 499 c 0,83,84
EndSplineSet
Ligature2: "'frac' Diagonal Fractions in Latin lookup 10 subtable" zero slash zero zero
EndChar

StartChar: florin
Encoding: 402 402 208
Width: 1058
Flags: HW
LayerCount: 2
Fore
SplineSet
880 1690 m 0,0,1
 1038.33 1690 1038.33 1690 1078 1673 c 1,2,-1
 1062 1433 l 1,3,4
 1053 1437 1053 1437 1042 1443.5 c 128,-1,5
 1031 1450 1031 1450 1011.5 1457 c 0,6,7
 964.143 1474 964.143 1474 907.071 1474 c 128,-1,8
 850 1474 850 1474 819 1467.5 c 128,-1,9
 788 1461 788 1461 760 1440.5 c 0,10,11
 695.418 1393.22 695.418 1393.22 683 1285 c 2,12,-1
 667 1155 l 1,13,-1
 921 1155 l 1,14,-1
 906 964 l 1,15,-1
 639 964 l 1,16,-1
 477 -356 l 1,17,-1
 179 -356 l 1,18,-1
 349 964 l 1,19,-1
 153 964 l 1,20,-1
 166 1099 l 1,21,-1
 368 1155 l 1,22,-1
 375 1203 l 2,23,24
 405.039 1411.4 405.039 1411.4 573 1557.5 c 0,25,26
 646 1621 646 1621 727.5 1655.5 c 128,-1,27
 809 1690 809 1690 880 1690 c 0,0,1
EndSplineSet
EndChar

StartChar: trademark
Encoding: 8482 8482 211
Width: 2213
Flags: HW
LayerCount: 2
Fore
SplineSet
859 803 m 1,0,-1
 966 818 l 1,1,-1
 1078 1411 l 1,2,-1
 979 1420 l 1,3,-1
 991 1530 l 1,4,-1
 1354 1530 l 1,5,-1
 1451 1064 l 1,6,-1
 1481 932 l 1,7,-1
 1737 1530 l 1,8,-1
 2089 1530 l 1,9,-1
 2077 1420 l 1,10,-1
 1980 1411 l 1,11,-1
 1959 819 l 1,12,-1
 2055 803 l 1,13,-1
 2044 714 l 1,14,-1
 1671 714 l 1,15,-1
 1682 803 l 1,16,-1
 1778 819 l 1,17,-1
 1798 1191 l 1,18,-1
 1817 1414 l 1,19,-1
 1488 706 l 1,20,-1
 1356 706 l 1,21,-1
 1183 1417 l 1,22,-1
 1077 818 l 1,23,-1
 1170 803 l 1,24,-1
 1159 714 l 1,25,-1
 848 714 l 1,26,-1
 859 803 l 1,0,-1
211 803 m 1,27,-1
 337 818 l 1,28,-1
 422 1415 l 1,29,-1
 255 1400 l 1,30,-1
 196 1256 l 1,31,-1
 111 1255 l 1,32,-1
 163 1530 l 1,33,-1
 886 1530 l 1,34,-1
 854 1257 l 1,35,-1
 771 1252 l 1,36,-1
 762 1401 l 1,37,-1
 600 1417 l 1,38,-1
 515 819 l 1,39,-1
 645 803 l 1,40,-1
 634 714 l 1,41,-1
 200 714 l 1,42,-1
 211 803 l 1,27,-1
EndSplineSet
EndChar

StartChar: notequal
Encoding: 8800 8800 212
Width: 1026
Flags: HW
LayerCount: 2
Fore
SplineSet
260 309 m 1,0,-1
 76 309 l 1,1,-1
 99 506 l 1,2,-1
 345 506 l 1,3,-1
 488 838 l 1,4,-1
 149 838 l 1,5,-1
 172 1035 l 1,6,-1
 573 1035 l 1,7,-1
 698 1324 l 1,8,-1
 917 1324 l 1,9,-1
 792 1035 l 1,10,-1
 987 1035 l 1,11,-1
 964 838 l 1,12,-1
 707 838 l 1,13,-1
 564 506 l 1,14,-1
 914 506 l 1,15,-1
 891 309 l 1,16,-1
 479 309 l 1,17,-1
 346 0 l 1,18,-1
 127 0 l 1,19,-1
 260 309 l 1,0,-1
EndSplineSet
EndChar

StartChar: lozenge
Encoding: 9674 9674 224
Width: 1364
Flags: HW
LayerCount: 2
Fore
SplineSet
152 691 m 1,0,-1
 152 745 l 1,1,-1
 588 1446 l 1,2,-1
 775 1446 l 1,3,-1
 1211 745 l 1,4,-1
 1211 691 l 1,5,-1
 775 -10 l 1,6,-1
 588 -10 l 1,7,-1
 152 691 l 1,0,-1
953 718 m 1,8,-1
 681 1184 l 1,9,-1
 409 718 l 1,10,-1
 681 252 l 1,11,-1
 953 718 l 1,8,-1
EndSplineSet
EndChar

StartChar: Aring
Encoding: 197 197 239
Width: 1375
Flags: HW
LayerCount: 2
Fore
SplineSet
1196 1791 m 0,0,1
 1196 1600.67 1196 1600.67 1014 1526 c 1,2,-1
 1261 138 l 1,3,-1
 1422 106 l 1,4,-1
 1416 0 l 1,5,-1
 727 0 l 1,6,-1
 732 106 l 1,7,-1
 889 135 l 1,8,-1
 849 416 l 1,9,-1
 339 416 l 1,10,-1
 214 136 l 1,11,-1
 402 106 l 1,12,-1
 394 0 l 1,13,-1
 -164 0 l 1,14,-1
 -156 106 l 1,15,-1
 -18 135 l 1,16,-1
 660 1515 l 1,17,18
 507 1568.12 507 1568.12 507 1721 c 0,19,20
 507 1879.19 507 1879.19 642 1956 c 0,21,22
 743.939 2014 743.939 2014 893 2014 c 0,23,24
 1106.54 2014 1106.54 2014 1173.5 1889 c 0,25,26
 1196 1847 1196 1847 1196 1791 c 0,0,1
838 1630 m 0,27,28
 1003 1630 1003 1630 1003 1763 c 0,29,30
 1003 1814.35 1003 1814.35 961.5 1848 c 0,31,32
 924.5 1878 924.5 1878 881.75 1878 c 128,-1,33
 839 1878 839 1878 809.5 1872 c 128,-1,34
 780 1866 780 1866 756 1851 c 0,35,36
 701 1816.62 701 1816.62 701 1744 c 0,37,38
 701 1666.57 701 1666.57 788.5 1638 c 0,39,40
 813 1630 813 1630 838 1630 c 0,27,28
828 567 m 1,41,-1
 750 1117 l 1,42,-1
 741 1316 l 1,43,-1
 406 567 l 1,44,-1
 828 567 l 1,41,-1
EndSplineSet
EndChar

StartChar: OE
Encoding: 338 338 245
Width: 2340
Flags: HW
LayerCount: 2
Fore
SplineSet
1140 165 m 1,0,1
 957.176 -20 957.176 -20 645 -20 c 0,2,3
 344.226 -20 344.226 -20 193 168.5 c 0,4,5
 55 340.514 55 340.514 55 637 c 0,6,7
 55 1010.99 55 1010.99 247 1266.5 c 0,8,9
 380.935 1444.74 380.935 1444.74 603 1514.5 c 0,10,11
 716 1550 716 1550 855 1550 c 0,12,13
 1161.43 1550 1161.43 1550 1286 1332 c 1,14,-1
 1311 1530 l 1,15,-1
 2274 1530 l 1,16,-1
 2238 1160 l 1,17,-1
 2026 1160 l 1,18,-1
 1992 1384 l 1,19,-1
 1643 1410 l 1,20,-1
 1576 881 l 1,21,-1
 2020 905 l 1,22,-1
 1997 687 l 1,23,-1
 1556 712 l 1,24,-1
 1478 136 l 1,25,-1
 1957 171 l 1,26,-1
 2074 468 l 1,27,-1
 2287 454 l 1,28,-1
 2217 0 l 1,29,-1
 1120 0 l 1,30,-1
 1140 165 l 1,0,1
1074 881 m 0,31,32
 1074 1426 1074 1426 828 1426 c 0,33,34
 640.649 1426 640.649 1426 529 1183 c 0,35,36
 426 958.824 426 958.824 426 649 c 0,37,38
 426 102 426 102 674 102 c 0,39,40
 870.028 102 870.028 102 976.5 330 c 0,41,42
 1074 538.788 1074 538.788 1074 881 c 0,31,32
EndSplineSet
EndChar

StartChar: dotlessj
Encoding: 567 567 248
Width: 652
Flags: HW
LayerCount: 2
Fore
SplineSet
-212 -370 m 1,0,1
 -170 -382 -170 -382 -118.5 -382 c 128,-1,2
 -67 -382 -67 -382 -22.5 -345 c 128,-1,3
 22 -308 22 -308 49 -246.5 c 0,4,5
 90.2896 -152.451 90.2896 -152.451 115 65 c 2,6,-1
 220 980 l 1,7,-1
 54 1031 l 1,8,-1
 75 1112 l 1,9,-1
 526 1163 l 1,10,-1
 578 1139 l 1,11,-1
 441 0 l 1,12,13
 407.972 -252.565 407.972 -252.565 257.5 -394.5 c 0,14,15
 115.97 -528 115.97 -528 -79 -528 c 0,16,17
 -211.053 -528 -211.053 -528 -250 -491 c 1,18,-1
 -212 -370 l 1,0,1
EndSplineSet
EndChar

StartChar: currency
Encoding: 164 164 249
Width: 1540
Flags: HW
LayerCount: 2
Fore
SplineSet
1014 317 m 1,0,1
 907.065 252 907.065 252 784.618 252 c 128,-1,2
 662.172 252 662.172 252 557 313 c 1,3,-1
 346 102 l 1,4,-1
 204 243 l 1,5,-1
 412 451 l 1,6,7
 342 561.303 342 561.303 342 690 c 256,8,9
 342 816.625 342 816.625 410 925 c 1,10,-1
 201 1135 l 1,11,-1
 342 1277 l 1,12,-1
 553 1064 l 1,13,14
 661.8 1128 661.8 1128 786.248 1128 c 128,-1,15
 910.697 1128 910.697 1128 1021 1058 c 1,16,-1
 1228 1264 l 1,17,-1
 1369 1122 l 1,18,-1
 1160 913 l 1,19,20
 1222 808.241 1222 808.241 1222 686.214 c 128,-1,21
 1222 564.188 1222 564.188 1156 459 c 1,22,-1
 1367 248 l 1,23,-1
 1225 107 l 1,24,-1
 1014 317 l 1,0,1
576 690 m 256,25,26
 576 600.714 576 600.714 636 537.5 c 0,27,28
 696.271 474 696.271 474 782 474 c 256,29,30
 867.729 474 867.729 474 928 537.5 c 0,31,32
 988 600.714 988 600.714 988 690 c 256,33,34
 988 779.286 988 779.286 928 842.5 c 0,35,36
 867.729 906 867.729 906 782 906 c 256,37,38
 696.271 906 696.271 906 636 842.5 c 0,39,40
 576 779.286 576 779.286 576 690 c 256,25,26
EndSplineSet
EndChar

StartChar: brokenbar
Encoding: 166 166 250
Width: 854
Flags: HW
LayerCount: 2
Fore
SplineSet
340 1780 m 1,0,-1
 553 1780 l 1,1,-1
 553 916 l 1,2,-1
 340 916 l 1,3,-1
 340 1780 l 1,0,-1
340 678 m 1,4,-1
 553 678 l 1,5,-1
 553 -186 l 1,6,-1
 340 -186 l 1,7,-1
 340 678 l 1,4,-1
EndSplineSet
EndChar

StartChar: Eth
Encoding: 208 208 251
Width: 1506
Flags: HW
LayerCount: 2
Fore
SplineSet
-32 108 m 1,0,-1
 126 138 l 1,1,-1
 201 702 l 1,2,-1
 65 702 l 1,3,-1
 91 872 l 1,4,-1
 224 872 l 1,5,-1
 294 1396 l 1,6,-1
 150 1422 l 1,7,-1
 161 1532 l 1,8,-1
 478 1532 l 1,9,10
 563 1533 563 1533 654.5 1540.5 c 128,-1,11
 746 1548 746 1548 835 1548 c 2,12,13
 842.29 1548.02 l 2,14,15
 1176.93 1548.02 1176.93 1548.02 1342.5 1367.5 c 0,16,17
 1488 1208.86 1488 1208.86 1488 923 c 0,18,19
 1488 253.071 1488 253.071 1000 55 c 0,20,21
 830 -14 830 -14 592 -14 c 0,22,23
 566 -14 566 -14 533 -10 c 128,-1,24
 500 -6 500 -6 477 -4.5 c 128,-1,25
 454 -3 454 -3 427.5 -1.5 c 0,26,27
 365.667 2 365.667 2 324 2 c 2,28,-1
 -44 2 l 1,29,-1
 -32 108 l 1,0,-1
477 138 m 1,30,31
 542.909 113 542.909 113 623.955 113 c 128,-1,32
 705 113 705 113 778 147 c 128,-1,33
 851 181 851 181 906.5 238.5 c 128,-1,34
 962 296 962 296 1001 373 c 128,-1,35
 1040 450 1040 450 1064.5 536.5 c 0,36,37
 1111 700.673 1111 700.673 1111 865.337 c 128,-1,38
 1111 1030 1111 1030 1092.5 1131.5 c 128,-1,39
 1074 1233 1074 1233 1036 1297.5 c 0,40,41
 962.651 1422 962.651 1422 802 1422 c 0,42,43
 688.5 1422 688.5 1422 643 1396 c 1,44,-1
 574 872 l 1,45,-1
 870 872 l 1,46,-1
 844 702 l 1,47,-1
 551 702 l 1,48,-1
 477 138 l 1,30,31
EndSplineSet
EndChar

StartChar: multiply
Encoding: 215 215 252
Width: 1370
Flags: HW
LayerCount: 2
Fore
SplineSet
203 440 m 1,0,-1
 585 766 l 1,1,-1
 284 1093 l 1,2,-1
 447 1245 l 1,3,-1
 728 895 l 1,4,5
 1096 1244 l 1,6,-1
 1225 1090 l 1,7,-1
 843 764 l 1,8,-1
 1144 437 l 1,9,-1
 981 285 l 1,10,-1
 700 635 l 1,11,-1
 332 286 l 1,12,-1
 203 440 l 1,0,-1
EndSplineSet
EndChar

StartChar: Thorn
Encoding: 222 222 253
Width: 1290
Flags: HW
LayerCount: 2
Fore
SplineSet
867.5 404 m 128,-1,1
 762 382 762 382 648.75 382 c 128,-1,2
 535.5 382 535.5 382 510 385 c 1,3,-1
 479 136 l 1,4,-1
 653 106 l 1,5,-1
 645 0 l 1,6,-1
 -22 0 l 1,7,-1
 -11 106 l 1,8,-1
 127 136 l 1,9,-1
 287 1394 l 1,10,-1
 142 1420 l 1,11,-1
 156 1530 l 1,12,-1
 831 1530 l 1,13,-1
 819 1420 l 1,14,-1
 639 1394 l 1,15,-1
 614 1201 l 1,16,17
 736.667 1209 736.667 1209 844.333 1209 c 128,-1,18
 952 1209 952 1209 1044 1181 c 128,-1,19
 1136 1153 1136 1153 1188.5 1107 c 0,20,21
 1283.38 1023.87 1283.38 1023.87 1283.38 859.939 c 0,22,23
 1283.38 742.213 1283.38 742.213 1249.19 670.607 c 128,-1,24
 1215 599 1215 599 1168.5 549.5 c 128,-1,25
 1122 500 1122 500 1047.5 463 c 128,-1,0
 973 426 973 426 867.5 404 c 128,-1,1
953.327 835.879 m 0,26,27
 953.327 1083 953.327 1083 726 1083 c 0,28,29
 656.667 1083 656.667 1083 598 1072 c 1,30,-1
 527 519 l 1,31,32
 545 518.333 545 518.333 562.333 518.333 c 2,33,-1
 637 519 l 1,34,35
 861.445 519 861.445 519 931.5 702 c 0,36,37
 953.327 759.018 953.327 759.018 953.327 835.879 c 0,26,27
EndSplineSet
EndChar

StartChar: eth
Encoding: 240 240 254
Width: 1157
Flags: HW
LayerCount: 2
Fore
SplineSet
406 1794 m 1,0,1
 551.08 1752.89 551.08 1752.89 699 1653 c 1,2,-1
 796 1770 l 2,3,4
 821 1800 821 1800 843 1829 c 1,5,-1
 956 1728 l 1,6,-1
 812 1561 l 1,7,8
 1044.44 1337.28 1044.44 1337.28 1104.5 1004.5 c 0,9,10
 1123 902 1123 902 1123 762.5 c 128,-1,11
 1123 623 1123 623 1079.5 472.5 c 128,-1,12
 1036 322 1036 322 953.5 212.5 c 0,13,14
 778.329 -20 778.329 -20 480 -20 c 0,15,16
 271.255 -20 271.255 -20 151 137 c 0,17,18
 44 276.694 44 276.694 44 444.847 c 128,-1,19
 44 613 44 613 86 733.5 c 128,-1,20
 128 854 128 854 202 937.5 c 0,21,22
 354.874 1110 354.874 1110 600 1110 c 0,23,24
 731.667 1110 731.667 1110 780 1081 c 1,25,26
 780.133 1084.73 780.133 1084.73 780.133 1099.33 c 128,-1,27
 780.133 1113.93 780.133 1113.93 774.067 1148.47 c 128,-1,28
 768 1183 768 1183 753 1224.5 c 0,29,30
 720.216 1315.2 720.216 1315.2 660 1398 c 1,31,-1
 527 1245 l 1,32,-1
 411 1343 l 1,33,-1
 557 1504 l 1,34,35
 435.918 1608.46 435.918 1608.46 351 1635 c 1,36,-1
 406 1794 l 1,0,1
381 400 m 256,37,38
 381 107 381 107 509 107 c 0,39,40
 605.818 107 605.818 107 677 237.5 c 0,41,42
 744.186 360.674 744.186 360.674 768.5 579.5 c 0,43,44
 771 602 771 602 774.5 629.5 c 0,45,46
 784.333 706.762 784.333 706.762 784.333 730.047 c 128,-1,47
 784.333 753.333 784.333 753.333 782.667 774.167 c 128,-1,48
 781 795 781 795 775 822 c 128,-1,49
 769 849 769 849 757 876.5 c 128,-1,50
 745 904 745 904 725.5 925.5 c 0,51,52
 681.512 974 681.512 974 625.256 974 c 128,-1,53
 569 974 569 974 536.5 947.5 c 128,-1,54
 504 921 504 921 478.5 877 c 128,-1,55
 453 833 453 833 434.5 774.5 c 128,-1,56
 416 716 416 716 404 652.5 c 0,57,58
 381 530.792 381 530.792 381 400 c 256,37,38
EndSplineSet
EndChar

StartChar: thorn
Encoding: 254 254 255
Width: 1191
Flags: HW
LayerCount: 2
Fore
SplineSet
449 -20 m 0,0,1
 414.333 -20 414.333 -20 363 -13 c 1,2,-1
 350 -142 l 1,3,-1
 303 -520 l 1,4,-1
 -11 -520 l 1,5,-1
 60 -20 l 1,6,-1
 247 1484 l 1,7,-1
 144 1527 l 1,8,-1
 165 1611 l 1,9,-1
 526 1650 l 1,10,-1
 580 1623 l 1,11,-1
 506 1059 l 1,12,13
 629.81 1163 629.81 1163 787 1163 c 0,14,15
 1042.86 1163 1042.86 1163 1109.5 913.5 c 0,16,17
 1131 833 1131 833 1131 702.5 c 128,-1,18
 1131 572 1131 572 1084 435.5 c 128,-1,19
 1037 299 1037 299 948.5 197.5 c 0,20,21
 758.857 -20 758.857 -20 449 -20 c 0,0,1
385 128 m 1,22,23
 421 119 421 119 491 119 c 128,-1,24
 561 119 561 119 621 171.5 c 128,-1,25
 681 224 681 224 718.5 310 c 0,26,27
 790 473.973 790 473.973 790 729 c 0,28,29
 790 906.291 790 906.291 710.5 967 c 0,30,31
 683 988 683 988 639.5 988 c 0,32,33
 559.568 988 559.568 988 485 899 c 1,34,-1
 385 128 l 1,22,23
EndSplineSet
EndChar

StartChar: Lslash
Encoding: 321 321 256
Width: 1272
Flags: HW
LayerCount: 2
Fore
SplineSet
-9 108 m 1,0,-1
 129 138 l 1,1,-1
 182 540 l 1,2,-1
 37 483 l 1,3,-1
 1 601 l 1,4,-1
 200 682 l 1,5,-1
 294 1396 l 1,6,-1
 148 1422 l 1,7,-1
 161 1532 l 1,8,-1
 840 1532 l 1,9,-1
 828 1422 l 1,10,-1
 646 1396 l 1,11,-1
 572 833 l 1,12,-1
 877 957 l 1,13,-1
 912 830 l 1,14,-1
 553 687 l 1,15,-1
 480 131 l 1,16,-1
 829 151 l 1,17,-1
 1020 602 l 1,18,-1
 1201 579 l 1,19,-1
 1117 2 l 1,20,-1
 -21 2 l 1,21,-1
 -9 108 l 1,0,-1
EndSplineSet
EndChar

StartChar: Eogonek
Encoding: 280 280 257
Width: 1329
Flags: HW
LayerCount: 2
Fore
SplineSet
1172 -326 m 1,0,1
 1022.97 -480 1022.97 -480 828 -480 c 0,2,3
 731 -480 731 -480 683 -432.5 c 128,-1,4
 635 -385 635 -385 635 -306 c 0,5,6
 635 -220.358 635 -220.358 732.5 -115.5 c 0,7,8
 795.492 -47.7541 795.492 -47.7541 891 0 c 1,9,-1
 -46 0 l 1,10,-1
 -32 106 l 1,11,-1
 128 136 l 1,12,-1
 292 1394 l 1,13,-1
 147 1420 l 1,14,-1
 158 1530 l 1,15,-1
 1276 1530 l 1,16,-1
 1240 1160 l 1,17,-1
 1018 1160 l 1,18,-1
 984 1384 l 1,19,-1
 645 1410 l 1,20,-1
 573 881 l 1,21,-1
 1017 905 l 1,22,-1
 994 687 l 1,23,-1
 553 712 l 1,24,-1
 475 136 l 1,25,-1
 938 171 l 1,26,-1
 1055 468 l 1,27,-1
 1268 454 l 1,28,-1
 1198 0 l 1,29,-1
 1110 0 l 1,30,31
 916 -132.488 916 -132.488 916 -209.744 c 128,-1,32
 916 -287 916 -287 983 -287 c 0,33,34
 1024 -287 1024 -287 1059 -266 c 128,-1,35
 1094 -245 1094 -245 1136 -212 c 1,36,-1
 1172 -326 l 1,0,1
EndSplineSet
EndChar

StartChar: onesuperior
Encoding: 185 185 259
Width: 1020
Flags: HW
LayerCount: 2
Fore
SplineSet
253 744 m 1,0,-1
 449 770 l 1,1,-1
 531 1375 l 1,2,-1
 310 1333 l 1,3,-1
 298 1446 l 1,4,5
 359.94 1464.58 359.94 1464.58 422.97 1493.79 c 0,6,7
 645.923 1600.33 645.923 1600.33 704 1645 c 1,8,-1
 823 1624 l 1,9,-1
 704 770 l 1,10,-1
 909 743 l 1,11,-1
 898 636 l 1,12,-1
 242 636 l 1,13,-1
 253 744 l 1,0,-1
EndSplineSet
EndChar

StartChar: twosuperior
Encoding: 178 178 260
Width: 1163
Flags: HW
LayerCount: 2
Fore
SplineSet
160 733 m 1,0,1
 340.528 837.516 340.528 837.516 504 978 c 0,2,3
 640.06 1094.93 640.06 1094.93 702 1213 c 0,4,5
 734 1274 734 1274 734 1317 c 128,-1,6
 734 1360 734 1360 723 1387 c 128,-1,7
 712 1414 712 1414 691 1435.5 c 0,8,9
 643.628 1484 643.628 1484 568.814 1484 c 128,-1,10
 494 1484 494 1484 416.5 1444.5 c 128,-1,11
 339 1405 339 1405 279 1336 c 1,12,-1
 199 1450 l 1,13,14
 251.291 1521.31 251.291 1521.31 367.5 1588 c 0,15,16
 505.216 1667.04 505.216 1667.04 622.997 1667.04 c 128,-1,17
 740.778 1667.04 740.778 1667.04 814.389 1641.52 c 128,-1,18
 888 1616 888 1616 931 1573.5 c 0,19,20
 1006 1499.37 1006 1499.37 1006 1376 c 0,21,22
 1006 1144.36 1006 1144.36 730.5 933.5 c 0,23,24
 641 865 641 865 525 793 c 1,25,-1
 930 838 l 1,26,-1
 1025 973 l 1,27,-1
 1128 944 l 1,28,-1
 1033 637 l 1,29,-1
 205 637 l 1,30,-1
 160 733 l 1,0,1
EndSplineSet
EndChar

StartChar: threesuperior
Encoding: 179 179 263
Width: 1071
Flags: HW
LayerCount: 2
Fore
SplineSet
629 1671 m 0,0,1
 994 1671 994 1671 994 1432 c 0,2,3
 994 1278.51 994 1278.51 815.5 1196.5 c 0,4,5
 760 1171 760 1171 691 1151 c 1,6,7
 848.286 1151 848.286 1151 923.5 1070 c 0,8,9
 981 1008.08 981 1008.08 981 917.038 c 128,-1,10
 981 826 981 826 931.5 758.5 c 128,-1,11
 882 691 882 691 803.5 647 c 0,12,13
 650.068 561 650.068 561 435 561 c 0,14,15
 334 561 334 561 221.5 601.5 c 0,16,17
 184 615 184 615 155 633 c 1,18,-1
 172 781 l 1,19,20
 274 730 274 730 427 730 c 0,21,22
 546.727 730 546.727 730 600.364 759.5 c 128,-1,23
 654 789 654 789 679 829 c 128,-1,24
 704 869 704 869 704 918 c 128,-1,25
 704 967 704 967 691 989.5 c 128,-1,26
 678 1012 678 1012 655 1025.5 c 0,27,28
 611.764 1050.88 611.764 1050.88 529 1053 c 1,29,-1
 355 1008 l 1,30,-1
 384 1181 l 1,31,32
 598.044 1218.55 598.044 1218.55 679.5 1329 c 0,33,34
 709 1369 709 1369 709 1402.5 c 128,-1,35
 709 1436 709 1436 700 1451.5 c 128,-1,36
 691 1467 691 1467 672.5 1480 c 0,37,38
 631.231 1509 631.231 1509 554 1509 c 0,39,40
 427.773 1509 427.773 1509 306 1415 c 1,41,-1
 260 1547 l 1,42,43
 371.498 1635.02 371.498 1635.02 531.5 1662.5 c 0,44,45
 581 1671 581 1671 629 1671 c 0,0,1
EndSplineSet
EndChar

StartChar: grave.cap
Encoding: 65537 -1 264
Width: 522
Flags: HW
LayerCount: 2
Fore
SplineSet
383 1570 m 1,0,1
 301.814 1599.32 301.814 1599.32 223.407 1653.66 c 0,2,3
 76.4008 1755.54 76.4008 1755.54 36 1829 c 1,4,-1
 223 2014 l 1,5,-1
 499 1672 l 1,6,-1
 383 1570 l 1,0,1
EndSplineSet
EndChar

StartChar: dieresis.cap
Encoding: 65538 -1 265
Width: 806
Flags: HW
LayerCount: 2
Fore
SplineSet
472.996 1817.88 m 128,-1,1
 475 1890 475 1890 519.5 1937 c 128,-1,2
 564 1984 564 1984 638 1984 c 128,-1,3
 712 1984 712 1984 747.514 1944.05 c 128,-1,4
 783.027 1904.09 783.027 1904.09 783.027 1832.73 c 128,-1,5
 783.027 1761.36 783.027 1761.36 740.014 1711.18 c 128,-1,6
 697 1661 697 1661 623.115 1661 c 128,-1,7
 549.231 1661 549.231 1661 510.112 1703.38 c 128,-1,0
 470.992 1745.76 470.992 1745.76 472.996 1817.88 c 128,-1,1
66.4545 1935.9 m 128,-1,9
 112 1984 112 1984 186 1984 c 128,-1,10
 260 1984 260 1984 295.514 1944.05 c 128,-1,11
 331.027 1904.09 331.027 1904.09 331.027 1832.73 c 128,-1,12
 331.027 1761.36 331.027 1761.36 288.014 1711.18 c 128,-1,13
 245 1661 245 1661 171.115 1661 c 128,-1,14
 97.2308 1661 97.2308 1661 59.0699 1702.34 c 128,-1,15
 20.9091 1743.68 20.9091 1743.68 20.9091 1815.74 c 128,-1,8
 20.9091 1887.79 20.9091 1887.79 66.4545 1935.9 c 128,-1,9
EndSplineSet
EndChar

StartChar: commaaccent
Encoding: 63171 63171 266
Width: 367
Flags: HW
LayerCount: 2
Fore
SplineSet
195 -37 m 1,0,1
 263 -51 263 -51 308 -111 c 128,-1,2
 353 -171 353 -171 353 -242 c 128,-1,3
 353 -313 353 -313 332 -367 c 128,-1,4
 311 -421 311 -421 278 -461.5 c 0,5,6
 210.03 -544.918 210.03 -544.918 126 -560 c 1,7,-1
 26 -490 l 1,8,-1
 29 -464 l 1,9,10
 69.2115 -441.66 69.2115 -441.66 89.5 -383.5 c 0,11,12
 97 -362 97 -362 97 -339 c 128,-1,13
 97 -316 97 -316 92 -298.5 c 128,-1,14
 87 -281 87 -281 78 -267 c 0,15,16
 59.2969 -237.906 59.2969 -237.906 30 -234 c 1,17,-1
 41 -141 l 1,18,-1
 195 -37 l 1,0,1
EndSplineSet
EndChar

StartChar: acute.cap
Encoding: 65539 -1 267
Width: 527
Flags: HW
LayerCount: 2
Fore
SplineSet
36 1672 m 1,0,-1
 312 2014 l 1,1,-1
 499 1829 l 1,2,3
 462.842 1760.3 462.842 1760.3 342 1675 c 0,4,5
 236.455 1600.5 236.455 1600.5 152 1570 c 1,6,-1
 36 1672 l 1,0,-1
EndSplineSet
EndChar

StartChar: circumflex.cap
Encoding: 65540 -1 268
Width: 794
Flags: HW
LayerCount: 2
Fore
SplineSet
50 1657 m 1,0,-1
 417 2014 l 1,1,-1
 595 2014 l 1,2,-1
 805 1657 l 1,3,-1
 681 1599 l 1,4,-1
 480 1806 l 1,5,-1
 157 1600 l 1,6,-1
 50 1657 l 1,0,-1
EndSplineSet
EndChar

StartChar: caron.cap
Encoding: 65541 -1 269
Width: 792
Flags: HW
LayerCount: 2
Fore
SplineSet
92 1956 m 1,0,-1
 216 2014 l 1,1,-1
 417 1842 l 1,2,-1
 740 2014 l 1,3,-1
 847 1957 l 1,4,-1
 479 1599 l 1,5,-1
 302 1599 l 1,6,-1
 92 1956 l 1,0,-1
EndSplineSet
EndChar

StartChar: breve.cap
Encoding: 65542 -1 270
Width: 715
Flags: HW
LayerCount: 2
Fore
SplineSet
235 2014 m 1,0,-1
 234 1969 l 1,1,2
 234 1914.46 234 1914.46 251 1892.23 c 0,3,4
 283.294 1850 283.294 1850 350.647 1850 c 128,-1,5
 418 1850 418 1850 450 1864.5 c 128,-1,6
 482 1879 482 1879 498 1902 c 0,7,8
 522.438 1937.13 522.438 1937.13 525 2014 c 1,9,-1
 707 2014 l 1,10,11
 708 2006 708 2006 708 1997 c 2,12,-1
 708 1980 l 2,13,14
 708 1843.43 708 1843.43 627 1747 c 0,15,16
 531.24 1633 531.24 1633 358 1633 c 0,17,18
 194.303 1633 194.303 1633 113 1733.5 c 0,19,20
 46 1816.32 46 1816.32 46 1946 c 0,21,22
 46 1971.5 46 1971.5 51 2014 c 1,23,-1
 235 2014 l 1,0,-1
EndSplineSet
EndChar

StartChar: dotaccent.cap
Encoding: 65543 -1 271
Width: 389
Flags: HW
LayerCount: 2
Fore
SplineSet
266 1628 m 128,-1,1
 226 1612 226 1612 183 1612 c 128,-1,2
 140 1612 140 1612 108.5 1626.5 c 0,3,4
 44.4818 1655.97 44.4818 1655.97 14.5 1718 c 0,5,6
 0.935484 1746.06 0.935484 1746.06 0.935484 1781.81 c 128,-1,7
 0.935484 1817.56 0.935484 1817.56 16.9677 1854.28 c 128,-1,8
 33 1891 33 1891 60 1917.5 c 0,9,10
 118.585 1975 118.585 1975 209 1975 c 0,11,12
 285.133 1975 285.133 1975 339 1924.5 c 0,13,14
 389.069 1877.56 389.069 1877.56 389.069 1826.17 c 128,-1,15
 389.069 1774.79 389.069 1774.79 374.534 1736.89 c 128,-1,16
 360 1699 360 1699 333 1671.5 c 128,-1,0
 306 1644 306 1644 266 1628 c 128,-1,1
EndSplineSet
EndChar

StartChar: ring.cap
Encoding: 65544 -1 272
Width: 722
Flags: HW
LayerCount: 2
Fore
SplineSet
510.5 1508 m 128,-1,1
 444 1491 444 1491 374.5 1491 c 128,-1,2
 305 1491 305 1491 246.5 1504.5 c 128,-1,3
 188 1518 188 1518 146 1546.5 c 0,4,5
 57 1606.89 57 1606.89 57 1707.95 c 128,-1,6
 57 1809 57 1809 95.5 1866 c 128,-1,7
 134 1923 134 1923 192 1956 c 0,8,9
 293.939 2014 293.939 2014 443 2014 c 0,10,11
 656.536 2014 656.536 2014 723.5 1889 c 0,12,13
 746 1847 746 1847 746 1779 c 128,-1,14
 746 1711 746 1711 714 1654 c 128,-1,15
 682 1597 682 1597 629.5 1561 c 128,-1,0
 577 1525 577 1525 510.5 1508 c 128,-1,1
388 1630 m 0,16,17
 553 1630 553 1630 553 1763 c 0,18,19
 553 1814.35 553 1814.35 511.5 1848 c 0,20,21
 474.5 1878 474.5 1878 431.75 1878 c 128,-1,22
 389 1878 389 1878 359.5 1872 c 128,-1,23
 330 1866 330 1866 306 1851 c 0,24,25
 251 1816.62 251 1816.62 251 1744 c 0,26,27
 251 1666.57 251 1666.57 338.5 1638 c 0,28,29
 363 1630 363 1630 388 1630 c 0,16,17
EndSplineSet
EndChar

StartChar: tilde.cap
Encoding: 65545 -1 273
Width: 813
Flags: HW
LayerCount: 2
Fore
SplineSet
151 1677 m 1,0,-1
 74 1801 l 1,1,2
 105.366 1865.82 105.366 1865.82 180 1917 c 0,3,4
 257.292 1970 257.292 1970 313.646 1970 c 128,-1,5
 370 1970 370 1970 398.5 1959 c 128,-1,6
 427 1948 427 1948 450 1931 c 128,-1,7
 473 1914 473 1914 491.5 1895 c 2,8,9
 528 1859 l 1,10,11
 569.294 1820 569.294 1820 603.647 1820 c 128,-1,12
 638 1820 638 1820 659.5 1829 c 128,-1,13
 681 1838 681 1838 699 1852 c 0,14,15
 724.594 1871.91 724.594 1871.91 762 1920 c 1,16,-1
 850 1789 l 1,17,18
 823.337 1721.32 823.337 1721.32 751 1666 c 0,19,20
 675.154 1608 675.154 1608 615.077 1608 c 128,-1,21
 555 1608 555 1608 523.5 1619 c 128,-1,22
 492 1630 492 1630 469 1646.5 c 128,-1,23
 446 1663 446 1663 427.5 1682 c 128,-1,24
 409 1701 409 1701 390 1717.5 c 0,25,26
 345.174 1756.43 345.174 1756.43 285.887 1757.21 c 128,-1,27
 226.6 1758 226.6 1758 151 1677 c 1,0,-1
EndSplineSet
EndChar

StartChar: hungarumlaut.cap
Encoding: 65546 -1 274
Width: 922
Flags: HW
LayerCount: 2
Fore
SplineSet
460 1645 m 1,0,-1
 742 2014 l 1,1,-1
 902 1881 l 1,2,3
 844.912 1784.39 844.912 1784.39 774.956 1718.2 c 0,4,5
 646.477 1596.62 646.477 1596.62 559 1570 c 1,6,-1
 460 1645 l 1,0,-1
-30 1645 m 1,7,-1
 252 2014 l 1,8,-1
 415 1882 l 1,9,10
 378.467 1797.4 378.467 1797.4 268.5 1696.5 c 0,11,12
 161.776 1598.58 161.776 1598.58 74 1570 c 1,13,-1
 -30 1645 l 1,7,-1
EndSplineSet
EndChar

StartChar: aogonek
Encoding: 261 261 275
Width: 1215
Flags: HW
LayerCount: 2
Fore
SplineSet
717 106 m 1,0,1
 591 -20 591 -20 413 -20 c 0,2,3
 234.522 -20 234.522 -20 142.5 104.5 c 0,4,5
 60 216.118 60 216.118 60 402 c 0,6,7
 60 712.757 60 712.757 233.5 928.5 c 0,8,9
 351.882 1075.71 351.882 1075.71 538 1133.5 c 0,10,11
 633 1163 633 1163 746.688 1163 c 128,-1,12
 860.375 1163 860.375 1163 984 1120 c 1,13,-1
 1136 1163 l 1,14,-1
 1007 227 l 1,15,16
 997.732 151 997.732 151 1046 151 c 0,17,18
 1079.86 151 1079.86 151 1139 197 c 1,19,-1
 1167 124 l 1,20,21
 1122.31 56.9636 1122.31 56.9636 1031 13 c 1,22,23
 818 -127.386 818 -127.386 818 -215 c 0,24,25
 818 -287 818 -287 885 -287 c 0,26,27
 926 -287 926 -287 961 -266 c 128,-1,28
 996 -245 996 -245 1038 -212 c 1,29,-1
 1074 -326 l 1,30,31
 924.968 -480 924.968 -480 730 -480 c 0,32,33
 633 -480 633 -480 585 -432.5 c 128,-1,34
 537 -385 537 -385 537 -306 c 0,35,36
 537 -218.962 537 -218.962 633.5 -117 c 0,37,38
 701.322 -45.339 701.322 -45.339 790 -1 c 1,39,40
 721.093 28.2333 721.093 28.2333 717 106 c 1,0,1
680 209 m 1,41,-1
 790 1017 l 1,42,43
 757 1023 757 1023 709 1023 c 128,-1,44
 661 1023 661 1023 614 996.5 c 128,-1,45
 567 970 567 970 532 924.5 c 128,-1,46
 497 879 497 879 473 818.5 c 128,-1,47
 449 758 449 758 434 690 c 0,48,49
 406 563.067 406 563.067 406 426.033 c 128,-1,50
 406 289 406 289 445.5 221.5 c 128,-1,51
 485 154 485 154 551.562 154 c 128,-1,52
 618.125 154 618.125 154 680 209 c 1,41,-1
EndSplineSet
EndChar

StartChar: eogonek
Encoding: 281 281 277
Width: 1048
Flags: HW
LayerCount: 2
Fore
SplineSet
883 -326 m 1,0,1
 733.968 -480 733.968 -480 539 -480 c 0,2,3
 442 -480 442 -480 394 -432.5 c 128,-1,4
 346 -385 346 -385 346 -306 c 0,5,6
 346 -245.529 346 -245.529 380 -191.765 c 0,7,8
 442.118 -93.536 442.118 -93.536 532 -19 c 1,9,-1
 499 -20 l 1,10,11
 206.08 -20 206.08 -20 104 212 c 0,12,13
 61 309.727 61 309.727 61 430 c 0,14,15
 60.9804 433.137 60.9804 433.137 60.9804 436.265 c 0,16,17
 60.9804 748.664 60.9804 748.664 247.5 956.5 c 0,18,19
 432.821 1163 432.821 1163 710 1163 c 0,20,21
 950.407 1163 950.407 1163 1017 1011.5 c 0,22,23
 1039.14 961.136 1039.14 961.136 1039.14 893.309 c 128,-1,24
 1039.14 825.483 1039.14 825.483 1013.07 762.241 c 128,-1,25
 987 699 987 699 939 649 c 128,-1,26
 891 599 891 599 827.5 562.5 c 128,-1,27
 764 526 764 526 694.5 503 c 0,28,29
 555.979 457.158 555.979 457.158 420 455 c 1,30,31
 420 299 420 299 470 229 c 128,-1,32
 520 159 520 159 607 159 c 0,33,34
 785 159 785 159 905 315 c 1,35,-1
 969 212 l 1,36,37
 937.013 162.79 937.013 162.79 890 121 c 1,38,-1
 893 121 l 1,39,40
 719.276 -4.67303 719.276 -4.67303 651 -127 c 0,41,42
 627 -170 627 -170 627 -209 c 128,-1,43
 627 -248 627 -248 646 -267.5 c 128,-1,44
 665 -287 665 -287 700 -287 c 128,-1,45
 735 -287 735 -287 770 -266 c 128,-1,46
 805 -245 805 -245 847 -212 c 1,47,-1
 883 -326 l 1,0,1
636 1025 m 0,48,49
 449.348 1025 449.348 1025 420 575 c 1,50,51
 525.926 582.222 525.926 582.222 615.5 659 c 0,52,53
 718.127 746.966 718.127 746.966 718.127 885.983 c 128,-1,54
 718.127 1025 718.127 1025 636 1025 c 0,48,49
EndSplineSet
EndChar

StartChar: lslash
Encoding: 322 322 279
Width: 634
Flags: HW
LayerCount: 2
Fore
SplineSet
423 227 m 2,0,1
 412.143 151 412.143 151 461.333 151 c 0,2,3
 488.667 151 488.667 151 550 197 c 1,4,-1
 578 124 l 1,5,6
 517.144 40.323 517.144 40.323 407.5 -1.5 c 0,7,8
 359 -20 359 -20 308 -20 c 128,-1,9
 257 -20 257 -20 219 -12.5 c 128,-1,10
 181 -5 181 -5 151 11 c 0,11,12
 84.8574 46.2761 84.8574 46.2761 83 115 c 0,13,14
 83 144 83 144 91 192 c 1,15,-1
 163 733 l 1,16,-1
 26 680 l 1,17,-1
 26 817 l 1,18,-1
 182 880 l 1,19,-1
 262 1482 l 1,20,-1
 130 1525 l 1,21,-1
 150 1608 l 1,22,-1
 556 1650 l 1,23,-1
 607 1623 l 1,24,-1
 527 1021 l 1,25,-1
 678 1082 l 1,26,-1
 678 935 l 1,27,-1
 507 868 l 1,28,-1
 423 227 l 2,0,1
EndSplineSet
EndChar

StartChar: Aogonek
Encoding: 260 260 286
Width: 1342
Flags: HW
LayerCount: 2
Fore
SplineSet
1293 -326 m 1,0,1
 1143.97 -480 1143.97 -480 949 -480 c 0,2,3
 852 -480 852 -480 804 -432.5 c 128,-1,4
 756 -385 756 -385 756 -306 c 0,5,6
 756 -220.358 756 -220.358 853.5 -115.5 c 0,7,8
 916.492 -47.7541 916.492 -47.7541 1012 0 c 1,9,-1
 770 0 l 1,10,-1
 775 106 l 1,11,-1
 932 135 l 1,12,-1
 892 416 l 1,13,-1
 382 416 l 1,14,-1
 257 136 l 1,15,-1
 445 106 l 1,16,-1
 437 0 l 1,17,-1
 -121 0 l 1,18,-1
 -113 106 l 1,19,-1
 25 135 l 1,20,-1
 710 1530 l 1,21,-1
 1057 1530 l 1,22,-1
 1304 138 l 1,23,-1
 1465 106 l 1,24,-1
 1459 0 l 1,25,-1
 1231 0 l 1,26,27
 1037 -132.488 1037 -132.488 1037 -209.744 c 128,-1,28
 1037 -287 1037 -287 1104 -287 c 0,29,30
 1145 -287 1145 -287 1180 -266 c 128,-1,31
 1215 -245 1215 -245 1257 -212 c 1,32,-1
 1293 -326 l 1,0,1
871 567 m 1,33,-1
 793 1117 l 1,34,-1
 784 1316 l 1,35,-1
 449 567 l 1,36,-1
 871 567 l 1,33,-1
EndSplineSet
EndChar

StartChar: caronvertical
Encoding: 65547 -1 289
Width: 315
Flags: HW
LayerCount: 2
Fore
SplineSet
450 1680 m 1,0,1
 488 1637.78 488 1637.78 488 1491 c 0,2,3
 488 1291 488 1291 406 1127 c 0,4,5
 379 1073 379 1073 343 1035 c 1,6,-1
 213 1065 l 1,7,-1
 207 1090 l 1,8,9
 248 1199.33 248 1199.33 248 1376.81 c 128,-1,10
 248 1554.29 248 1554.29 224 1592 c 1,11,-1
 243 1634 l 1,12,-1
 450 1680 l 1,0,1
EndSplineSet
EndChar

StartChar: kgreenlandic
Encoding: 312 312 297
Width: 1219
Flags: HW
LayerCount: 2
Fore
SplineSet
213 962 m 1,0,-1
 106 1022 l 1,1,-1
 122 1111 l 1,2,-1
 496 1163 l 1,3,-1
 548 1139 l 1,4,-1
 406 0 l 1,5,-1
 82 0 l 1,6,-1
 213 962 l 1,0,-1
958 274 m 1,7,8
 1006 182 1006 182 1079.14 182 c 0,9,10
 1118.27 182 1118.27 182 1181 228 c 1,11,-1
 1215 157 l 1,12,13
 1126.86 51.2355 1126.86 51.2355 991 1.5 c 0,14,15
 935 -19 935 -19 881 -19 c 128,-1,16
 827 -19 827 -19 794.5 -10 c 128,-1,17
 762 -1 762 -1 738.5 14.5 c 0,18,19
 695.543 42.8332 695.543 42.8332 674 101 c 2,20,-1
 488 610 l 1,21,-1
 918 1154 l 1,22,-1
 1189 1154 l 1,23,-1
 769 665 l 1,24,-1
 958 274 l 1,7,8
EndSplineSet
EndChar

StartChar: scedilla
Encoding: 351 351 299
Width: 873
Flags: HW
LayerCount: 2
Fore
SplineSet
40 -303 m 1,0,1
 69.7143 -319 69.7143 -319 112.857 -319 c 128,-1,2
 156 -319 156 -319 188.5 -311 c 128,-1,3
 221 -303 221 -303 245.5 -284.5 c 0,4,5
 302 -241.837 302 -241.837 302 -116.75 c 0,6,7
 302 -66.25 302 -66.25 295 -19 c 1,8,9
 154.834 -12.9058 154.834 -12.9058 46 27 c 0,10,11
 16 38 16 38 3 49 c 1,12,-1
 51 250 l 1,13,14
 122.724 178.276 122.724 178.276 233 146 c 0,15,16
 274 134 274 134 309.5 134 c 128,-1,17
 345 134 345 134 373 140.5 c 128,-1,18
 401 147 401 147 424 161 c 0,19,20
 476 192.652 476 192.652 476 257 c 0,21,22
 476 312.196 476 312.196 440.5 353.098 c 0,23,24
 391.236 409.859 391.236 409.859 325.618 455.429 c 128,-1,25
 260 501 260 501 225 532 c 128,-1,26
 190 563 190 563 162 605 c 0,27,28
 99 699.5 99 699.5 99 803.75 c 128,-1,29
 99 908 99 908 135 971 c 128,-1,30
 171 1034 171 1034 234.5 1077 c 0,31,32
 361.5 1163 361.5 1163 568 1163 c 0,33,34
 686.231 1163 686.231 1163 750.615 1147.5 c 128,-1,35
 815 1132 815 1132 828 1126 c 1,36,-1
 785 919 l 1,37,38
 694.091 1019 694.091 1019 581 1019 c 0,39,40
 472.409 1019 472.409 1019 434 954 c 0,41,42
 421 932 421 932 421 902 c 256,43,44
 421 844.5 421 844.5 454 806.25 c 0,45,46
 501.076 751.685 501.076 751.685 571.038 701.342 c 128,-1,47
 641 651 641 651 677.5 616.5 c 128,-1,48
 714 582 714 582 742 539 c 0,49,50
 803 445.321 803 445.321 803 349.661 c 128,-1,51
 803 254 803 254 776 196.5 c 128,-1,52
 749 139 749 139 703 97.5 c 0,53,54
 615.209 18.2972 615.209 18.2972 464 -8 c 1,55,56
 501 -124.286 501 -124.286 501 -238 c 0,57,58
 501 -484 501 -484 203 -484 c 0,59,60
 120.8 -484 120.8 -484 66.9 -473 c 128,-1,61
 13 -462 13 -462 5 -456 c 1,62,-1
 40 -303 l 1,0,1
EndSplineSet
Substitution2: "'locl' Localized Forms lookup 7 subtable" uni0219
Substitution2: "'locl' Localized Forms lookup 6 subtable" uni0219
Substitution2: "'aalt' Access All Alternates in Latin lookup 0 subtable" uni0219
EndChar

StartChar: estimated
Encoding: 8494 8494 303
Width: 1442
Flags: HW
LayerCount: 2
Fore
SplineSet
1316 832 m 1,0,1
 1316 659.5 1316 659.5 1306 612 c 1,2,-1
 500 612 l 1,3,-1
 500 221 l 1,4,5
 602.878 147 602.878 147 780 147 c 0,6,7
 952.333 147 952.333 147 1099 224 c 0,8,9
 1139 245 1139 245 1166 266 c 1,10,-1
 1239 115 l 1,11,12
 1117.93 30.6161 1117.93 30.6161 916 -4 c 0,13,14
 846 -16 846 -16 771 -16 c 0,15,16
 466.158 -16 466.158 -16 295 166.5 c 0,17,18
 125 347.765 125 347.765 125 671 c 0,19,20
 125 977.152 125 977.152 282 1158 c 0,21,22
 453.983 1356.11 453.983 1356.11 777.013 1356.11 c 0,23,24
 1000.8 1356.11 1000.8 1356.11 1150 1219 c 0,25,26
 1308.14 1073.68 1308.14 1073.68 1316 832 c 1,0,1
954 1153 m 1,27,28
 874 1193 874 1193 734.368 1193 c 128,-1,29
 594.737 1193 594.737 1193 500 1121 c 1,30,-1
 500 768 l 1,31,-1
 954 768 l 1,32,-1
 954 1153 l 1,27,28
EndSplineSet
EndChar

StartChar: afii61352
Encoding: 8470 8470 304
Width: 2558
Flags: HW
LayerCount: 2
Fore
SplineSet
1664.5 766.5 m 128,-1,1
 1637 848 1637 848 1637 970.5 c 128,-1,2
 1637 1093 1637 1093 1683.5 1202.5 c 128,-1,3
 1730 1312 1730 1312 1804 1385.5 c 0,4,5
 1952.5 1533 1952.5 1533 2152 1533 c 0,6,7
 2341.31 1533 2341.31 1533 2447.5 1416.5 c 0,8,9
 2554 1299.66 2554 1299.66 2554 1098 c 0,10,11
 2554 903.26 2554 903.26 2469.5 759.5 c 0,12,13
 2397.66 637.272 2397.66 637.272 2271 569.5 c 0,14,15
 2159.8 510 2159.8 510 2052.4 510 c 128,-1,16
 1945 510 1945 510 1870.5 540.5 c 128,-1,17
 1796 571 1796 571 1744 628 c 128,-1,0
 1692 685 1692 685 1664.5 766.5 c 128,-1,1
-25 106 m 1,18,-1
 124 136 l 1,19,-1
 305 1394 l 1,20,-1
 135 1420 l 1,21,-1
 151 1530 l 1,22,-1
 703 1530 l 1,23,-1
 1079 535 l 1,24,-1
 1157 305 l 1,25,-1
 1288 1394 l 1,26,-1
 1116 1420 l 1,27,-1
 1127 1530 l 1,28,-1
 1629 1530 l 1,29,-1
 1618 1420 l 1,30,-1
 1495 1394 l 1,31,-1
 1288 0 l 1,32,-1
 935 0 l 1,33,-1
 539 1028 l 1,34,-1
 461 1282 l 1,35,-1
 341 136 l 1,36,-1
 531 106 l 1,37,-1
 520 0 l 1,38,-1
 -33 0 l 1,39,-1
 -25 106 l 1,18,-1
2275 1103 m 0,40,41
 2275 1390 2275 1390 2129 1390 c 0,42,43
 1928.9 1390 1928.9 1390 1911.5 1038.5 c 0,44,45
 1909 988 1909 988 1909 943 c 0,46,47
 1909 653 1909 653 2056 653 c 0,48,49
 2220.96 653 2220.96 653 2261 897.5 c 0,50,51
 2275 983 2275 983 2275 1103 c 0,40,41
1569 178 m 1,52,-1
 2402 178 l 1,53,-1
 2390 0 l 1,54,-1
 1557 0 l 1,55,-1
 1569 178 l 1,52,-1
EndSplineSet
EndChar

StartChar: minute
Encoding: 8242 8242 305
Width: 623
Flags: HW
LayerCount: 2
Fore
SplineSet
351 1782 m 1,0,-1
 626 1782 l 1,1,-1
 470 1190 l 1,2,-1
 272 1190 l 1,3,-1
 351 1782 l 1,0,-1
EndSplineSet
EndChar

StartChar: quotereversed
Encoding: 8219 8219 307
Width: 702
Flags: HW
LayerCount: 2
Fore
SplineSet
345 916 m 1,0,1
 269.937 953.532 269.937 953.532 213 1068.5 c 0,2,3
 157 1181.58 157 1181.58 157 1279.29 c 128,-1,4
 157 1377 157 1377 181.5 1449.5 c 128,-1,5
 206 1522 206 1522 252.5 1581.5 c 0,6,7
 353.899 1711.25 353.899 1711.25 513 1740 c 1,8,-1
 618 1550 l 1,9,-1
 602 1509 l 1,10,11
 507.68 1493.6 507.68 1493.6 446.5 1403.5 c 0,12,13
 389 1318.82 389 1318.82 389 1221 c 0,14,15
 389 1130.12 389 1130.12 428.5 1068.5 c 0,16,17
 441 1049 441 1049 457 1038 c 1,18,-1
 449 1016 l 1,19,-1
 345 916 l 1,0,1
EndSplineSet
EndChar

StartChar: gcommaaccent
Encoding: 291 291 321
Width: 1220
Flags: HW
LayerCount: 2
Fore
SplineSet
741 1251 m 1,0,1
 673 1265 673 1265 628 1325 c 128,-1,2
 583 1385 583 1385 583 1456 c 128,-1,3
 583 1527 583 1527 604 1581 c 128,-1,4
 625 1635 625 1635 658 1675.5 c 0,5,6
 725.97 1758.92 725.97 1758.92 810 1774 c 1,7,-1
 910 1704 l 1,8,-1
 907 1678 l 1,9,10
 866.788 1655.66 866.788 1655.66 846.5 1597.5 c 0,11,12
 839 1576 839 1576 839 1553 c 128,-1,13
 839 1530 839 1530 844 1512.5 c 128,-1,14
 849 1495 849 1495 858 1481 c 0,15,16
 878.015 1449.87 878.015 1449.87 906 1448 c 1,17,-1
 895 1355 l 1,18,-1
 741 1251 l 1,0,1
540 1133.5 m 0,19,20
 635 1163 635 1163 749.375 1163 c 128,-1,21
 863.75 1163 863.75 1163 996 1117 c 1,22,-1
 1158 1163 l 1,23,-1
 991 -77 l 1,24,25
 952.31 -386.52 952.31 -386.52 642 -482 c 0,26,27
 525 -518 525 -518 372 -518 c 0,28,29
 261.5 -518 261.5 -518 190.25 -499 c 128,-1,30
 119 -480 119 -480 104 -473 c 1,31,-1
 155 -258 l 1,32,33
 175.826 -278.826 175.826 -278.826 234.413 -302.413 c 0,34,35
 350.129 -349 350.129 -349 414.565 -349 c 128,-1,36
 479 -349 479 -349 518 -342.5 c 128,-1,37
 557 -336 557 -336 585.5 -315 c 0,38,39
 641.888 -273.451 641.888 -273.451 657 -145 c 2,40,-1
 682 73 l 1,41,42
 564.526 -20 564.526 -20 415 -20 c 0,43,44
 236.522 -20 236.522 -20 144.5 104.5 c 0,45,46
 62 216.118 62 216.118 62 402 c 0,47,48
 62 712.757 62 712.757 235.5 928.5 c 0,49,50
 353.882 1075.71 353.882 1075.71 540 1133.5 c 0,19,20
816 1012 m 1,51,52
 777.5 1023 777.5 1023 720.25 1023 c 128,-1,53
 663 1023 663 1023 616 996.5 c 128,-1,54
 569 970 569 970 534 924.5 c 128,-1,55
 499 879 499 879 475 818.5 c 128,-1,56
 451 758 451 758 436 690 c 0,57,58
 408 563.067 408 563.067 408 426.033 c 128,-1,59
 408 289 408 289 447.5 221.5 c 128,-1,60
 487 154 487 154 556 154 c 0,61,62
 632.71 154 632.71 154 701 227 c 1,63,-1
 816 1012 l 1,51,52
EndSplineSet
EndChar

StartChar: macron.cap
Encoding: 65548 -1 344
Width: 614
Flags: HW
LayerCount: 2
Fore
SplineSet
51 1916 m 1,0,-1
 622 1916 l 1,1,-1
 622 1707 l 1,2,-1
 51 1707 l 1,3,-1
 51 1916 l 1,0,-1
EndSplineSet
EndChar

StartChar: hcircumflex
Encoding: 293 293 401
Width: 1302
Flags: HW
LayerCount: 2
Fore
SplineSet
1115 151 m 0,0,1
 1143.67 151 1143.67 151 1205 197 c 1,2,-1
 1233 124 l 1,3,4
 1171.5 39.432 1171.5 39.432 1052.5 -2.5 c 0,5,6
 1000 -21 1000 -21 932.5 -21 c 128,-1,7
 865 -21 865 -21 825 -6.5 c 128,-1,8
 785 8 785 8 764 32 c 0,9,10
 730 70.8571 730 70.8571 730 150 c 0,11,12
 730 190.857 730 190.857 741 252.929 c 2,13,-1
 791.5 531.5 l 1,14,15
 821.182 700.861 821.182 700.861 821.182 758.931 c 128,-1,16
 821.182 817 821.182 817 820.591 841.5 c 128,-1,17
 820 866 820 866 815 893 c 128,-1,18
 810 920 810 920 800.5 936 c 0,19,20
 783.281 965 783.281 965 747.141 965 c 128,-1,21
 711 965 711 965 677 944 c 128,-1,22
 643 923 643 923 609.5 887 c 0,23,24
 538.981 811.219 538.981 811.219 492 705 c 1,25,-1
 406 0 l 1,26,-1
 73 0 l 1,27,-1
 252 1482 l 1,28,-1
 125 1525 l 1,29,-1
 141 1608 l 1,30,-1
 550 1650 l 1,31,-1
 605 1623 l 1,32,-1
 602 1599 l 1,33,-1
 819 1810 l 1,34,-1
 997 1810 l 1,35,-1
 1207 1453 l 1,36,-1
 1083 1395 l 1,37,-1
 882 1602 l 1,38,-1
 578 1408 l 1,39,-1
 518 915 l 1,40,41
 666.8 1163 666.8 1163 902 1163 c 0,42,43
 1167 1163 1167 1163 1167 861 c 0,44,45
 1167 806.412 1167 806.412 1146 676.706 c 2,46,-1
 1118 505 l 2,47,48
 1112 467 1112 467 1104.5 426 c 128,-1,49
 1097 385 1097 385 1090.5 345 c 0,50,51
 1076 255.769 1076 255.769 1076 203.385 c 128,-1,52
 1076 151 1076 151 1115 151 c 0,0,1
EndSplineSet
EndChar

StartChar: Scedilla
Encoding: 350 350 412
Width: 1181
Flags: HW
LayerCount: 2
Fore
SplineSet
145 -303 m 1,0,1
 174.714 -319 174.714 -319 217.857 -319 c 128,-1,2
 261 -319 261 -319 293.5 -311 c 128,-1,3
 326 -303 326 -303 350.5 -284.5 c 0,4,5
 406.889 -241.921 406.889 -241.921 406.889 -120.815 c 0,6,7
 406.889 -72.25 406.889 -72.25 399 -19 c 1,8,9
 199.746 -1.41879 199.746 -1.41879 75.5 49 c 0,10,11
 41 63 41 63 27 75 c 1,12,-1
 87 393 l 1,13,-1
 293 393 l 1,14,-1
 304 172 l 1,15,16
 391.214 106 391.214 106 487.107 106 c 128,-1,17
 583 106 583 106 632 122 c 128,-1,18
 681 138 681 138 710 165.5 c 0,19,20
 762 214.81 762 214.81 762 309 c 0,21,22
 762 401.919 762 401.919 702 474.5 c 0,23,24
 648.065 539.744 648.065 539.744 542.533 607.372 c 128,-1,25
 437 675 437 675 377.5 724.5 c 128,-1,26
 318 774 318 774 274 832 c 0,27,28
 178 958.545 178 958.545 178 1084.77 c 128,-1,29
 178 1211 178 1211 220.5 1294.5 c 128,-1,30
 263 1378 263 1378 339 1434.5 c 0,31,32
 493.018 1549 493.018 1549 747 1549 c 0,33,34
 1019.14 1549 1019.14 1549 1146 1475 c 1,35,-1
 1092 1173 l 1,36,-1
 901 1173 l 1,37,-1
 871 1371 l 1,38,39
 801 1423 801 1423 702 1423 c 256,40,41
 545.545 1423 545.545 1423 507 1317 c 0,42,43
 495 1284 495 1284 495 1237.5 c 128,-1,44
 495 1191 495 1191 512 1145.5 c 128,-1,45
 529 1100 529 1100 563.5 1058.5 c 0,46,47
 623.448 986.389 623.448 986.389 778 889 c 0,48,49
 1090 690.905 1090 690.905 1090 442 c 0,50,51
 1090 260.504 1090 260.504 963.5 135 c 0,52,53
 824.558 -2.84835 824.558 -2.84835 573 -20 c 1,54,55
 606 -128.429 606 -128.429 606 -238 c 0,56,57
 606 -484 606 -484 308 -484 c 0,58,59
 225.8 -484 225.8 -484 171.9 -473 c 128,-1,60
 118 -462 118 -462 110 -456 c 1,61,-1
 145 -303 l 1,0,1
EndSplineSet
Substitution2: "'locl' Localized Forms lookup 7 subtable" uni0218
Substitution2: "'locl' Localized Forms lookup 6 subtable" uni0218
Substitution2: "'aalt' Access All Alternates in Latin lookup 0 subtable" uni0218
EndChar

StartChar: uni0162
Encoding: 354 354 415
Width: 1421
Flags: HW
LayerCount: 2
Fore
SplineSet
555.5 -234 m 128,-1,1
 570 -202 570 -202 571.4 -168.8 c 128,-1,2
 572.8 -135.6 572.8 -135.6 572.8 -95.24 c 128,-1,3
 572.8 -54.8799 572.8 -54.8799 563 0 c 1,4,-1
 212 0 l 1,5,-1
 225 106 l 1,6,-1
 475 136 l 1,7,-1
 642 1394 l 1,8,-1
 406 1368 l 1,9,-1
 239 945 l 1,10,-1
 51 945 l 1,11,-1
 150 1530 l 1,12,-1
 1526 1530 l 1,13,-1
 1451 947 l 1,14,-1
 1270 945 l 1,15,-1
 1237 1368 l 1,16,-1
 995 1394 l 1,17,-1
 827 136 l 1,18,-1
 1111 106 l 1,19,-1
 1101 0 l 1,20,-1
 732 0 l 1,21,22
 772 -105 772 -105 772 -238 c 0,23,24
 772 -484 772 -484 474 -484 c 0,25,26
 391.8 -484 391.8 -484 337.9 -473 c 128,-1,27
 284 -462 284 -462 276 -456 c 1,28,-1
 311 -303 l 1,29,30
 340.714 -319 340.714 -319 383.857 -319 c 128,-1,31
 427 -319 427 -319 459.5 -311 c 128,-1,32
 492 -303 492 -303 516.5 -284.5 c 128,-1,0
 541 -266 541 -266 555.5 -234 c 128,-1,1
EndSplineSet
Substitution2: "'locl' Localized Forms lookup 7 subtable" uni021A
Substitution2: "'aalt' Access All Alternates in Latin lookup 0 subtable" uni021A
EndChar

StartChar: uni0163
Encoding: 355 355 416
Width: 724
Flags: HW
LayerCount: 2
Fore
SplineSet
-26 -303 m 1,0,1
 3.71428 -319 3.71428 -319 46.8571 -319 c 128,-1,2
 90 -319 90 -319 122.5 -311 c 128,-1,3
 155 -303 155 -303 179.5 -284.5 c 0,4,5
 235.889 -241.921 235.889 -241.921 235.889 -117.753 c 0,6,7
 235.889 -60.7778 235.889 -60.7778 227 -11 c 1,8,9
 106 16.9231 106 16.9231 106 159 c 0,10,11
 106 185.455 106 185.455 114.5 254.227 c 2,12,-1
 214 994 l 1,13,-1
 95 994 l 1,14,-1
 119 1103 l 1,15,-1
 241 1150 l 1,16,17
 318 1216.5 318 1216.5 402 1416 c 1,18,-1
 591 1416 l 1,19,-1
 558 1155 l 1,20,-1
 766 1155 l 1,21,-1
 743 994 l 1,22,-1
 537 994 l 1,23,-1
 454 390 l 2,24,25
 439 282.857 439 282.857 439 251 c 0,26,27
 439 170 439 170 512 170 c 0,28,29
 613.312 170 613.312 170 681 227 c 1,30,-1
 706 147 l 1,31,32
 594.902 17.3852 594.902 17.3852 399 -12 c 1,33,34
 435 -130.286 435 -130.286 435 -238 c 0,35,36
 435 -484 435 -484 137 -484 c 0,37,38
 54.8 -484 54.8 -484 0.9 -473 c 128,-1,39
 -53 -462 -53 -462 -61 -456 c 1,40,-1
 -26 -303 l 1,0,1
EndSplineSet
Substitution2: "'locl' Localized Forms lookup 7 subtable" uni021B
Substitution2: "'aalt' Access All Alternates in Latin lookup 0 subtable" uni021B
EndChar

StartChar: lacute
Encoding: 314 314 419
Width: 634
Flags: HW
LayerCount: 2
Fore
SplineSet
415 227 m 2,0,1
 404.143 151 404.143 151 453.333 151 c 0,2,3
 480.667 151 480.667 151 542 197 c 1,4,-1
 570 124 l 1,5,6
 509.144 40.323 509.144 40.323 399.5 -1.5 c 0,7,8
 351 -20 351 -20 300 -20 c 128,-1,9
 249 -20 249 -20 211 -12.5 c 128,-1,10
 173 -5 173 -5 143 11 c 0,11,12
 76.8574 46.2761 76.8574 46.2761 75 115 c 0,13,14
 75 144 75 144 83 192 c 2,15,-1
 254 1362 l 1,16,-1
 122 1405 l 1,17,-1
 142 1488 l 1,18,-1
 548 1530 l 1,19,-1
 599 1503 l 1,20,-1
 415 227 l 2,0,1
342 1672 m 1,21,-1
 618 2014 l 1,22,-1
 805 1829 l 1,23,24
 768.842 1760.3 768.842 1760.3 648 1675 c 0,25,26
 542.455 1600.5 542.455 1600.5 458 1570 c 1,27,-1
 342 1672 l 1,21,-1
EndSplineSet
EndChar

StartChar: iogonek
Encoding: 303 303 420
Width: 667
Flags: HW
LayerCount: 2
Fore
SplineSet
510.5 1354 m 128,-1,1
 472 1338 472 1338 429 1338 c 128,-1,2
 386 1338 386 1338 356 1352.5 c 128,-1,3
 326 1367 326 1367 304 1390.5 c 0,4,5
 228.486 1471.16 228.486 1471.16 272 1581.5 c 0,6,7
 301.048 1655.16 301.048 1655.16 372.5 1685.5 c 0,8,9
 409 1701 409 1701 452 1701 c 128,-1,10
 495 1701 495 1701 526.5 1687 c 0,11,12
 590.965 1658.35 590.965 1658.35 614.5 1599 c 0,13,14
 625.08 1572.32 625.08 1572.32 625.08 1536.74 c 128,-1,15
 625.08 1501.15 625.08 1501.15 612.04 1463.08 c 128,-1,16
 599 1425 599 1425 574 1397.5 c 128,-1,0
 549 1370 549 1370 510.5 1354 c 128,-1,1
212 -9 m 1,17,18
 105.145 19.4947 105.145 19.4947 105.145 106.947 c 0,19,20
 105.145 117.638 105.145 117.638 110.572 153.319 c 128,-1,21
 116 189 116 189 127.5 275 c 2,22,-1
 220 980 l 1,23,-1
 56 1031 l 1,24,-1
 74 1112 l 1,25,-1
 520 1163 l 1,26,-1
 575 1139 l 1,27,-1
 447 227 l 2,28,29
 444.877 212.333 444.877 212.333 444.877 200.497 c 0,30,31
 444.877 151 444.877 151 482 151 c 0,32,33
 512.077 151 512.077 151 574 197 c 1,34,-1
 602 124 l 1,35,36
 549.686 62.1739 549.686 62.1739 497.343 30.087 c 128,-1,37
 445 -2 445 -2 401.5 -34 c 128,-1,38
 358 -66 358 -66 325 -97 c 0,39,40
 254 -163.697 254 -163.697 254 -215 c 0,41,42
 254 -287 254 -287 321 -287 c 0,43,44
 362 -287 362 -287 397 -266 c 128,-1,45
 432 -245 432 -245 474 -212 c 1,46,-1
 510 -326 l 1,47,48
 360.968 -480 360.968 -480 166 -480 c 0,49,50
 69 -480 69 -480 21 -432.5 c 128,-1,51
 -27 -385 -27 -385 -27 -306 c 0,52,53
 -27 -247.25 -27 -247.25 19.5 -179.625 c 0,54,55
 94.8798 -70.0001 94.8798 -70.0001 212 -9 c 1,17,18
EndSplineSet
EndChar

StartChar: uogonek
Encoding: 371 371 421
Width: 1276
Flags: HW
LayerCount: 2
Fore
SplineSet
835 -5 m 1,0,1
 748.207 24.4769 748.207 24.4769 748.207 111.5 c 0,2,3
 748.207 126.552 748.207 126.552 751 143 c 1,4,-1
 747 146 l 1,5,6
 680.818 72.1818 680.818 72.1818 626.409 41.0909 c 0,7,8
 519.5 -20 519.5 -20 400 -20 c 0,9,10
 217.306 -20 217.306 -20 138 114 c 0,11,12
 109 163 109 163 108.5 216.5 c 128,-1,13
 108 270 108 270 112 313.5 c 128,-1,14
 116 357 116 357 122 404.5 c 128,-1,15
 128 452 128 452 135.5 501 c 2,16,-1
 204 962 l 1,17,-1
 78 1042 l 1,18,-1
 94 1131 l 1,19,-1
 497 1163 l 1,20,-1
 549 1139 l 1,21,-1
 480 589 l 1,22,23
 443 325.56 443 325.56 443 267.78 c 0,24,25
 443 148 443 148 538 148 c 0,26,27
 645.375 148 645.375 148 732 247 c 1,28,-1
 856 1155 l 1,29,-1
 1182 1155 l 1,30,-1
 1054 227 l 2,31,32
 1044.26 151 1044.26 151 1094 151 c 0,33,34
 1118 151 1118 151 1142 167 c 2,35,-1
 1186 197 l 1,36,-1
 1214 124 l 1,37,38
 1159.33 42.0001 1159.33 42.0001 1042 -2 c 0,39,40
 994 -20 994 -20 934.5 -20 c 128,-1,41
 875 -20 875 -20 835 -5 c 1,42,43
 863 9 863 9 889 20.5 c 128,-1,44
 915 32 915 32 940 45 c 1,45,-1
 1002 59 l 1,46,-1
 1125 39 l 1,47,48
 871 -120.373 871 -120.373 871 -215 c 0,49,50
 871 -287 871 -287 938 -287 c 0,51,52
 979 -287 979 -287 1014 -266 c 128,-1,53
 1049 -245 1049 -245 1091 -212 c 1,54,-1
 1127 -326 l 1,55,56
 977.968 -480 977.968 -480 783 -480 c 0,57,58
 686 -480 686 -480 638 -432.5 c 128,-1,59
 590 -385 590 -385 590 -306 c 0,60,61
 590 -223 590 -223 685 -118.5 c 0,62,63
 742.761 -54.9627 742.761 -54.9627 835 -5 c 1,0,1
EndSplineSet
EndChar

StartChar: Iogonek
Encoding: 302 302 423
Width: 706
Flags: HW
LayerCount: 2
Fore
SplineSet
449 -326 m 1,0,1
 299.968 -480 299.968 -480 105 -480 c 0,2,3
 8 -480 8 -480 -40 -432.5 c 128,-1,4
 -88 -385 -88 -385 -88 -306 c 0,5,6
 -88 -220.358 -88 -220.358 9.5 -115.5 c 0,7,8
 72.4918 -47.7541 72.4918 -47.7541 168 0 c 1,9,-1
 -73 0 l 1,10,-1
 -60 106 l 1,11,-1
 90 136 l 1,12,-1
 255 1394 l 1,13,-1
 108 1420 l 1,14,-1
 120 1530 l 1,15,-1
 791 1530 l 1,16,-1
 779 1420 l 1,17,-1
 607 1394 l 1,18,-1
 442 136 l 1,19,-1
 617 106 l 1,20,-1
 610 0 l 1,21,-1
 387 0 l 1,22,23
 193 -132.488 193 -132.488 193 -209.744 c 128,-1,24
 193 -287 193 -287 260 -287 c 0,25,26
 301 -287 301 -287 336 -266 c 128,-1,27
 371 -245 371 -245 413 -212 c 1,28,-1
 449 -326 l 1,0,1
EndSplineSet
EndChar

StartChar: Uogonek
Encoding: 370 370 424
Width: 1379
Flags: HW
LayerCount: 2
Fore
SplineSet
119.5 253 m 128,-1,1
 94 335 94 335 94 401 c 0,2,3
 94 530 94 530 101 593 c 2,4,-1
 201 1394 l 1,5,-1
 57 1420 l 1,6,-1
 70 1530 l 1,7,-1
 774 1530 l 1,8,-1
 764 1421 l 1,9,-1
 567 1394 l 1,10,-1
 470 623 l 1,11,12
 453 474.857 453 474.857 453 412.929 c 128,-1,13
 453 351 453 351 467.5 292.5 c 128,-1,14
 482 234 482 234 512 192 c 0,15,16
 574.857 104 574.857 104 698 104 c 0,17,18
 951.777 104 951.777 104 1041 411.5 c 0,19,20
 1069 508 1069 508 1085 626 c 2,21,-1
 1189 1394 l 1,22,-1
 1021 1421 l 1,23,-1
 1032 1530 l 1,24,-1
 1516 1530 l 1,25,-1
 1501 1421 l 1,26,-1
 1372 1394 l 1,27,-1
 1275 627 l 2,28,29
 1243 375 1243 375 1153 230 c 128,-1,30
 1063 85 1063 85 915 26 c 1,31,32
 812.46 -66.927 812.46 -66.927 776 -152 c 0,33,34
 764 -180 764 -180 764 -214 c 128,-1,35
 764 -248 764 -248 783 -267.5 c 128,-1,36
 802 -287 802 -287 837.5 -287 c 0,37,38
 893.091 -287 893.091 -287 984 -212 c 1,39,-1
 1020 -326 l 1,40,41
 924.917 -431.271 924.917 -431.271 780 -467.5 c 0,42,43
 730 -480 730 -480 676 -480 c 0,44,45
 579 -480 579 -480 531 -432.5 c 128,-1,46
 483 -385 483 -385 483 -306 c 0,47,48
 483 -245.529 483 -245.529 517 -191.765 c 0,49,50
 576.106 -98.3001 576.106 -98.3001 669 -19 c 1,51,52
 661 -20 661 -20 652.5 -20 c 2,53,-1
 636 -20 l 2,54,55
 340.736 -20 340.736 -20 207 110.5 c 0,56,0
 145 171 145 171 119.5 253 c 128,-1,1
EndSplineSet
EndChar

StartChar: Hbar
Encoding: 294 294 425
Width: 1653
Flags: HW
LayerCount: 2
Fore
SplineSet
-10 106 m 1,0,-1
 128 136 l 1,1,-1
 234 973 l 1,2,-1
 60 973 l 1,3,-1
 74 1123 l 1,4,-1
 253 1123 l 1,5,-1
 288 1394 l 1,6,-1
 143 1420 l 1,7,-1
 157 1530 l 1,8,-1
 832 1530 l 1,9,-1
 820 1420 l 1,10,-1
 640 1394 l 1,11,-1
 605 1123 l 1,12,-1
 1157 1123 l 1,13,-1
 1192 1394 l 1,14,-1
 1015 1420 l 1,15,-1
 1027 1530 l 1,16,-1
 1710 1530 l 1,17,-1
 1698 1420 l 1,18,-1
 1544 1394 l 1,19,-1
 1510 1123 l 1,20,-1
 1688 1123 l 1,21,-1
 1674 973 l 1,22,-1
 1491 973 l 1,23,-1
 1385 136 l 1,24,-1
 1542 106 l 1,25,-1
 1530 0 l 1,26,-1
 827 0 l 1,27,-1
 841 106 l 1,28,-1
 1032 136 l 1,29,-1
 1091 604 l 1,30,-1
 539 604 l 1,31,-1
 480 136 l 1,32,-1
 654 106 l 1,33,-1
 646 0 l 1,34,-1
 -21 0 l 1,35,-1
 -10 106 l 1,0,-1
1111 763 m 1,36,-1
 1138 973 l 1,37,-1
 586 973 l 1,38,-1
 559 763 l 1,39,-1
 1111 763 l 1,36,-1
EndSplineSet
EndChar

StartChar: Tbar
Encoding: 358 358 428
Width: 1225
Flags: HW
LayerCount: 2
Fore
SplineSet
134 106 m 1,0,-1
 384 136 l 1,1,-1
 456 680 l 1,2,-1
 234 680 l 1,3,-1
 250 830 l 1,4,-1
 476 830 l 1,5,-1
 551 1394 l 1,6,-1
 315 1368 l 1,7,-1
 148 945 l 1,8,-1
 -40 945 l 1,9,-1
 59 1530 l 1,10,-1
 1435 1530 l 1,11,-1
 1360 947 l 1,12,-1
 1179 945 l 1,13,-1
 1146 1368 l 1,14,-1
 904 1394 l 1,15,-1
 828 830 l 1,16,-1
 1064 830 l 1,17,-1
 1048 680 l 1,18,-1
 808 680 l 1,19,-1
 736 136 l 1,20,-1
 1020 106 l 1,21,-1
 1010 0 l 1,22,-1
 121 0 l 1,23,-1
 134 106 l 1,0,-1
EndSplineSet
EndChar

StartChar: tbar
Encoding: 359 359 429
Width: 724
Flags: HW
LayerCount: 2
Fore
SplineSet
512 170 m 0,0,1
 613.312 170 613.312 170 681 227 c 1,2,-1
 706 147 l 1,3,4
 611.74 39.8868 611.74 39.8868 446.5 -3 c 0,5,6
 381 -20 381 -20 321.5 -20 c 128,-1,7
 262 -20 262 -20 227.5 -11.5 c 128,-1,8
 193 -3 193 -3 166 18 c 0,9,10
 106 64.6667 106 64.6667 106 159 c 0,11,12
 106 185.455 106 185.455 114.5 254.227 c 2,13,-1
 163 621 l 1,14,-1
 69 621 l 1,15,-1
 85 751 l 1,16,-1
 181 751 l 1,17,-1
 214 994 l 1,18,-1
 95 994 l 1,19,-1
 119 1103 l 1,20,-1
 241 1150 l 1,21,22
 318 1216.5 318 1216.5 402 1416 c 1,23,-1
 591 1416 l 1,24,-1
 558 1155 l 1,25,-1
 766 1155 l 1,26,-1
 743 994 l 1,27,-1
 537 994 l 1,28,-1
 503 751 l 1,29,-1
 667 751 l 1,30,-1
 651 621 l 1,31,-1
 485 621 l 1,32,-1
 454 390 l 2,33,34
 439 282.857 439 282.857 439 251 c 0,35,36
 439 170 439 170 512 170 c 0,0,1
EndSplineSet
EndChar

StartChar: dcroat
Encoding: 273 273 431
Width: 1259
Flags: HW
LayerCount: 2
Fore
SplineSet
1040 229 m 2,0,1
 1029.17 151 1029.17 151 1078.61 151 c 0,2,3
 1106.21 151 1106.21 151 1167 197 c 1,4,-1
 1195 124 l 1,5,-1
 1164.5 90 l 2,6,7
 1112.14 31.5465 1112.14 31.5465 1044.57 5.77323 c 128,-1,8
 977 -20 977 -20 902 -20 c 0,9,10
 752.219 -20 752.219 -20 740 147 c 1,11,12
 659.827 36.285 659.827 36.285 523 -4.5 c 0,13,14
 471 -20 471 -20 392.5 -20 c 128,-1,15
 314 -20 314 -20 248.5 13.5 c 128,-1,16
 183 47 183 47 142 104.5 c 0,17,18
 64 213.89 64 213.89 64 402 c 0,19,20
 64 716.577 64 716.577 228.5 928.5 c 0,21,22
 342.409 1075.25 342.409 1075.25 530 1133.5 c 0,23,24
 625 1163 625 1163 704.75 1163 c 128,-1,25
 784.5 1163 784.5 1163 843 1154 c 1,26,-1
 859 1262 l 1,27,-1
 576 1262 l 1,28,-1
 592 1392 l 1,29,-1
 878 1392 l 1,30,-1
 891 1482 l 1,31,-1
 735 1525 l 1,32,-1
 754 1608 l 1,33,-1
 1186 1650 l 1,34,-1
 1242 1623 l 1,35,-1
 1208 1392 l 1,36,-1
 1334 1392 l 1,37,-1
 1318 1262 l 1,38,-1
 1189 1262 l 1,39,-1
 1040 229 l 2,0,1
549 154 m 0,40,41
 638.9 154 638.9 154 711 257 c 1,42,-1
 821 1007 l 1,43,44
 776 1023 776 1023 716 1023 c 128,-1,45
 656 1023 656 1023 609.5 996.5 c 128,-1,46
 563 970 563 970 528 924.5 c 128,-1,47
 493 879 493 879 469.5 818.5 c 128,-1,48
 446 758 446 758 431.5 690 c 0,49,50
 405 565.724 405 565.724 405 427.362 c 0,51,52
 405 154 405 154 549 154 c 0,40,41
EndSplineSet
EndChar

StartChar: hbar
Encoding: 295 295 432
Width: 1300
Flags: HW
LayerCount: 2
Fore
SplineSet
1114 151 m 0,0,1
 1142.67 151 1142.67 151 1204 197 c 1,2,-1
 1232 124 l 1,3,4
 1170.5 39.432 1170.5 39.432 1051.5 -2.5 c 0,5,6
 999 -21 999 -21 931.5 -21 c 128,-1,7
 864 -21 864 -21 824 -6.5 c 128,-1,8
 784 8 784 8 763 32 c 0,9,10
 729 70.8571 729 70.8571 729 150 c 0,11,12
 729 190.857 729 190.857 740 252.929 c 2,13,-1
 790.5 531.5 l 1,14,15
 820.182 700.861 820.182 700.861 820.182 758.931 c 128,-1,16
 820.182 817 820.182 817 819.591 841.5 c 128,-1,17
 819 866 819 866 814 893 c 128,-1,18
 809 920 809 920 799.5 936 c 0,19,20
 782.281 965 782.281 965 746.141 965 c 128,-1,21
 710 965 710 965 676 944 c 128,-1,22
 642 923 642 923 608.5 887 c 0,23,24
 537.981 811.219 537.981 811.219 491 705 c 1,25,-1
 405 0 l 1,26,-1
 72 0 l 1,27,-1
 224 1262 l 1,28,-1
 92 1262 l 1,29,-1
 108 1392 l 1,30,-1
 240 1392 l 1,31,-1
 251 1482 l 1,32,-1
 124 1525 l 1,33,-1
 140 1608 l 1,34,-1
 549 1650 l 1,35,-1
 604 1623 l 1,36,-1
 575 1392 l 1,37,-1
 790 1392 l 1,38,-1
 774 1262 l 1,39,-1
 559 1262 l 1,40,-1
 517 915 l 1,41,42
 665.8 1163 665.8 1163 901 1163 c 0,43,44
 1166 1163 1166 1163 1166 861 c 0,45,46
 1166 806.412 1166 806.412 1145 676.706 c 2,47,-1
 1117 505 l 2,48,49
 1111 467 1111 467 1103.5 426 c 128,-1,50
 1096 385 1096 385 1089.5 345 c 0,51,52
 1075 255.769 1075 255.769 1075 203.385 c 128,-1,53
 1075 151 1075 151 1114 151 c 0,0,1
EndSplineSet
EndChar

StartChar: eng
Encoding: 331 331 433
Width: 1290
Flags: HW
LayerCount: 2
Fore
SplineSet
828.37 861.565 m 0,0,1
 828.37 965 828.37 965 748 965 c 0,2,3
 664.161 965 664.161 965 568 829.5 c 0,4,5
 535 783 535 783 504 719 c 1,6,-1
 406 0 l 1,7,-1
 82 0 l 1,8,-1
 213 962 l 1,9,-1
 106 1022 l 1,10,-1
 122 1111 l 1,11,-1
 496 1163 l 1,12,-1
 548 1139 l 1,13,-1
 532 930 l 1,14,15
 676.356 1162 676.356 1162 907 1162 c 0,16,17
 1107.39 1162 1107.39 1162 1159.5 1007 c 0,18,19
 1173.85 964.321 1173.85 964.321 1173.85 924.283 c 128,-1,20
 1173.85 884.245 1173.85 884.245 1160.92 730.623 c 0,21,22
 1120.37 248.61 1120.37 248.61 1079.19 43.8051 c 128,-1,23
 1038 -161 1038 -161 995 -264 c 128,-1,24
 952 -367 952 -367 890.5 -425.5 c 128,-1,25
 829 -484 829 -484 746.5 -506 c 128,-1,26
 664 -528 664 -528 594.5 -528 c 128,-1,27
 525 -528 525 -528 498 -525.5 c 128,-1,28
 471 -523 471 -523 448 -518.5 c 0,29,30
 397.696 -508.658 397.696 -508.658 382 -491 c 1,31,-1
 420 -370 l 1,32,33
 448 -382 448 -382 500 -382 c 128,-1,34
 552 -382 552 -382 592.5 -358 c 128,-1,35
 633 -334 633 -334 661.5 -286 c 0,36,37
 711.353 -202.037 711.353 -202.037 735.676 -26.5187 c 128,-1,38
 760 149 760 149 777 355.5 c 128,-1,39
 794 562 794 562 811.185 703.278 c 128,-1,40
 828.37 844.556 828.37 844.556 828.37 861.565 c 0,0,1
EndSplineSet
EndChar

StartChar: Eng
Encoding: 330 330 434
Width: 1545
Flags: HW
LayerCount: 2
Fore
SplineSet
-25 106 m 1,0,-1
 124 136 l 1,1,-1
 305 1394 l 1,2,-1
 135 1420 l 1,3,-1
 151 1530 l 1,4,-1
 708 1530 l 1,5,-1
 1099 620 l 1,6,-1
 1170 370 l 1,7,-1
 1293 1394 l 1,8,-1
 1121 1420 l 1,9,-1
 1132 1530 l 1,10,-1
 1634 1530 l 1,11,-1
 1623 1420 l 1,12,-1
 1500 1394 l 1,13,-1
 1293 0 l 2,14,15
 1265.23 -192.275 1265.23 -192.275 1131 -325.5 c 0,16,17
 983.662 -471.738 983.662 -471.738 762 -485 c 1,18,-1
 714 -367 l 1,19,20
 824.792 -346.226 824.792 -346.226 913 -250 c 0,21,22
 1006.78 -147.693 1006.78 -147.693 1006.78 -23.1567 c 0,23,24
 1006.78 -11.7188 1006.78 -11.7188 1006 0 c 1,25,-1
 539 1028 l 1,26,-1
 461 1282 l 1,27,-1
 341 136 l 1,28,-1
 531 106 l 1,29,-1
 520 0 l 1,30,-1
 -33 0 l 1,31,-1
 -25 106 l 1,0,-1
EndSplineSet
EndChar

StartChar: uni02c9
Encoding: 713 713 443
Width: 614
Flags: HW
LayerCount: 2
Fore
SplineSet
1 1946 m 1,0,-1
 572 1946 l 1,1,-1
 572 1727 l 1,2,-1
 1 1727 l 1,3,-1
 1 1946 l 1,0,-1
EndSplineSet
EndChar

StartChar: uni2113
Encoding: 8467 8467 444
Width: 1214
Flags: HW
LayerCount: 2
Fore
SplineSet
600 -29 m 0,0,1
 434.231 -29 434.231 -29 337 129 c 1,2,3
 256 60 256 60 172 0 c 1,4,-1
 20 128 l 1,5,6
 147.417 220.667 147.417 220.667 262 329 c 1,7,8
 243 428.222 243 428.222 243 554.111 c 128,-1,9
 243 680 243 680 264.5 819.5 c 128,-1,10
 286 959 286 959 326 1086 c 128,-1,11
 366 1213 366 1213 423.5 1321.5 c 128,-1,12
 481 1430 481 1430 553.5 1509.5 c 0,13,14
 708.987 1680 708.987 1680 892 1680 c 0,15,16
 996.042 1680 996.042 1680 1059 1605.5 c 128,-1,17
 1122 1530.95 1122 1530.95 1122 1408.97 c 128,-1,18
 1122 1287 1122 1287 1075 1143 c 128,-1,19
 1028 999 1028 999 944 850.5 c 0,20,21
 772.598 547.485 772.598 547.485 495 274 c 1,22,23
 544.123 162 544.123 162 621 162 c 0,24,25
 755.398 162 755.398 162 816 363.5 c 0,26,27
 836 430 836 430 842 517 c 1,28,-1
 1057 480 l 1,29,30
 1040.38 251.443 1040.38 251.443 924 115 c 0,31,32
 801.176 -29 801.176 -29 600 -29 c 0,0,1
453 528 m 1,33,34
 655.281 764.309 655.281 764.309 770 1012.5 c 0,35,36
 873 1235.34 873 1235.34 873 1393 c 0,37,38
 873 1410 873 1410 863.5 1423.5 c 128,-1,39
 854 1437 854 1437 844 1437 c 0,40,41
 761.95 1437 761.95 1437 666.5 1284.5 c 0,42,43
 524.125 1057.03 524.125 1057.03 470 727.5 c 0,44,45
 453 624 453 624 453 531 c 2,46,-1
 453 528 l 1,33,34
EndSplineSet
EndChar

StartChar: uni2215
Encoding: 8725 8725 445
Width: 854
Flags: HW
LayerCount: 2
Fore
SplineSet
711 1599 m 1,0,-1
 918 1599 l 1,1,-1
 143 -363 l 1,2,-1
 -64 -363 l 1,3,-1
 711 1599 l 1,0,-1
EndSplineSet
EndChar

StartChar: foursuperior
Encoding: 8308 8308 447
Width: 1264
Flags: HW
LayerCount: 2
Fore
SplineSet
677 742 m 1,0,-1
 128 742 l 1,1,-1
 91 837 l 1,2,-1
 665 1700 l 1,3,-1
 823 1701 l 1,4,-1
 946 1597 l 1,5,-1
 498 1024 l 1,6,-1
 371 890 l 1,7,-1
 699 901 l 1,8,-1
 732 1133 l 1,9,-1
 979 1156 l 1,10,-1
 946 910 l 1,11,-1
 1135 917 l 1,12,-1
 1115 742 l 1,13,-1
 923 742 l 1,14,-1
 878 411 l 1,15,-1
 630 411 l 1,16,-1
 677 742 l 1,0,-1
EndSplineSet
EndChar

StartChar: minus
Encoding: 8722 8722 448
Width: 1286
Flags: HW
LayerCount: 2
Fore
SplineSet
266 871 m 1,0,-1
 1123 871 l 1,1,-1
 1105 673 l 1,2,-1
 248 673 l 1,3,-1
 266 871 l 1,0,-1
EndSplineSet
EndChar

